<svg xmlns="http://www.w3.org/2000/svg" xmlns:xlink="http://www.w3.org/1999/xlink" width="500" zoomAndPan="magnify" viewBox="0 0 375 374.999991" height="500" preserveAspectRatio="xMidYMid meet" version="1.0"><defs><g/><clipPath id="6f504acced"><path d="M 238 194 L 244.707031 194 L 244.707031 202 L 238 202 Z M 238 194 " clip-rule="nonzero"/></clipPath><clipPath id="a87be5cea1"><path d="M 225.957031 193.332031 L 244.707031 193.332031 L 244.707031 212.082031 L 225.957031 212.082031 Z M 225.957031 193.332031 " clip-rule="nonzero"/></clipPath><clipPath id="58094df34d"><path d="M 220.125 187.5 L 250.875 187.5 L 250.875 218.25 L 220.125 218.25 Z M 220.125 187.5 " clip-rule="nonzero"/></clipPath><clipPath id="3573f50778"><rect x="0" width="116" y="0" height="126"/></clipPath></defs><rect x="-37.5" width="450" fill="#ffffff" y="-37.499999" height="449.999989" fill-opacity="1"/><rect x="-37.5" width="450" fill="#ffffff" y="-37.499999" height="449.999989" fill-opacity="1"/><g clip-path="url(#6f504acced)"><path fill="#000000" d="M 238.191406 201.390625 L 245.011719 201.390625 L 245.011719 194.722656 Z M 238.191406 201.390625 " fill-opacity="1" fill-rule="nonzero"/></g><g clip-path="url(#a87be5cea1)"><path fill="#000000" d="M 242.105469 204.101562 C 241.515625 207.246094 238.761719 209.636719 235.449219 209.636719 C 231.710938 209.636719 228.671875 206.597656 228.671875 202.859375 C 228.671875 199.121094 231.710938 196.078125 235.449219 196.078125 C 238.007812 196.078125 240.207031 197.515625 241.363281 199.609375 L 244.355469 199.609375 C 243.023438 195.972656 239.539062 193.367188 235.449219 193.367188 C 230.214844 193.367188 225.957031 197.625 225.957031 202.859375 C 225.957031 208.09375 230.214844 212.351562 235.449219 212.351562 C 240.261719 212.351562 244.238281 208.75 244.851562 204.101562 Z M 242.105469 204.101562 " fill-opacity="1" fill-rule="nonzero"/></g><g clip-path="url(#58094df34d)"><path fill="#059f14" d="M 235.488281 187.5 C 227.007812 187.5 220.125 194.382812 220.125 202.863281 C 220.125 211.34375 227.007812 218.226562 235.488281 218.226562 C 243.96875 218.226562 250.851562 211.34375 250.851562 202.863281 C 250.851562 194.382812 243.96875 187.5 235.488281 187.5 Z M 235.488281 188.351562 C 243.507812 188.351562 250 194.84375 250 202.863281 C 250 210.882812 243.507812 217.371094 235.488281 217.371094 C 227.46875 217.371094 220.980469 210.882812 220.980469 202.863281 C 220.980469 194.84375 227.46875 188.351562 235.488281 188.351562 Z M 235.488281 188.351562 " fill-opacity="1" fill-rule="nonzero"/></g><g transform="matrix(1, 0, 0, 1, 72, 115)"><g clip-path="url(#3573f50778)"><g fill="#000000" fill-opacity="1"><g transform="translate(0.441277, 101.686435)"><g><path d="M 53.078125 -21.515625 C 53.078125 -17.035156 52.03125 -13.066406 49.9375 -9.609375 C 47.851562 -6.160156 44.953125 -3.484375 41.234375 -1.578125 C 37.515625 0.316406 33.25 1.265625 28.4375 1.265625 C 24.226562 1.265625 20.40625 0.429688 16.96875 -1.234375 C 13.53125 -2.898438 10.722656 -5.289062 8.546875 -8.40625 C 6.378906 -11.519531 5.046875 -15.164062 4.546875 -19.34375 L 13.640625 -20.8125 C 14.609375 -15.925781 16.347656 -12.269531 18.859375 -9.84375 C 21.367188 -7.425781 24.5625 -6.21875 28.4375 -6.21875 C 31.300781 -6.21875 33.867188 -6.863281 36.140625 -8.15625 C 38.410156 -9.445312 40.175781 -11.242188 41.4375 -13.546875 C 42.695312 -15.859375 43.328125 -18.445312 43.328125 -21.3125 C 43.328125 -24.175781 42.738281 -26.660156 41.5625 -28.765625 C 40.382812 -30.867188 38.726562 -32.492188 36.59375 -33.640625 C 34.457031 -34.785156 31.988281 -35.359375 29.1875 -35.359375 L 21.3125 -35.359375 L 22.421875 -42.734375 L 24.1875 -42.734375 C 29.882812 -42.734375 34.117188 -43.789062 36.890625 -45.90625 C 39.671875 -48.03125 41.0625 -51.078125 41.0625 -55.046875 C 41.0625 -58.648438 39.945312 -61.476562 37.71875 -63.53125 C 35.5 -65.59375 32.472656 -66.625 28.640625 -66.625 C 24.898438 -66.625 21.789062 -65.4375 19.3125 -63.0625 C 16.84375 -60.6875 15.269531 -57.394531 14.59375 -53.1875 L 5.359375 -54.59375 C 6.066406 -58.601562 7.476562 -62.0625 9.59375 -64.96875 C 11.71875 -67.882812 14.410156 -70.125 17.671875 -71.6875 C 20.941406 -73.257812 24.582031 -74.046875 28.59375 -74.046875 C 32.96875 -74.046875 36.796875 -73.269531 40.078125 -71.71875 C 43.359375 -70.164062 45.890625 -67.972656 47.671875 -65.140625 C 49.460938 -62.316406 50.359375 -59.039062 50.359375 -55.3125 C 50.359375 -51.875 49.363281 -48.78125 47.375 -46.03125 C 45.382812 -43.289062 42.65625 -41.265625 39.1875 -39.953125 L 39.1875 -39.703125 C 42.019531 -39.054688 44.476562 -37.882812 46.5625 -36.1875 C 48.65625 -34.488281 50.265625 -32.375 51.390625 -29.84375 C 52.515625 -27.320312 53.078125 -24.546875 53.078125 -21.515625 Z M 53.078125 -21.515625 "/></g></g></g><g fill="#000000" fill-opacity="1"><g transform="translate(57.967853, 101.686435)"><g><path d="M 4.703125 -36.265625 C 4.703125 -44.046875 5.375 -50.566406 6.71875 -55.828125 C 8.0625 -61.097656 10.484375 -65.453125 13.984375 -68.890625 C 17.492188 -72.328125 22.425781 -74.046875 28.78125 -74.046875 C 36.800781 -74.046875 42.832031 -71.046875 46.875 -65.046875 C 50.914062 -59.054688 52.9375 -49.515625 52.9375 -36.421875 C 52.9375 -23.960938 50.988281 -14.566406 47.09375 -8.234375 C 43.207031 -1.898438 37.101562 1.265625 28.78125 1.265625 C 20.0625 1.265625 13.867188 -2 10.203125 -8.53125 C 6.535156 -15.0625 4.703125 -24.304688 4.703125 -36.265625 Z M 28.640625 -66.5625 C 25.304688 -66.5625 22.578125 -65.59375 20.453125 -63.65625 C 18.328125 -61.726562 16.726562 -58.546875 15.65625 -54.109375 C 14.582031 -49.679688 14.046875 -43.75 14.046875 -36.3125 C 14.046875 -28.90625 14.566406 -23.003906 15.609375 -18.609375 C 16.648438 -14.210938 18.238281 -11.046875 20.375 -9.109375 C 22.519531 -7.179688 25.320312 -6.21875 28.78125 -6.21875 C 32.21875 -6.21875 35.015625 -7.179688 37.171875 -9.109375 C 39.328125 -11.046875 40.9375 -14.210938 42 -18.609375 C 43.0625 -23.003906 43.59375 -28.90625 43.59375 -36.3125 C 43.59375 -43.75 43.039062 -49.679688 41.9375 -54.109375 C 40.84375 -58.546875 39.207031 -61.726562 37.03125 -63.65625 C 34.863281 -65.59375 32.066406 -66.5625 28.640625 -66.5625 Z M 28.640625 -66.5625 "/></g></g></g></g></g><g fill="#000000" fill-opacity="1"><g transform="translate(187.499992, 178.43196)"><g><path d="M 21.296875 -26.34375 L 29.296875 -26.34375 L 29.296875 0 L 24.359375 0 L 24.359375 -20.765625 L 18.625 0 L 13.515625 0 L 7.71875 -20.765625 L 7.71875 0 L 2.765625 0 L 2.765625 -26.34375 L 10.734375 -26.34375 L 16.09375 -7.6875 Z M 21.296875 -26.34375 "/></g></g></g><g fill="#000000" fill-opacity="1"><g transform="translate(219.563726, 178.43196)"><g><path d="M 7.625 -16.9375 C 9.101562 -18.644531 10.945312 -19.5 13.15625 -19.5 C 14.726562 -19.5 16.128906 -19.101562 17.359375 -18.3125 C 18.585938 -17.53125 19.546875 -16.398438 20.234375 -14.921875 C 20.921875 -13.453125 21.265625 -11.71875 21.265625 -9.71875 C 21.265625 -7.675781 20.910156 -5.882812 20.203125 -4.34375 C 19.503906 -2.800781 18.546875 -1.613281 17.328125 -0.78125 C 16.109375 0.0390625 14.738281 0.453125 13.21875 0.453125 C 11.882812 0.453125 10.742188 0.222656 9.796875 -0.234375 C 8.859375 -0.691406 8.019531 -1.453125 7.28125 -2.515625 L 7.203125 -2.515625 L 7.203125 0 L 2.5 0 L 2.5 -26.34375 L 7.546875 -26.34375 L 7.546875 -16.9375 Z M 11.796875 -15.46875 C 10.953125 -15.46875 10.207031 -15.253906 9.5625 -14.828125 C 8.914062 -14.398438 8.410156 -13.769531 8.046875 -12.9375 C 7.691406 -12.101562 7.515625 -11.101562 7.515625 -9.9375 C 7.515625 -7.851562 7.910156 -6.269531 8.703125 -5.1875 C 9.492188 -4.113281 10.585938 -3.578125 11.984375 -3.578125 C 12.816406 -3.578125 13.539062 -3.800781 14.15625 -4.25 C 14.769531 -4.707031 15.242188 -5.378906 15.578125 -6.265625 C 15.921875 -7.160156 16.09375 -8.226562 16.09375 -9.46875 C 16.09375 -11.394531 15.722656 -12.875 14.984375 -13.90625 C 14.253906 -14.945312 13.191406 -15.46875 11.796875 -15.46875 Z M 11.796875 -15.46875 "/></g></g></g><g fill="#000000" fill-opacity="1"><g transform="translate(242.083832, 178.43196)"><g><path d="M 7.640625 -2.046875 L 7.546875 -2.046875 L 7.546875 7.296875 L 2.5 7.296875 L 2.5 -19.078125 L 7.203125 -19.078125 L 7.203125 -16.265625 L 7.296875 -16.265625 C 7.953125 -17.367188 8.804688 -18.179688 9.859375 -18.703125 C 10.910156 -19.234375 12.035156 -19.5 13.234375 -19.5 C 14.765625 -19.5 16.132812 -19.082031 17.34375 -18.25 C 18.5625 -17.414062 19.519531 -16.234375 20.21875 -14.703125 C 20.914062 -13.171875 21.265625 -11.382812 21.265625 -9.34375 C 21.265625 -7.332031 20.921875 -5.585938 20.234375 -4.109375 C 19.554688 -2.628906 18.609375 -1.5 17.390625 -0.71875 C 16.171875 0.0625 14.765625 0.453125 13.171875 0.453125 C 11.941406 0.453125 10.914062 0.273438 10.09375 -0.078125 C 9.269531 -0.441406 8.453125 -1.097656 7.640625 -2.046875 Z M 12 -15.46875 C 10.695312 -15.46875 9.625 -14.960938 8.78125 -13.953125 C 7.9375 -12.941406 7.515625 -11.328125 7.515625 -9.109375 C 7.515625 -7.972656 7.691406 -6.988281 8.046875 -6.15625 C 8.398438 -5.320312 8.898438 -4.679688 9.546875 -4.234375 C 10.191406 -3.796875 10.953125 -3.578125 11.828125 -3.578125 C 13.210938 -3.578125 14.269531 -4.085938 15 -5.109375 C 15.726562 -6.140625 16.09375 -7.628906 16.09375 -9.578125 C 16.09375 -11.429688 15.726562 -12.875 15 -13.90625 C 14.269531 -14.945312 13.269531 -15.46875 12 -15.46875 Z M 12 -15.46875 "/></g></g></g><g fill="#000000" fill-opacity="1"><g transform="translate(264.603938, 178.43196)"><g><path d="M 9.1875 -15.90625 C 8.382812 -15.90625 7.734375 -15.765625 7.234375 -15.484375 C 6.742188 -15.203125 6.5 -14.816406 6.5 -14.328125 C 6.5 -13.953125 6.613281 -13.632812 6.84375 -13.375 C 7.082031 -13.125 7.5 -12.890625 8.09375 -12.671875 C 8.6875 -12.460938 9.519531 -12.269531 10.59375 -12.09375 C 13.007812 -11.6875 14.789062 -11 15.9375 -10.03125 C 17.09375 -9.070312 17.671875 -7.71875 17.671875 -5.96875 C 17.671875 -4.75 17.347656 -3.648438 16.703125 -2.671875 C 16.054688 -1.691406 15.125 -0.925781 13.90625 -0.375 C 12.6875 0.175781 11.253906 0.453125 9.609375 0.453125 C 7.109375 0.453125 5.140625 -0.046875 3.703125 -1.046875 C 2.265625 -2.046875 1.394531 -3.515625 1.09375 -5.453125 L 5.828125 -6.203125 C 6.035156 -5.191406 6.4375 -4.429688 7.03125 -3.921875 C 7.632812 -3.410156 8.492188 -3.15625 9.609375 -3.15625 C 10.566406 -3.15625 11.332031 -3.332031 11.90625 -3.6875 C 12.488281 -4.050781 12.78125 -4.550781 12.78125 -5.1875 C 12.78125 -5.539062 12.679688 -5.835938 12.484375 -6.078125 C 12.296875 -6.328125 11.941406 -6.546875 11.421875 -6.734375 C 10.910156 -6.929688 10.175781 -7.101562 9.21875 -7.25 C 6.570312 -7.65625 4.648438 -8.394531 3.453125 -9.46875 C 2.253906 -10.550781 1.65625 -11.988281 1.65625 -13.78125 C 1.65625 -14.945312 1.957031 -15.960938 2.5625 -16.828125 C 3.175781 -17.691406 4.054688 -18.351562 5.203125 -18.8125 C 6.347656 -19.269531 7.707031 -19.5 9.28125 -19.5 C 11.507812 -19.5 13.304688 -19.054688 14.671875 -18.171875 C 16.035156 -17.285156 16.859375 -16.023438 17.140625 -14.390625 L 12.328125 -13.703125 C 12.179688 -14.398438 11.828125 -14.941406 11.265625 -15.328125 C 10.710938 -15.710938 10.019531 -15.90625 9.1875 -15.90625 Z M 9.1875 -15.90625 "/></g></g></g></svg>