<svg xmlns="http://www.w3.org/2000/svg" xmlns:xlink="http://www.w3.org/1999/xlink" width="500" zoomAndPan="magnify" viewBox="0 0 375 374.999991" height="500" preserveAspectRatio="xMidYMid meet" version="1.0"><defs><clipPath id="4f8baa45fd"><path d="M 114.015625 114.015625 L 260.984375 114.015625 L 260.984375 260.984375 L 114.015625 260.984375 Z M 114.015625 114.015625 " clip-rule="nonzero"/></clipPath><clipPath id="8536bea3c2"><path d="M 187.5 114.015625 C 146.917969 114.015625 114.015625 146.917969 114.015625 187.5 C 114.015625 228.082031 146.917969 260.984375 187.5 260.984375 C 228.082031 260.984375 260.984375 228.082031 260.984375 187.5 C 260.984375 146.917969 228.082031 114.015625 187.5 114.015625 Z M 187.5 114.015625 " clip-rule="nonzero"/></clipPath><clipPath id="79c6be2352"><path d="M 0.015625 0.015625 L 146.984375 0.015625 L 146.984375 146.984375 L 0.015625 146.984375 Z M 0.015625 0.015625 " clip-rule="nonzero"/></clipPath><clipPath id="f07e3af5fc"><path d="M 73.5 0.015625 C 32.917969 0.015625 0.015625 32.917969 0.015625 73.5 C 0.015625 114.082031 32.917969 146.984375 73.5 146.984375 C 114.082031 146.984375 146.984375 114.082031 146.984375 73.5 C 146.984375 32.917969 114.082031 0.015625 73.5 0.015625 Z M 73.5 0.015625 " clip-rule="nonzero"/></clipPath><clipPath id="137d44eed5"><rect x="0" width="147" y="0" height="147"/></clipPath><clipPath id="c7e1b4edf8"><path d="M 182 144 L 238.1875 144 L 238.1875 233.238281 L 182 233.238281 Z M 182 144 " clip-rule="nonzero"/></clipPath><clipPath id="742ebb2f50"><path d="M 136.9375 142 L 187 142 L 187 165 L 136.9375 165 Z M 136.9375 142 " clip-rule="nonzero"/></clipPath></defs><g clip-path="url(#4f8baa45fd)"><g clip-path="url(#8536bea3c2)"><g transform="matrix(1, 0, 0, 1, 114, 114)"><g clip-path="url(#137d44eed5)"><g clip-path="url(#79c6be2352)"><g clip-path="url(#f07e3af5fc)"><path fill="#ff751f" d="M 0.015625 0.015625 L 146.984375 0.015625 L 146.984375 146.984375 L 0.015625 146.984375 Z M 0.015625 0.015625 " fill-opacity="1" fill-rule="nonzero"/></g></g></g></g></g></g><path fill="#ffde59" d="M 185.574219 212.296875 C 168.464844 212.296875 154.238281 198.261719 154.238281 180.960938 C 154.238281 163.65625 168.464844 149.625 185.574219 149.625 C 202.875 149.625 216.910156 163.65625 216.910156 180.960938 C 216.910156 198.261719 202.875 212.296875 185.574219 212.296875 Z M 185.574219 199.03125 L 185.382812 199.03125 L 185.382812 198.839844 L 185.191406 198.839844 C 185.191406 198.839844 184.996094 198.839844 184.996094 198.839844 L 184.804688 198.839844 L 169.042969 190.570312 C 168.65625 190.1875 168.273438 189.800781 168.273438 189.035156 L 168.847656 172.308594 C 168.847656 171.730469 169.042969 171.347656 169.617188 170.960938 C 169.617188 170.960938 169.617188 170.960938 169.808594 170.960938 L 184.996094 163.082031 C 185.382812 162.886719 185.957031 162.886719 186.34375 163.082031 L 201.722656 170.960938 C 202.105469 171.15625 202.492188 171.730469 202.492188 172.308594 L 203.070312 189.035156 C 203.070312 189.800781 202.683594 190.1875 202.300781 190.570312 L 186.34375 198.839844 L 186.152344 198.839844 C 186.152344 198.839844 185.957031 198.839844 185.957031 199.03125 Z M 174.039062 172.117188 L 181.535156 175.191406 L 185.574219 176.921875 L 197.300781 172.117188 L 185.574219 166.15625 Z M 184.035156 194.800781 L 184.035156 179.613281 L 171.925781 174.613281 L 171.347656 188.265625 Z M 187.113281 179.613281 L 187.113281 194.800781 L 199.992188 188.265625 L 199.414062 174.613281 L 197.300781 175.382812 Z M 187.113281 179.613281 " fill-opacity="1" fill-rule="evenodd"/><g clip-path="url(#c7e1b4edf8)"><path fill="#ffde59" d="M 223.445312 153.660156 L 222.484375 160.390625 C 222.292969 161.925781 221.140625 162.886719 219.601562 162.886719 C 219.410156 162.886719 219.601562 162.886719 219.21875 162.886719 C 217.679688 162.695312 216.527344 161.351562 216.910156 159.621094 L 218.257812 148.660156 C 218.640625 145.96875 221.140625 144.046875 223.832031 144.433594 L 234.980469 145.777344 C 236.519531 145.96875 237.671875 147.507812 237.480469 149.046875 C 237.097656 150.585938 235.75 151.738281 234.210938 151.546875 L 228.445312 150.777344 C 234.789062 159.621094 238.058594 170 238.058594 180.960938 C 238.058594 209.796875 214.601562 233.25 185.574219 233.25 C 184.035156 233.25 182.691406 232.097656 182.691406 230.367188 C 182.691406 228.828125 184.035156 227.484375 185.574219 227.484375 C 211.335938 227.484375 232.289062 206.71875 232.289062 180.960938 C 232.289062 170.960938 229.214844 161.542969 223.445312 153.660156 Z M 223.445312 153.660156 " fill-opacity="1" fill-rule="evenodd"/></g><path fill="#ffde59" d="M 154.816406 220.753906 L 154.816406 180.960938 C 154.816406 179.421875 156.160156 178.074219 157.699219 178.074219 C 159.429688 178.074219 160.582031 179.421875 160.582031 180.960938 L 160.582031 220.753906 L 163.660156 216.71875 C 164.621094 215.371094 166.351562 215.179688 167.695312 216.140625 C 169.042969 217.101562 169.234375 218.832031 168.273438 220.175781 L 161.351562 229.40625 C 160.582031 230.558594 159.238281 231.328125 157.699219 231.328125 C 156.351562 231.328125 155.007812 230.558594 154.238281 229.40625 L 147.316406 220.175781 C 146.355469 218.832031 146.546875 217.101562 147.894531 216.140625 C 149.046875 215.179688 150.96875 215.371094 151.929688 216.71875 Z M 154.816406 220.753906 " fill-opacity="1" fill-rule="evenodd"/><g clip-path="url(#742ebb2f50)"><path fill="#ffde59" d="M 147.316406 155.96875 L 151.546875 159.042969 C 152.699219 160.003906 153.085938 161.734375 152.125 163.082031 C 151.546875 163.847656 150.585938 164.234375 149.816406 164.234375 C 149.238281 164.234375 148.472656 164.042969 148.085938 163.65625 L 138.859375 156.734375 C 137.707031 155.773438 136.9375 154.621094 136.9375 153.082031 C 136.9375 151.738281 137.707031 150.390625 138.859375 149.429688 L 148.085938 142.703125 C 149.238281 141.742188 151.164062 141.933594 152.125 143.277344 C 153.085938 144.433594 152.699219 146.355469 151.546875 147.316406 L 147.507812 150.199219 L 183.84375 150.199219 C 185.382812 150.199219 186.726562 151.546875 186.726562 153.082031 C 186.726562 154.621094 185.382812 155.96875 183.84375 155.96875 Z M 147.316406 155.96875 " fill-opacity="1" fill-rule="evenodd"/></g></svg>