<svg xmlns="http://www.w3.org/2000/svg" xmlns:xlink="http://www.w3.org/1999/xlink" width="500" zoomAndPan="magnify" viewBox="0 0 375 374.999991" height="500" preserveAspectRatio="xMidYMid meet" version="1.0"><defs><clipPath id="6c2dfec09a"><path d="M 114.015625 114.015625 L 260.984375 114.015625 L 260.984375 260.984375 L 114.015625 260.984375 Z M 114.015625 114.015625 " clip-rule="nonzero"/></clipPath><clipPath id="667105d9b2"><path d="M 187.5 114.015625 C 146.917969 114.015625 114.015625 146.917969 114.015625 187.5 C 114.015625 228.082031 146.917969 260.984375 187.5 260.984375 C 228.082031 260.984375 260.984375 228.082031 260.984375 187.5 C 260.984375 146.917969 228.082031 114.015625 187.5 114.015625 Z M 187.5 114.015625 " clip-rule="nonzero"/></clipPath><clipPath id="b3fa487295"><path d="M 0.015625 0.015625 L 146.984375 0.015625 L 146.984375 146.984375 L 0.015625 146.984375 Z M 0.015625 0.015625 " clip-rule="nonzero"/></clipPath><clipPath id="f23acfc341"><path d="M 73.5 0.015625 C 32.917969 0.015625 0.015625 32.917969 0.015625 73.5 C 0.015625 114.082031 32.917969 146.984375 73.5 146.984375 C 114.082031 146.984375 146.984375 114.082031 146.984375 73.5 C 146.984375 32.917969 114.082031 0.015625 73.5 0.015625 Z M 73.5 0.015625 " clip-rule="nonzero"/></clipPath><clipPath id="113ef17d0d"><rect x="0" width="147" y="0" height="147"/></clipPath><clipPath id="b9d75a6e1c"><path d="M 132.070312 153 L 249 153 L 249 218.625 L 132.070312 218.625 Z M 132.070312 153 " clip-rule="nonzero"/></clipPath></defs><g clip-path="url(#6c2dfec09a)"><g clip-path="url(#667105d9b2)"><g transform="matrix(1, 0, 0, 1, 114, 114)"><g clip-path="url(#113ef17d0d)"><g clip-path="url(#b3fa487295)"><g clip-path="url(#f23acfc341)"><path fill="#ffde59" d="M 0.015625 0.015625 L 146.984375 0.015625 L 146.984375 146.984375 L 0.015625 146.984375 Z M 0.015625 0.015625 " fill-opacity="1" fill-rule="nonzero"/></g></g></g></g></g></g><g clip-path="url(#b9d75a6e1c)"><path fill="#010101" d="M 229.703125 190.914062 C 230.683594 190.859375 231.230469 190.804688 231.394531 190.804688 C 234.617188 190.640625 238.003906 190.996094 241.035156 192.140625 C 245.679688 193.863281 248 197.550781 248.492188 202.382812 C 249.035156 207.707031 247.289062 213.0625 242.539062 215.929688 C 239.558594 217.703125 235.984375 218.003906 232.597656 218.140625 C 226.453125 218.414062 222.027344 218.578125 219.378906 218.660156 C 217.058594 218.714844 214.054688 218.742188 210.339844 218.742188 C 202.554688 218.742188 189.964844 218.714844 166.972656 218.714844 C 161.097656 218.714844 155.527344 218.605469 150.203125 218.359375 C 147.910156 218.25 145.75 217.921875 143.730469 217.347656 C 141.871094 216.828125 139.90625 215.957031 138.378906 214.726562 C 135.375 212.324219 133.734375 208.773438 133.023438 205.03125 C 132.503906 202.300781 132.394531 199.542969 132.996094 196.839844 C 133.898438 192.660156 136.519531 189.628906 140.644531 188.207031 C 142.390625 187.609375 144.25 187.226562 146.214844 187.0625 C 146.40625 187.035156 146.652344 187.007812 146.980469 186.980469 C 147.035156 186.953125 147.035156 186.953125 147.035156 186.925781 C 147.035156 186.898438 147.035156 186.898438 147.035156 186.898438 C 144.441406 180.398438 145.503906 171.988281 152.222656 168.4375 C 155.636719 166.660156 159.789062 166.46875 163.449219 167.78125 C 163.476562 167.808594 163.476562 167.808594 163.503906 167.808594 C 163.53125 167.808594 163.585938 167.78125 163.585938 167.726562 C 164.484375 165.570312 165.632812 163.546875 167.078125 161.664062 C 168.992188 159.152344 171.394531 157.210938 174.261719 155.820312 C 180.023438 153.0625 186.769531 152.625 192.804688 154.34375 C 195.101562 155.027344 197.09375 155.847656 198.785156 156.828125 C 204.058594 159.914062 207.390625 165.324219 209.164062 171.03125 C 209.164062 171.058594 209.191406 171.085938 209.246094 171.085938 C 209.246094 171.085938 209.246094 171.085938 209.273438 171.058594 C 213.34375 168.957031 218.011719 168.328125 222.355469 170.046875 C 225.660156 171.332031 228.253906 173.84375 229.757812 177.066406 C 231.804688 181.4375 231.503906 186.40625 229.648438 190.832031 C 229.648438 190.859375 229.648438 190.859375 229.648438 190.859375 C 229.648438 190.886719 229.675781 190.914062 229.703125 190.914062 Z M 229.703125 190.914062 " fill-opacity="1" fill-rule="evenodd"/></g><path fill="#5170ff" d="M 226.96875 191.894531 C 226.832031 192.359375 227.214844 192.90625 227.652344 193.042969 C 227.789062 193.097656 228.089844 193.097656 228.527344 193.015625 C 231.96875 192.523438 235.519531 192.578125 238.878906 193.480469 C 241.882812 194.300781 244.367188 195.992188 245.597656 198.804688 C 246.113281 199.980469 246.441406 201.289062 246.578125 202.710938 C 247.152344 208.445312 244.53125 213.851562 238.742188 215.464844 C 237.949219 215.65625 237.074219 215.820312 236.066406 215.929688 C 234.699219 216.066406 233.007812 216.203125 230.957031 216.285156 C 222.136719 216.609375 217.546875 216.828125 210.585938 216.828125 C 190.046875 216.800781 175.519531 216.773438 167.023438 216.773438 C 162.054688 216.746094 156.675781 216.636719 150.859375 216.421875 C 149.191406 216.367188 147.5 216.175781 145.832031 215.847656 C 141.410156 215.027344 137.886719 212.707031 136.136719 208.582031 C 134.910156 205.714844 134.390625 202.65625 134.582031 199.433594 C 134.800781 195.910156 136.191406 192.6875 139.304688 190.914062 C 141.925781 189.410156 145.285156 188.945312 148.316406 188.890625 C 148.972656 188.890625 149.410156 188.589844 149.519531 187.9375 C 149.546875 187.746094 149.464844 187.445312 149.273438 187.0625 C 146.488281 181.355469 147.007812 173.351562 153.261719 170.074219 C 156.484375 168.382812 160.417969 168.492188 163.695312 169.992188 C 163.75 170.019531 163.804688 170.046875 163.832031 170.046875 C 164.402344 170.128906 164.8125 169.882812 165.003906 169.335938 C 165.933594 166.878906 167.1875 164.640625 168.773438 162.648438 C 172.515625 157.867188 178.441406 155.519531 184.449219 155.300781 C 189.992188 155.054688 196.027344 156.71875 200.34375 160.351562 C 203.539062 163.054688 205.832031 167.097656 207.144531 171.140625 C 207.308594 171.605469 207.417969 172.042969 207.527344 172.476562 C 207.636719 172.914062 207.773438 173.1875 207.9375 173.296875 C 208.453125 173.652344 208.78125 173.570312 209.355469 173.242188 C 211.101562 172.234375 212.933594 171.550781 214.816406 171.195312 C 221.835938 169.882812 228.089844 174.609375 229.101562 181.601562 C 229.539062 184.660156 228.855469 188.398438 227.324219 191.132812 C 227.132812 191.511719 226.996094 191.757812 226.96875 191.894531 Z M 226.96875 191.894531 " fill-opacity="1" fill-rule="evenodd"/><path fill="#010101" d="M 175.382812 189.847656 C 176.394531 192.742188 174.863281 195.828125 171.996094 196.8125 C 169.15625 197.792969 166.042969 196.292969 165.058594 193.453125 C 164.074219 190.613281 165.605469 187.5 168.445312 186.515625 C 171.3125 185.53125 174.425781 187.035156 175.410156 189.875 Z M 175.382812 189.847656 " fill-opacity="1" fill-rule="evenodd"/><path fill="#010101" d="M 214.542969 191.675781 C 214.542969 194.679688 212.113281 197.113281 209.082031 197.113281 C 206.078125 197.113281 203.648438 194.679688 203.648438 191.675781 C 203.648438 188.671875 206.078125 186.214844 209.082031 186.214844 C 212.113281 186.214844 214.542969 188.671875 214.542969 191.675781 Z M 214.542969 191.675781 " fill-opacity="1" fill-rule="evenodd"/><path fill="#010101" d="M 183.546875 195.636719 C 183.683594 195.035156 184.585938 194.816406 185.050781 195.199219 C 185.1875 195.335938 185.324219 195.554688 185.433594 195.882812 C 186.195312 197.984375 188.738281 198.695312 190.757812 198.285156 C 192.230469 197.957031 193.1875 197.085938 193.652344 195.691406 C 193.953125 194.789062 195.15625 194.761719 195.480469 195.664062 C 195.535156 195.828125 195.507812 196.074219 195.371094 196.429688 C 194.691406 198.367188 193.214844 199.542969 191.222656 200.035156 C 189.691406 200.390625 188.164062 200.253906 186.6875 199.652344 C 185.1875 199.023438 184.121094 197.875 183.519531 196.238281 C 183.464844 196.101562 183.464844 195.882812 183.546875 195.636719 Z M 183.546875 195.636719 " fill-opacity="1" fill-rule="evenodd"/><path fill="#fab2ad" d="M 207.667969 200.222656 C 207.667969 200.046875 207.699219 199.875 207.769531 199.703125 C 207.835938 199.535156 207.9375 199.367188 208.070312 199.207031 C 208.203125 199.046875 208.367188 198.894531 208.558594 198.75 C 208.753906 198.605469 208.972656 198.472656 209.21875 198.351562 C 209.464844 198.226562 209.730469 198.117188 210.019531 198.023438 C 210.304688 197.925781 210.609375 197.847656 210.929688 197.78125 C 211.25 197.714844 211.582031 197.664062 211.921875 197.632812 C 212.261719 197.601562 212.605469 197.585938 212.949219 197.585938 C 213.296875 197.585938 213.640625 197.605469 213.980469 197.640625 C 214.320312 197.675781 214.648438 197.726562 214.96875 197.792969 C 215.289062 197.863281 215.59375 197.945312 215.878906 198.042969 C 216.167969 198.140625 216.433594 198.25 216.679688 198.375 C 216.921875 198.5 217.140625 198.636719 217.332031 198.78125 C 217.523438 198.925781 217.6875 199.078125 217.816406 199.242188 C 217.949219 199.402344 218.050781 199.570312 218.117188 199.738281 C 218.183594 199.910156 218.21875 200.085938 218.214844 200.257812 C 218.214844 200.433594 218.179688 200.605469 218.113281 200.777344 C 218.042969 200.945312 217.945312 201.113281 217.8125 201.273438 C 217.679688 201.433594 217.515625 201.585938 217.320312 201.730469 C 217.128906 201.875 216.910156 202.007812 216.664062 202.128906 C 216.417969 202.253906 216.152344 202.363281 215.863281 202.457031 C 215.574219 202.554688 215.273438 202.632812 214.953125 202.699219 C 214.632812 202.765625 214.300781 202.8125 213.960938 202.847656 C 213.621094 202.878906 213.277344 202.894531 212.933594 202.894531 C 212.585938 202.894531 212.242188 202.875 211.902344 202.839844 C 211.5625 202.804688 211.234375 202.753906 210.914062 202.683594 C 210.59375 202.617188 210.289062 202.535156 210.003906 202.4375 C 209.714844 202.339844 209.449219 202.226562 209.203125 202.105469 C 208.960938 201.980469 208.742188 201.84375 208.550781 201.699219 C 208.359375 201.554688 208.195312 201.398438 208.0625 201.238281 C 207.933594 201.078125 207.832031 200.910156 207.765625 200.738281 C 207.699219 200.570312 207.664062 200.394531 207.667969 200.222656 Z M 207.667969 200.222656 " fill-opacity="1" fill-rule="nonzero"/><path fill="#fab2ad" d="M 161.027344 200.238281 C 161.027344 200.066406 161.0625 199.890625 161.128906 199.722656 C 161.195312 199.550781 161.296875 199.386719 161.429688 199.222656 C 161.5625 199.0625 161.722656 198.910156 161.917969 198.765625 C 162.109375 198.621094 162.328125 198.488281 162.570312 198.363281 C 162.816406 198.242188 163.082031 198.132812 163.371094 198.035156 C 163.660156 197.941406 163.960938 197.859375 164.28125 197.792969 C 164.601562 197.726562 164.929688 197.675781 165.269531 197.644531 C 165.609375 197.609375 165.949219 197.59375 166.296875 197.59375 C 166.640625 197.59375 166.984375 197.613281 167.324219 197.648438 C 167.664062 197.679688 167.992188 197.730469 168.3125 197.800781 C 168.628906 197.867188 168.933594 197.949219 169.222656 198.046875 C 169.507812 198.144531 169.773438 198.253906 170.019531 198.378906 C 170.261719 198.5 170.480469 198.636719 170.671875 198.78125 C 170.863281 198.925781 171.027344 199.078125 171.160156 199.242188 C 171.289062 199.402344 171.390625 199.570312 171.457031 199.738281 C 171.523438 199.910156 171.558594 200.082031 171.558594 200.257812 C 171.558594 200.433594 171.523438 200.605469 171.457031 200.773438 C 171.386719 200.945312 171.289062 201.113281 171.15625 201.273438 C 171.023438 201.433594 170.859375 201.585938 170.667969 201.730469 C 170.476562 201.875 170.257812 202.007812 170.011719 202.132812 C 169.765625 202.253906 169.5 202.363281 169.214844 202.460938 C 168.925781 202.558594 168.621094 202.636719 168.304688 202.703125 C 167.984375 202.769531 167.652344 202.820312 167.316406 202.855469 C 166.976562 202.886719 166.632812 202.902344 166.289062 202.902344 C 165.941406 202.902344 165.597656 202.886719 165.261719 202.851562 C 164.921875 202.816406 164.59375 202.765625 164.273438 202.699219 C 163.953125 202.628906 163.648438 202.546875 163.363281 202.449219 C 163.074219 202.351562 162.808594 202.242188 162.566406 202.117188 C 162.320312 201.996094 162.101562 201.859375 161.910156 201.714844 C 161.71875 201.570312 161.558594 201.417969 161.425781 201.257812 C 161.292969 201.09375 161.195312 200.929688 161.128906 200.757812 C 161.058594 200.585938 161.027344 200.414062 161.027344 200.238281 Z M 161.027344 200.238281 " fill-opacity="1" fill-rule="nonzero"/><path fill="#5170ff" d="M 167.414062 189.398438 C 167.421875 189.210938 167.460938 189.027344 167.542969 188.851562 C 167.625 188.679688 167.738281 188.527344 167.878906 188.394531 C 168.023438 188.265625 168.191406 188.164062 168.375 188.097656 C 168.5625 188.027344 168.753906 187.996094 168.953125 188.003906 C 169.152344 188.007812 169.339844 188.050781 169.523438 188.128906 C 169.707031 188.203125 169.863281 188.3125 170 188.453125 C 170.140625 188.589844 170.242188 188.746094 170.316406 188.925781 C 170.386719 189.105469 170.417969 189.289062 170.414062 189.480469 C 170.410156 189.667969 170.367188 189.851562 170.285156 190.023438 C 170.207031 190.199219 170.09375 190.351562 169.949219 190.484375 C 169.804688 190.613281 169.640625 190.714844 169.453125 190.78125 C 169.269531 190.847656 169.074219 190.878906 168.878906 190.875 C 168.679688 190.871094 168.488281 190.828125 168.304688 190.75 C 168.125 190.671875 167.964844 190.566406 167.828125 190.425781 C 167.691406 190.289062 167.585938 190.128906 167.515625 189.953125 C 167.441406 189.773438 167.410156 189.589844 167.414062 189.398438 Z M 167.414062 189.398438 " fill-opacity="1" fill-rule="nonzero"/><path fill="#5170ff" d="M 206.25 189.335938 C 206.265625 189.144531 206.316406 188.964844 206.40625 188.796875 C 206.492188 188.625 206.613281 188.480469 206.761719 188.355469 C 206.914062 188.230469 207.082031 188.140625 207.269531 188.082031 C 207.457031 188.023438 207.648438 188 207.847656 188.015625 C 208.042969 188.03125 208.230469 188.082031 208.40625 188.167969 C 208.582031 188.257812 208.734375 188.371094 208.863281 188.515625 C 208.992188 188.660156 209.089844 188.824219 209.152344 189.007812 C 209.210938 189.1875 209.234375 189.375 209.222656 189.5625 C 209.207031 189.753906 209.15625 189.933594 209.066406 190.101562 C 208.976562 190.273438 208.859375 190.417969 208.707031 190.542969 C 208.558594 190.667969 208.390625 190.757812 208.203125 190.816406 C 208.015625 190.875 207.824219 190.898438 207.625 190.882812 C 207.429688 190.867188 207.242188 190.816406 207.066406 190.730469 C 206.886719 190.640625 206.734375 190.527344 206.605469 190.382812 C 206.476562 190.234375 206.382812 190.074219 206.320312 189.890625 C 206.257812 189.710938 206.234375 189.523438 206.25 189.335938 Z M 206.25 189.335938 " fill-opacity="1" fill-rule="nonzero"/></svg>