<svg xmlns="http://www.w3.org/2000/svg" xmlns:xlink="http://www.w3.org/1999/xlink" width="500" zoomAndPan="magnify" viewBox="0 0 375 374.999991" height="500" preserveAspectRatio="xMidYMid meet" version="1.0"><defs><filter x="0%" y="0%" width="100%" height="100%" id="6ce26682e3"><feColorMatrix values="0 0 0 0 1 0 0 0 0 1 0 0 0 0 1 0 0 0 1 0" color-interpolation-filters="sRGB"/></filter><g/><mask id="4efcf20f15"><g filter="url(#6ce26682e3)"><rect x="-37.5" width="450" fill="#000000" y="-37.499999" height="449.999989" fill-opacity="0.35"/></g></mask><clipPath id="b546ec6d30"><path d="M 0.320312 0.679688 L 38 0.679688 L 38 38.601562 L 0.320312 38.601562 Z M 0.320312 0.679688 " clip-rule="nonzero"/></clipPath><clipPath id="ee8ea58c55"><rect x="0" width="38" y="0" height="39"/></clipPath><clipPath id="596faf4dcc"><path d="M 0 0 L 375 0 L 375 375 L 0 375 Z M 0 0 " clip-rule="nonzero"/></clipPath><linearGradient x1="-11.278439" gradientTransform="matrix(1.669774, 0, 0, 1.673319, 18.832445, 65.625845)" y1="68.5" x2="213.30288" gradientUnits="userSpaceOnUse" y2="68.5" id="20f9114836"><stop stop-opacity="1" stop-color="rgb(0%, 29.019165%, 67.83905%)" offset="0"/><stop stop-opacity="1" stop-color="rgb(0%, 29.019165%, 67.83905%)" offset="0.03125"/><stop stop-opacity="1" stop-color="rgb(0%, 29.019165%, 67.83905%)" offset="0.046875"/><stop stop-opacity="1" stop-color="rgb(0.35553%, 29.078674%, 67.938232%)" offset="0.0507813"/><stop stop-opacity="1" stop-color="rgb(0.712585%, 29.138184%, 68.03894%)" offset="0.0546875"/><stop stop-opacity="1" stop-color="rgb(1.335144%, 29.241943%, 68.214417%)" offset="0.0585938"/><stop stop-opacity="1" stop-color="rgb(1.957703%, 29.347229%, 68.389893%)" offset="0.0625"/><stop stop-opacity="1" stop-color="rgb(2.580261%, 29.450989%, 68.563843%)" offset="0.0664062"/><stop stop-opacity="1" stop-color="rgb(3.204346%, 29.556274%, 68.739319%)" offset="0.0703125"/><stop stop-opacity="1" stop-color="rgb(3.826904%, 29.660034%, 68.914795%)" offset="0.0742188"/><stop stop-opacity="1" stop-color="rgb(4.450989%, 29.76532%, 69.090271%)" offset="0.078125"/><stop stop-opacity="1" stop-color="rgb(5.073547%, 29.86908%, 69.264221%)" offset="0.0820312"/><stop stop-opacity="1" stop-color="rgb(5.697632%, 29.972839%, 69.439697%)" offset="0.0859375"/><stop stop-opacity="1" stop-color="rgb(6.32019%, 30.076599%, 69.613647%)" offset="0.0898438"/><stop stop-opacity="1" stop-color="rgb(6.942749%, 30.181885%, 69.789124%)" offset="0.09375"/><stop stop-opacity="1" stop-color="rgb(7.565308%, 30.285645%, 69.9646%)" offset="0.0976562"/><stop stop-opacity="1" stop-color="rgb(8.189392%, 30.39093%, 70.140076%)" offset="0.101562"/><stop stop-opacity="1" stop-color="rgb(8.811951%, 30.49469%, 70.314026%)" offset="0.105469"/><stop stop-opacity="1" stop-color="rgb(9.436035%, 30.599976%, 70.489502%)" offset="0.109375"/><stop stop-opacity="1" stop-color="rgb(10.058594%, 30.703735%, 70.664978%)" offset="0.113281"/><stop stop-opacity="1" stop-color="rgb(10.682678%, 30.807495%, 70.840454%)" offset="0.117188"/><stop stop-opacity="1" stop-color="rgb(11.305237%, 30.911255%, 71.014404%)" offset="0.121094"/><stop stop-opacity="1" stop-color="rgb(11.927795%, 31.016541%, 71.18988%)" offset="0.125"/><stop stop-opacity="1" stop-color="rgb(12.550354%, 31.1203%, 71.363831%)" offset="0.128906"/><stop stop-opacity="1" stop-color="rgb(13.174438%, 31.225586%, 71.539307%)" offset="0.132812"/><stop stop-opacity="1" stop-color="rgb(13.796997%, 31.329346%, 71.714783%)" offset="0.136719"/><stop stop-opacity="1" stop-color="rgb(14.421082%, 31.434631%, 71.890259%)" offset="0.140625"/><stop stop-opacity="1" stop-color="rgb(15.04364%, 31.538391%, 72.064209%)" offset="0.144531"/><stop stop-opacity="1" stop-color="rgb(15.667725%, 31.642151%, 72.239685%)" offset="0.148438"/><stop stop-opacity="1" stop-color="rgb(16.290283%, 31.745911%, 72.415161%)" offset="0.152344"/><stop stop-opacity="1" stop-color="rgb(16.912842%, 31.851196%, 72.590637%)" offset="0.15625"/><stop stop-opacity="1" stop-color="rgb(17.5354%, 31.954956%, 72.764587%)" offset="0.160156"/><stop stop-opacity="1" stop-color="rgb(18.159485%, 32.060242%, 72.940063%)" offset="0.164062"/><stop stop-opacity="1" stop-color="rgb(18.782043%, 32.164001%, 73.114014%)" offset="0.167969"/><stop stop-opacity="1" stop-color="rgb(19.406128%, 32.269287%, 73.28949%)" offset="0.171875"/><stop stop-opacity="1" stop-color="rgb(20.028687%, 32.373047%, 73.464966%)" offset="0.175781"/><stop stop-opacity="1" stop-color="rgb(20.652771%, 32.476807%, 73.640442%)" offset="0.179688"/><stop stop-opacity="1" stop-color="rgb(21.27533%, 32.580566%, 73.814392%)" offset="0.183594"/><stop stop-opacity="1" stop-color="rgb(21.897888%, 32.685852%, 73.989868%)" offset="0.1875"/><stop stop-opacity="1" stop-color="rgb(22.520447%, 32.789612%, 74.165344%)" offset="0.191406"/><stop stop-opacity="1" stop-color="rgb(23.144531%, 32.894897%, 74.34082%)" offset="0.195313"/><stop stop-opacity="1" stop-color="rgb(23.76709%, 32.998657%, 74.514771%)" offset="0.199219"/><stop stop-opacity="1" stop-color="rgb(24.391174%, 33.103943%, 74.690247%)" offset="0.203125"/><stop stop-opacity="1" stop-color="rgb(25.013733%, 33.207703%, 74.864197%)" offset="0.207031"/><stop stop-opacity="1" stop-color="rgb(25.637817%, 33.311462%, 75.039673%)" offset="0.210938"/><stop stop-opacity="1" stop-color="rgb(26.260376%, 33.415222%, 75.215149%)" offset="0.214844"/><stop stop-opacity="1" stop-color="rgb(26.882935%, 33.520508%, 75.390625%)" offset="0.21875"/><stop stop-opacity="1" stop-color="rgb(27.505493%, 33.624268%, 75.564575%)" offset="0.222656"/><stop stop-opacity="1" stop-color="rgb(28.129578%, 33.729553%, 75.740051%)" offset="0.226563"/><stop stop-opacity="1" stop-color="rgb(28.752136%, 33.833313%, 75.915527%)" offset="0.230469"/><stop stop-opacity="1" stop-color="rgb(29.376221%, 33.938599%, 76.091003%)" offset="0.234375"/><stop stop-opacity="1" stop-color="rgb(29.998779%, 34.042358%, 76.264954%)" offset="0.238281"/><stop stop-opacity="1" stop-color="rgb(30.622864%, 34.146118%, 76.44043%)" offset="0.242188"/><stop stop-opacity="1" stop-color="rgb(31.245422%, 34.249878%, 76.61438%)" offset="0.246094"/><stop stop-opacity="1" stop-color="rgb(31.867981%, 34.355164%, 76.789856%)" offset="0.25"/><stop stop-opacity="1" stop-color="rgb(32.49054%, 34.458923%, 76.965332%)" offset="0.253906"/><stop stop-opacity="1" stop-color="rgb(33.114624%, 34.564209%, 77.140808%)" offset="0.257812"/><stop stop-opacity="1" stop-color="rgb(33.737183%, 34.667969%, 77.314758%)" offset="0.261719"/><stop stop-opacity="1" stop-color="rgb(34.361267%, 34.773254%, 77.490234%)" offset="0.265625"/><stop stop-opacity="1" stop-color="rgb(34.983826%, 34.877014%, 77.66571%)" offset="0.269531"/><stop stop-opacity="1" stop-color="rgb(35.60791%, 34.980774%, 77.841187%)" offset="0.273438"/><stop stop-opacity="1" stop-color="rgb(36.230469%, 35.084534%, 78.015137%)" offset="0.277344"/><stop stop-opacity="1" stop-color="rgb(36.853027%, 35.189819%, 78.190613%)" offset="0.28125"/><stop stop-opacity="1" stop-color="rgb(37.475586%, 35.293579%, 78.364563%)" offset="0.285156"/><stop stop-opacity="1" stop-color="rgb(38.09967%, 35.398865%, 78.540039%)" offset="0.289062"/><stop stop-opacity="1" stop-color="rgb(38.722229%, 35.502625%, 78.715515%)" offset="0.292969"/><stop stop-opacity="1" stop-color="rgb(39.346313%, 35.60791%, 78.890991%)" offset="0.296875"/><stop stop-opacity="1" stop-color="rgb(39.968872%, 35.71167%, 79.064941%)" offset="0.300781"/><stop stop-opacity="1" stop-color="rgb(40.592957%, 35.816956%, 79.240417%)" offset="0.304688"/><stop stop-opacity="1" stop-color="rgb(41.215515%, 35.920715%, 79.415894%)" offset="0.308594"/><stop stop-opacity="1" stop-color="rgb(41.838074%, 36.024475%, 79.59137%)" offset="0.3125"/><stop stop-opacity="1" stop-color="rgb(42.460632%, 36.128235%, 79.76532%)" offset="0.316406"/><stop stop-opacity="1" stop-color="rgb(43.084717%, 36.233521%, 79.940796%)" offset="0.320312"/><stop stop-opacity="1" stop-color="rgb(43.707275%, 36.33728%, 80.114746%)" offset="0.324219"/><stop stop-opacity="1" stop-color="rgb(44.33136%, 36.442566%, 80.290222%)" offset="0.328125"/><stop stop-opacity="1" stop-color="rgb(44.953918%, 36.546326%, 80.465698%)" offset="0.332031"/><stop stop-opacity="1" stop-color="rgb(45.578003%, 36.651611%, 80.641174%)" offset="0.335938"/><stop stop-opacity="1" stop-color="rgb(46.200562%, 36.755371%, 80.815125%)" offset="0.339844"/><stop stop-opacity="1" stop-color="rgb(46.82312%, 36.859131%, 80.990601%)" offset="0.34375"/><stop stop-opacity="1" stop-color="rgb(47.445679%, 36.962891%, 81.166077%)" offset="0.347656"/><stop stop-opacity="1" stop-color="rgb(48.069763%, 37.068176%, 81.341553%)" offset="0.351562"/><stop stop-opacity="1" stop-color="rgb(48.692322%, 37.171936%, 81.515503%)" offset="0.355469"/><stop stop-opacity="1" stop-color="rgb(49.316406%, 37.277222%, 81.690979%)" offset="0.359375"/><stop stop-opacity="1" stop-color="rgb(49.938965%, 37.380981%, 81.864929%)" offset="0.363281"/><stop stop-opacity="1" stop-color="rgb(50.563049%, 37.486267%, 82.040405%)" offset="0.367188"/><stop stop-opacity="1" stop-color="rgb(51.185608%, 37.590027%, 82.215881%)" offset="0.371094"/><stop stop-opacity="1" stop-color="rgb(51.808167%, 37.693787%, 82.391357%)" offset="0.375"/><stop stop-opacity="1" stop-color="rgb(52.430725%, 37.797546%, 82.565308%)" offset="0.378906"/><stop stop-opacity="1" stop-color="rgb(53.05481%, 37.902832%, 82.740784%)" offset="0.382813"/><stop stop-opacity="1" stop-color="rgb(53.677368%, 38.006592%, 82.91626%)" offset="0.386719"/><stop stop-opacity="1" stop-color="rgb(54.301453%, 38.111877%, 83.091736%)" offset="0.390625"/><stop stop-opacity="1" stop-color="rgb(54.924011%, 38.215637%, 83.265686%)" offset="0.394531"/><stop stop-opacity="1" stop-color="rgb(55.548096%, 38.320923%, 83.441162%)" offset="0.398438"/><stop stop-opacity="1" stop-color="rgb(56.170654%, 38.424683%, 83.615112%)" offset="0.402344"/><stop stop-opacity="1" stop-color="rgb(56.793213%, 38.528442%, 83.790588%)" offset="0.40625"/><stop stop-opacity="1" stop-color="rgb(57.415771%, 38.632202%, 83.966064%)" offset="0.410156"/><stop stop-opacity="1" stop-color="rgb(58.039856%, 38.737488%, 84.141541%)" offset="0.414063"/><stop stop-opacity="1" stop-color="rgb(58.662415%, 38.841248%, 84.315491%)" offset="0.417969"/><stop stop-opacity="1" stop-color="rgb(59.286499%, 38.946533%, 84.490967%)" offset="0.421875"/><stop stop-opacity="1" stop-color="rgb(59.909058%, 39.050293%, 84.666443%)" offset="0.425781"/><stop stop-opacity="1" stop-color="rgb(60.533142%, 39.155579%, 84.841919%)" offset="0.429688"/><stop stop-opacity="1" stop-color="rgb(61.155701%, 39.259338%, 85.015869%)" offset="0.433594"/><stop stop-opacity="1" stop-color="rgb(61.778259%, 39.363098%, 85.191345%)" offset="0.4375"/><stop stop-opacity="1" stop-color="rgb(62.400818%, 39.466858%, 85.365295%)" offset="0.441406"/><stop stop-opacity="1" stop-color="rgb(63.024902%, 39.572144%, 85.540771%)" offset="0.445313"/><stop stop-opacity="1" stop-color="rgb(63.647461%, 39.675903%, 85.716248%)" offset="0.449219"/><stop stop-opacity="1" stop-color="rgb(64.271545%, 39.781189%, 85.891724%)" offset="0.453125"/><stop stop-opacity="1" stop-color="rgb(64.894104%, 39.884949%, 86.065674%)" offset="0.457031"/><stop stop-opacity="1" stop-color="rgb(65.518188%, 39.990234%, 86.24115%)" offset="0.460938"/><stop stop-opacity="1" stop-color="rgb(66.140747%, 40.093994%, 86.416626%)" offset="0.464844"/><stop stop-opacity="1" stop-color="rgb(66.763306%, 40.197754%, 86.592102%)" offset="0.46875"/><stop stop-opacity="1" stop-color="rgb(67.385864%, 40.301514%, 86.766052%)" offset="0.472656"/><stop stop-opacity="1" stop-color="rgb(68.009949%, 40.406799%, 86.941528%)" offset="0.476563"/><stop stop-opacity="1" stop-color="rgb(68.632507%, 40.510559%, 87.115479%)" offset="0.480469"/><stop stop-opacity="1" stop-color="rgb(69.256592%, 40.615845%, 87.290955%)" offset="0.484375"/><stop stop-opacity="1" stop-color="rgb(69.87915%, 40.719604%, 87.466431%)" offset="0.488281"/><stop stop-opacity="1" stop-color="rgb(70.503235%, 40.82489%, 87.641907%)" offset="0.492188"/><stop stop-opacity="1" stop-color="rgb(71.125793%, 40.92865%, 87.815857%)" offset="0.496094"/><stop stop-opacity="1" stop-color="rgb(71.748352%, 41.03241%, 87.991333%)" offset="0.5"/><stop stop-opacity="1" stop-color="rgb(72.370911%, 41.136169%, 88.166809%)" offset="0.503906"/><stop stop-opacity="1" stop-color="rgb(72.994995%, 41.241455%, 88.342285%)" offset="0.507812"/><stop stop-opacity="1" stop-color="rgb(73.617554%, 41.345215%, 88.516235%)" offset="0.511719"/><stop stop-opacity="1" stop-color="rgb(74.241638%, 41.4505%, 88.691711%)" offset="0.515625"/><stop stop-opacity="1" stop-color="rgb(74.864197%, 41.55426%, 88.865662%)" offset="0.519531"/><stop stop-opacity="1" stop-color="rgb(75.488281%, 41.659546%, 89.041138%)" offset="0.523438"/><stop stop-opacity="1" stop-color="rgb(76.11084%, 41.763306%, 89.216614%)" offset="0.527344"/><stop stop-opacity="1" stop-color="rgb(76.734924%, 41.868591%, 89.39209%)" offset="0.53125"/><stop stop-opacity="1" stop-color="rgb(77.357483%, 41.972351%, 89.56604%)" offset="0.535156"/><stop stop-opacity="1" stop-color="rgb(77.980042%, 42.076111%, 89.741516%)" offset="0.539062"/><stop stop-opacity="1" stop-color="rgb(78.6026%, 42.179871%, 89.916992%)" offset="0.542969"/><stop stop-opacity="1" stop-color="rgb(79.226685%, 42.285156%, 90.092468%)" offset="0.546875"/><stop stop-opacity="1" stop-color="rgb(79.417419%, 42.3172%, 90.145874%)" offset="0.5625"/><stop stop-opacity="1" stop-color="rgb(79.60968%, 42.349243%, 90.19928%)" offset="0.625"/><stop stop-opacity="1" stop-color="rgb(79.60968%, 42.349243%, 90.19928%)" offset="0.75"/><stop stop-opacity="1" stop-color="rgb(79.60968%, 42.349243%, 90.19928%)" offset="1"/></linearGradient><clipPath id="efc002e910"><rect x="0" width="375" y="0" height="375"/></clipPath><clipPath id="8bff900d02"><rect x="0" width="375" y="0" height="375"/></clipPath><clipPath id="8e2731b70f"><rect x="0" width="375" y="0" height="375"/></clipPath><mask id="b0b42d2b9a"><g filter="url(#6ce26682e3)"><g transform="matrix(1, 0, 0, 1, 0, 0)"><g clip-path="url(#8e2731b70f)"><g transform="matrix(1, 0, 0, 1, 0, 0)"><g clip-path="url(#8bff900d02)"><g fill="#000000" fill-opacity="1"><g transform="translate(18.750003, 240.456241)"><g><path d="M 85.90625 -35.140625 C 85.90625 -27.398438 84.28125 -20.734375 81.03125 -15.140625 C 77.78125 -9.554688 73.144531 -5.300781 67.125 -2.375 C 61.101562 0.550781 53.984375 2.015625 45.765625 2.015625 C 38.734375 2.015625 32.394531 0.753906 26.75 -1.765625 C 21.113281 -4.296875 16.492188 -8.054688 12.890625 -13.046875 C 9.296875 -18.046875 7.015625 -24.144531 6.046875 -31.34375 L 28.765625 -34 C 29.460938 -28.363281 31.257812 -24.09375 34.15625 -21.1875 C 37.0625 -18.289062 40.878906 -16.84375 45.609375 -16.84375 C 48.941406 -16.84375 51.851562 -17.703125 54.34375 -19.421875 C 56.84375 -21.140625 58.765625 -23.472656 60.109375 -26.421875 C 61.453125 -29.378906 62.125 -32.632812 62.125 -36.1875 C 62.125 -39.570312 61.398438 -42.59375 59.953125 -45.25 C 58.503906 -47.90625 56.4375 -49.984375 53.75 -51.484375 C 51.0625 -52.992188 47.914062 -53.75 44.3125 -53.75 L 33.609375 -53.75 L 36.09375 -71.078125 C 44 -71.078125 49.765625 -72.378906 53.390625 -74.984375 C 57.015625 -77.585938 58.828125 -81.390625 58.828125 -86.390625 C 58.828125 -90.304688 57.585938 -93.429688 55.109375 -95.765625 C 52.640625 -98.109375 49.3125 -99.28125 45.125 -99.28125 C 40.820312 -99.28125 37.273438 -97.867188 34.484375 -95.046875 C 31.691406 -92.222656 30 -88.394531 29.40625 -83.5625 L 7.65625 -87.265625 C 9.800781 -97.578125 14.125 -105.296875 20.625 -110.421875 C 27.125 -115.554688 35.476562 -118.125 45.6875 -118.125 C 52.9375 -118.125 59.300781 -116.820312 64.78125 -114.21875 C 70.257812 -111.613281 74.476562 -108.015625 77.4375 -103.421875 C 80.394531 -98.828125 81.875 -93.601562 81.875 -87.75 C 81.875 -82.320312 80.34375 -77.421875 77.28125 -73.046875 C 74.21875 -68.671875 69.488281 -65.242188 63.09375 -62.765625 C 70.289062 -61.316406 75.890625 -58.109375 79.890625 -53.140625 C 83.898438 -48.171875 85.90625 -42.171875 85.90625 -35.140625 Z M 85.90625 -35.140625 "/></g></g></g><g fill="#000000" fill-opacity="1"><g transform="translate(112.460773, 240.456241)"><g><path d="M 6.84375 -58.421875 C 6.84375 -78.992188 10.226562 -94.179688 17 -103.984375 C 23.769531 -113.796875 33.679688 -118.703125 46.734375 -118.703125 C 60.273438 -118.703125 70.347656 -113.742188 76.953125 -103.828125 C 83.554688 -93.921875 86.859375 -78.757812 86.859375 -58.34375 C 86.859375 -37.28125 83.40625 -21.953125 76.5 -12.359375 C 69.601562 -2.773438 59.738281 2.015625 46.90625 2.015625 C 33.84375 2.015625 23.898438 -2.75 17.078125 -12.28125 C 10.253906 -21.820312 6.84375 -37.203125 6.84375 -58.421875 Z M 30.625 -56.65625 C 30.625 -46.769531 31.1875 -38.925781 32.3125 -33.125 C 33.4375 -27.320312 35.164062 -23.15625 37.5 -20.625 C 39.84375 -18.101562 42.921875 -16.84375 46.734375 -16.84375 C 50.765625 -16.84375 53.960938 -18.171875 56.328125 -20.828125 C 58.691406 -23.484375 60.410156 -27.804688 61.484375 -33.796875 C 62.554688 -39.785156 63.09375 -47.941406 63.09375 -58.265625 C 63.09375 -69.003906 62.554688 -77.367188 61.484375 -83.359375 C 60.410156 -89.347656 58.726562 -93.59375 56.4375 -96.09375 C 54.15625 -98.59375 51.082031 -99.84375 47.21875 -99.84375 C 43.300781 -99.84375 40.160156 -98.695312 37.796875 -96.40625 C 35.429688 -94.125 33.644531 -89.867188 32.4375 -83.640625 C 31.226562 -77.410156 30.625 -68.414062 30.625 -56.65625 Z M 30.625 -56.65625 "/></g></g></g></g></g></g></g></g></mask><clipPath id="e01c18a65c"><path d="M 0 0 L 375 0 L 375 375 L 0 375 Z M 0 0 " clip-rule="nonzero"/></clipPath><clipPath id="0b331abae3"><rect x="0" width="375" y="0" height="375"/></clipPath><clipPath id="0286e81c34"><rect x="0" width="375" y="0" height="375"/></clipPath><clipPath id="e47996b4e9"><rect x="0" width="375" y="0" height="375"/></clipPath><clipPath id="028653443b"><path d="M 1.296875 2.132812 L 285 2.132812 L 285 311.671875 L 1.296875 311.671875 Z M 1.296875 2.132812 " clip-rule="nonzero"/></clipPath><clipPath id="8f86128d80"><path d="M 0.296875 0.132812 L 284 0.132812 L 284 309.671875 L 0.296875 309.671875 Z M 0.296875 0.132812 " clip-rule="nonzero"/></clipPath><clipPath id="5d00811a45"><path d="M 0.296875 4.820312 L 284 4.820312 L 284 303.808594 L 0.296875 303.808594 Z M 0.296875 4.820312 " clip-rule="nonzero"/></clipPath><linearGradient x1="-98.185997" gradientTransform="matrix(1.17131, 0, 0, 1.170789, 115.304365, 115.093571)" y1="33.5" x2="144.023066" gradientUnits="userSpaceOnUse" y2="33.5" id="09a05fc439"><stop stop-opacity="1" stop-color="rgb(0%, 29.019165%, 67.83905%)" offset="0"/><stop stop-opacity="1" stop-color="rgb(0%, 29.019165%, 67.83905%)" offset="0.25"/><stop stop-opacity="1" stop-color="rgb(0%, 29.019165%, 67.83905%)" offset="0.375"/><stop stop-opacity="1" stop-color="rgb(0.0656128%, 29.029846%, 67.857361%)" offset="0.40625"/><stop stop-opacity="1" stop-color="rgb(0.718689%, 29.139709%, 68.040466%)" offset="0.410156"/><stop stop-opacity="1" stop-color="rgb(1.307678%, 29.238892%, 68.206787%)" offset="0.414062"/><stop stop-opacity="1" stop-color="rgb(1.896667%, 29.336548%, 68.371582%)" offset="0.417969"/><stop stop-opacity="1" stop-color="rgb(2.485657%, 29.43573%, 68.537903%)" offset="0.421875"/><stop stop-opacity="1" stop-color="rgb(3.07312%, 29.533386%, 68.702698%)" offset="0.425781"/><stop stop-opacity="1" stop-color="rgb(3.662109%, 29.632568%, 68.867493%)" offset="0.429688"/><stop stop-opacity="1" stop-color="rgb(4.251099%, 29.730225%, 69.032288%)" offset="0.433594"/><stop stop-opacity="1" stop-color="rgb(4.840088%, 29.829407%, 69.198608%)" offset="0.4375"/><stop stop-opacity="1" stop-color="rgb(5.429077%, 29.927063%, 69.363403%)" offset="0.441406"/><stop stop-opacity="1" stop-color="rgb(6.018066%, 30.026245%, 69.529724%)" offset="0.445312"/><stop stop-opacity="1" stop-color="rgb(6.60553%, 30.125427%, 69.694519%)" offset="0.449219"/><stop stop-opacity="1" stop-color="rgb(7.194519%, 30.224609%, 69.86084%)" offset="0.453125"/><stop stop-opacity="1" stop-color="rgb(7.783508%, 30.322266%, 70.025635%)" offset="0.457031"/><stop stop-opacity="1" stop-color="rgb(8.372498%, 30.421448%, 70.19043%)" offset="0.460938"/><stop stop-opacity="1" stop-color="rgb(8.959961%, 30.519104%, 70.355225%)" offset="0.464844"/><stop stop-opacity="1" stop-color="rgb(9.54895%, 30.618286%, 70.521545%)" offset="0.46875"/><stop stop-opacity="1" stop-color="rgb(10.137939%, 30.715942%, 70.68634%)" offset="0.472656"/><stop stop-opacity="1" stop-color="rgb(10.726929%, 30.815125%, 70.852661%)" offset="0.476562"/><stop stop-opacity="1" stop-color="rgb(11.314392%, 30.912781%, 71.017456%)" offset="0.480469"/><stop stop-opacity="1" stop-color="rgb(11.903381%, 31.011963%, 71.182251%)" offset="0.484375"/><stop stop-opacity="1" stop-color="rgb(12.492371%, 31.111145%, 71.347046%)" offset="0.488281"/><stop stop-opacity="1" stop-color="rgb(13.08136%, 31.210327%, 71.513367%)" offset="0.492187"/><stop stop-opacity="1" stop-color="rgb(13.670349%, 31.307983%, 71.678162%)" offset="0.496094"/><stop stop-opacity="1" stop-color="rgb(14.259338%, 31.407166%, 71.844482%)" offset="0.5"/><stop stop-opacity="1" stop-color="rgb(14.846802%, 31.504822%, 72.009277%)" offset="0.503906"/><stop stop-opacity="1" stop-color="rgb(15.435791%, 31.604004%, 72.175598%)" offset="0.507812"/><stop stop-opacity="1" stop-color="rgb(16.02478%, 31.70166%, 72.340393%)" offset="0.511719"/><stop stop-opacity="1" stop-color="rgb(16.61377%, 31.800842%, 72.505188%)" offset="0.515625"/><stop stop-opacity="1" stop-color="rgb(17.201233%, 31.898499%, 72.669983%)" offset="0.519531"/><stop stop-opacity="1" stop-color="rgb(17.790222%, 31.997681%, 72.836304%)" offset="0.523438"/><stop stop-opacity="1" stop-color="rgb(18.379211%, 32.096863%, 73.001099%)" offset="0.527344"/><stop stop-opacity="1" stop-color="rgb(18.968201%, 32.196045%, 73.167419%)" offset="0.53125"/><stop stop-opacity="1" stop-color="rgb(19.555664%, 32.293701%, 73.332214%)" offset="0.535156"/><stop stop-opacity="1" stop-color="rgb(20.144653%, 32.392883%, 73.497009%)" offset="0.539062"/><stop stop-opacity="1" stop-color="rgb(20.733643%, 32.49054%, 73.661804%)" offset="0.542969"/><stop stop-opacity="1" stop-color="rgb(21.322632%, 32.589722%, 73.828125%)" offset="0.546875"/><stop stop-opacity="1" stop-color="rgb(21.911621%, 32.687378%, 73.99292%)" offset="0.550781"/><stop stop-opacity="1" stop-color="rgb(22.50061%, 32.78656%, 74.159241%)" offset="0.554687"/><stop stop-opacity="1" stop-color="rgb(23.088074%, 32.884216%, 74.324036%)" offset="0.558594"/><stop stop-opacity="1" stop-color="rgb(23.677063%, 32.983398%, 74.490356%)" offset="0.5625"/><stop stop-opacity="1" stop-color="rgb(24.266052%, 33.082581%, 74.655151%)" offset="0.566406"/><stop stop-opacity="1" stop-color="rgb(24.855042%, 33.181763%, 74.819946%)" offset="0.570312"/><stop stop-opacity="1" stop-color="rgb(25.442505%, 33.279419%, 74.984741%)" offset="0.574219"/><stop stop-opacity="1" stop-color="rgb(26.031494%, 33.378601%, 75.151062%)" offset="0.578125"/><stop stop-opacity="1" stop-color="rgb(26.620483%, 33.476257%, 75.315857%)" offset="0.582031"/><stop stop-opacity="1" stop-color="rgb(27.209473%, 33.575439%, 75.482178%)" offset="0.585938"/><stop stop-opacity="1" stop-color="rgb(27.796936%, 33.673096%, 75.646973%)" offset="0.589844"/><stop stop-opacity="1" stop-color="rgb(28.385925%, 33.772278%, 75.811768%)" offset="0.59375"/><stop stop-opacity="1" stop-color="rgb(28.974915%, 33.869934%, 75.976562%)" offset="0.597656"/><stop stop-opacity="1" stop-color="rgb(29.563904%, 33.969116%, 76.142883%)" offset="0.601562"/><stop stop-opacity="1" stop-color="rgb(30.152893%, 34.068298%, 76.307678%)" offset="0.605469"/><stop stop-opacity="1" stop-color="rgb(30.741882%, 34.16748%, 76.473999%)" offset="0.609375"/><stop stop-opacity="1" stop-color="rgb(31.329346%, 34.265137%, 76.638794%)" offset="0.613281"/><stop stop-opacity="1" stop-color="rgb(31.918335%, 34.364319%, 76.805115%)" offset="0.617188"/><stop stop-opacity="1" stop-color="rgb(32.507324%, 34.461975%, 76.96991%)" offset="0.621094"/><stop stop-opacity="1" stop-color="rgb(33.096313%, 34.561157%, 77.134705%)" offset="0.625"/><stop stop-opacity="1" stop-color="rgb(33.683777%, 34.658813%, 77.2995%)" offset="0.628906"/><stop stop-opacity="1" stop-color="rgb(34.272766%, 34.757996%, 77.46582%)" offset="0.632812"/><stop stop-opacity="1" stop-color="rgb(34.861755%, 34.855652%, 77.630615%)" offset="0.636719"/><stop stop-opacity="1" stop-color="rgb(35.450745%, 34.954834%, 77.796936%)" offset="0.640625"/><stop stop-opacity="1" stop-color="rgb(36.039734%, 35.05249%, 77.961731%)" offset="0.644531"/><stop stop-opacity="1" stop-color="rgb(36.628723%, 35.151672%, 78.126526%)" offset="0.648438"/><stop stop-opacity="1" stop-color="rgb(37.216187%, 35.250854%, 78.291321%)" offset="0.652344"/><stop stop-opacity="1" stop-color="rgb(37.805176%, 35.350037%, 78.457642%)" offset="0.65625"/><stop stop-opacity="1" stop-color="rgb(38.394165%, 35.447693%, 78.622437%)" offset="0.660156"/><stop stop-opacity="1" stop-color="rgb(38.983154%, 35.546875%, 78.788757%)" offset="0.664062"/><stop stop-opacity="1" stop-color="rgb(39.570618%, 35.644531%, 78.953552%)" offset="0.667969"/><stop stop-opacity="1" stop-color="rgb(40.159607%, 35.743713%, 79.119873%)" offset="0.671875"/><stop stop-opacity="1" stop-color="rgb(40.748596%, 35.84137%, 79.284668%)" offset="0.675781"/><stop stop-opacity="1" stop-color="rgb(41.337585%, 35.940552%, 79.449463%)" offset="0.679687"/><stop stop-opacity="1" stop-color="rgb(41.925049%, 36.038208%, 79.614258%)" offset="0.683594"/><stop stop-opacity="1" stop-color="rgb(42.514038%, 36.13739%, 79.780579%)" offset="0.6875"/><stop stop-opacity="1" stop-color="rgb(43.103027%, 36.236572%, 79.945374%)" offset="0.691406"/><stop stop-opacity="1" stop-color="rgb(43.692017%, 36.335754%, 80.111694%)" offset="0.695312"/><stop stop-opacity="1" stop-color="rgb(44.281006%, 36.433411%, 80.276489%)" offset="0.699219"/><stop stop-opacity="1" stop-color="rgb(44.869995%, 36.532593%, 80.441284%)" offset="0.703125"/><stop stop-opacity="1" stop-color="rgb(45.457458%, 36.630249%, 80.606079%)" offset="0.707031"/><stop stop-opacity="1" stop-color="rgb(46.046448%, 36.729431%, 80.7724%)" offset="0.710938"/><stop stop-opacity="1" stop-color="rgb(46.635437%, 36.827087%, 80.937195%)" offset="0.714844"/><stop stop-opacity="1" stop-color="rgb(47.224426%, 36.92627%, 81.103516%)" offset="0.71875"/><stop stop-opacity="1" stop-color="rgb(47.81189%, 37.023926%, 81.268311%)" offset="0.722656"/><stop stop-opacity="1" stop-color="rgb(48.400879%, 37.123108%, 81.434631%)" offset="0.726562"/><stop stop-opacity="1" stop-color="rgb(48.989868%, 37.22229%, 81.599426%)" offset="0.730469"/><stop stop-opacity="1" stop-color="rgb(49.578857%, 37.321472%, 81.764221%)" offset="0.734375"/><stop stop-opacity="1" stop-color="rgb(50.166321%, 37.419128%, 81.929016%)" offset="0.738281"/><stop stop-opacity="1" stop-color="rgb(50.75531%, 37.518311%, 82.095337%)" offset="0.742188"/><stop stop-opacity="1" stop-color="rgb(51.344299%, 37.615967%, 82.260132%)" offset="0.746094"/><stop stop-opacity="1" stop-color="rgb(51.933289%, 37.715149%, 82.426453%)" offset="0.75"/><stop stop-opacity="1" stop-color="rgb(52.522278%, 37.812805%, 82.591248%)" offset="0.753906"/><stop stop-opacity="1" stop-color="rgb(53.111267%, 37.911987%, 82.756042%)" offset="0.757812"/><stop stop-opacity="1" stop-color="rgb(53.69873%, 38.009644%, 82.920837%)" offset="0.761719"/><stop stop-opacity="1" stop-color="rgb(54.28772%, 38.108826%, 83.087158%)" offset="0.765625"/><stop stop-opacity="1" stop-color="rgb(54.876709%, 38.208008%, 83.251953%)" offset="0.769531"/><stop stop-opacity="1" stop-color="rgb(55.465698%, 38.30719%, 83.418274%)" offset="0.773437"/><stop stop-opacity="1" stop-color="rgb(56.053162%, 38.404846%, 83.583069%)" offset="0.777344"/><stop stop-opacity="1" stop-color="rgb(56.642151%, 38.504028%, 83.747864%)" offset="0.78125"/><stop stop-opacity="1" stop-color="rgb(57.23114%, 38.601685%, 83.912659%)" offset="0.785156"/><stop stop-opacity="1" stop-color="rgb(57.820129%, 38.700867%, 84.078979%)" offset="0.789062"/><stop stop-opacity="1" stop-color="rgb(58.407593%, 38.798523%, 84.243774%)" offset="0.792969"/><stop stop-opacity="1" stop-color="rgb(58.996582%, 38.897705%, 84.410095%)" offset="0.796875"/><stop stop-opacity="1" stop-color="rgb(59.585571%, 38.995361%, 84.57489%)" offset="0.800781"/><stop stop-opacity="1" stop-color="rgb(60.174561%, 39.094543%, 84.741211%)" offset="0.804687"/><stop stop-opacity="1" stop-color="rgb(60.76355%, 39.193726%, 84.906006%)" offset="0.808594"/><stop stop-opacity="1" stop-color="rgb(61.352539%, 39.292908%, 85.070801%)" offset="0.8125"/><stop stop-opacity="1" stop-color="rgb(61.940002%, 39.390564%, 85.235596%)" offset="0.816406"/><stop stop-opacity="1" stop-color="rgb(62.528992%, 39.489746%, 85.401917%)" offset="0.820312"/><stop stop-opacity="1" stop-color="rgb(63.117981%, 39.587402%, 85.566711%)" offset="0.824219"/><stop stop-opacity="1" stop-color="rgb(63.70697%, 39.686584%, 85.733032%)" offset="0.828125"/><stop stop-opacity="1" stop-color="rgb(64.294434%, 39.784241%, 85.897827%)" offset="0.832031"/><stop stop-opacity="1" stop-color="rgb(64.883423%, 39.883423%, 86.062622%)" offset="0.835938"/><stop stop-opacity="1" stop-color="rgb(65.472412%, 39.981079%, 86.227417%)" offset="0.839844"/><stop stop-opacity="1" stop-color="rgb(66.061401%, 40.080261%, 86.393738%)" offset="0.84375"/><stop stop-opacity="1" stop-color="rgb(66.648865%, 40.179443%, 86.558533%)" offset="0.847656"/><stop stop-opacity="1" stop-color="rgb(67.237854%, 40.278625%, 86.724854%)" offset="0.851562"/><stop stop-opacity="1" stop-color="rgb(67.826843%, 40.376282%, 86.889648%)" offset="0.855469"/><stop stop-opacity="1" stop-color="rgb(68.415833%, 40.475464%, 87.055969%)" offset="0.859375"/><stop stop-opacity="1" stop-color="rgb(69.004822%, 40.57312%, 87.220764%)" offset="0.863281"/><stop stop-opacity="1" stop-color="rgb(69.593811%, 40.672302%, 87.385559%)" offset="0.867187"/><stop stop-opacity="1" stop-color="rgb(70.181274%, 40.769958%, 87.550354%)" offset="0.871094"/><stop stop-opacity="1" stop-color="rgb(70.770264%, 40.869141%, 87.716675%)" offset="0.875"/><stop stop-opacity="1" stop-color="rgb(71.359253%, 40.966797%, 87.88147%)" offset="0.878906"/><stop stop-opacity="1" stop-color="rgb(71.948242%, 41.065979%, 88.047791%)" offset="0.882812"/><stop stop-opacity="1" stop-color="rgb(72.535706%, 41.163635%, 88.212585%)" offset="0.886719"/><stop stop-opacity="1" stop-color="rgb(73.124695%, 41.262817%, 88.37738%)" offset="0.890625"/><stop stop-opacity="1" stop-color="rgb(73.713684%, 41.362%, 88.542175%)" offset="0.894531"/><stop stop-opacity="1" stop-color="rgb(74.302673%, 41.461182%, 88.708496%)" offset="0.898438"/><stop stop-opacity="1" stop-color="rgb(74.890137%, 41.558838%, 88.873291%)" offset="0.902344"/><stop stop-opacity="1" stop-color="rgb(75.479126%, 41.65802%, 89.039612%)" offset="0.90625"/><stop stop-opacity="1" stop-color="rgb(76.068115%, 41.755676%, 89.204407%)" offset="0.910156"/><stop stop-opacity="1" stop-color="rgb(76.657104%, 41.854858%, 89.370728%)" offset="0.914062"/><stop stop-opacity="1" stop-color="rgb(77.246094%, 41.952515%, 89.535522%)" offset="0.917969"/><stop stop-opacity="1" stop-color="rgb(77.835083%, 42.051697%, 89.700317%)" offset="0.921875"/><stop stop-opacity="1" stop-color="rgb(78.422546%, 42.149353%, 89.865112%)" offset="0.925781"/><stop stop-opacity="1" stop-color="rgb(79.011536%, 42.248535%, 90.031433%)" offset="0.929688"/><stop stop-opacity="1" stop-color="rgb(79.310608%, 42.298889%, 90.115356%)" offset="0.933594"/><stop stop-opacity="1" stop-color="rgb(79.60968%, 42.349243%, 90.19928%)" offset="0.9375"/><stop stop-opacity="1" stop-color="rgb(79.60968%, 42.349243%, 90.19928%)" offset="1"/></linearGradient><clipPath id="a173eb9c79"><rect x="0" width="284" y="0" height="310"/></clipPath><clipPath id="70bdda7d86"><path d="M 0.296875 0.132812 L 284 0.132812 L 284 309.671875 L 0.296875 309.671875 Z M 0.296875 0.132812 " clip-rule="nonzero"/></clipPath><clipPath id="d90dc0a6a0"><rect x="0" width="284" y="0" height="310"/></clipPath><clipPath id="dfb99b3d15"><rect x="0" width="284" y="0" height="310"/></clipPath><mask id="cbf4e38951"><g filter="url(#6ce26682e3)"><g transform="matrix(1, 0, 0, 1, -0.000000000000014211, 0.000000000000000444)"><g clip-path="url(#dfb99b3d15)"><g clip-path="url(#70bdda7d86)"><g transform="matrix(1, 0, 0, 1, -0.000000000000014211, 0.000000000000000444)"><g clip-path="url(#d90dc0a6a0)"><g fill="#000000" fill-opacity="1"><g transform="translate(115.200846, 174.833728)"><g><path d="M 33.3125 -41.203125 L 45.8125 -41.203125 L 45.8125 0 L 38.078125 0 L 38.078125 -32.46875 L 29.125 0 L 21.140625 0 L 12.0625 -32.46875 L 12.0625 0 L 4.328125 0 L 4.328125 -41.203125 L 16.78125 -41.203125 L 25.15625 -12.03125 Z M 33.3125 -41.203125 "/></g></g></g><g fill="#000000" fill-opacity="1"><g transform="translate(165.327041, 174.833728)"><g><path d="M 11.921875 -26.46875 C 14.242188 -29.15625 17.128906 -30.5 20.578125 -30.5 C 23.023438 -30.5 25.207031 -29.882812 27.125 -28.65625 C 29.050781 -27.425781 30.550781 -25.660156 31.625 -23.359375 C 32.707031 -21.054688 33.25 -18.335938 33.25 -15.203125 C 33.25 -12.003906 32.703125 -9.195312 31.609375 -6.78125 C 30.515625 -4.375 29.007812 -2.523438 27.09375 -1.234375 C 25.1875 0.0546875 23.039062 0.703125 20.65625 0.703125 C 18.570312 0.703125 16.796875 0.347656 15.328125 -0.359375 C 13.859375 -1.078125 12.546875 -2.269531 11.390625 -3.9375 L 11.265625 -3.9375 L 11.265625 0 L 3.90625 0 L 3.90625 -41.203125 L 11.8125 -41.203125 L 11.8125 -26.46875 Z M 18.4375 -24.203125 C 17.125 -24.203125 15.960938 -23.863281 14.953125 -23.1875 C 13.941406 -22.507812 13.15625 -21.519531 12.59375 -20.21875 C 12.03125 -18.914062 11.75 -17.359375 11.75 -15.546875 C 11.75 -12.285156 12.363281 -9.8125 13.59375 -8.125 C 14.832031 -6.4375 16.550781 -5.59375 18.75 -5.59375 C 20.039062 -5.59375 21.164062 -5.945312 22.125 -6.65625 C 23.09375 -7.375 23.835938 -8.425781 24.359375 -9.8125 C 24.890625 -11.195312 25.15625 -12.863281 25.15625 -14.8125 C 25.15625 -17.832031 24.582031 -20.148438 23.4375 -21.765625 C 22.289062 -23.390625 20.625 -24.203125 18.4375 -24.203125 Z M 18.4375 -24.203125 "/></g></g></g><g fill="#000000" fill-opacity="1"><g transform="translate(200.533396, 174.833728)"><g><path d="M 11.953125 -3.203125 L 11.8125 -3.203125 L 11.8125 11.40625 L 3.90625 11.40625 L 3.90625 -29.828125 L 11.265625 -29.828125 L 11.265625 -25.4375 L 11.40625 -25.4375 C 12.4375 -27.15625 13.769531 -28.425781 15.40625 -29.25 C 17.050781 -30.082031 18.8125 -30.5 20.6875 -30.5 C 23.082031 -30.5 25.226562 -29.847656 27.125 -28.546875 C 29.03125 -27.242188 30.523438 -25.390625 31.609375 -22.984375 C 32.703125 -20.585938 33.25 -17.796875 33.25 -14.609375 C 33.25 -11.460938 32.710938 -8.734375 31.640625 -6.421875 C 30.578125 -4.109375 29.09375 -2.34375 27.1875 -1.125 C 25.289062 0.09375 23.097656 0.703125 20.609375 0.703125 C 18.671875 0.703125 17.0625 0.421875 15.78125 -0.140625 C 14.5 -0.703125 13.222656 -1.722656 11.953125 -3.203125 Z M 18.78125 -24.203125 C 16.738281 -24.203125 15.054688 -23.410156 13.734375 -21.828125 C 12.410156 -20.242188 11.75 -17.71875 11.75 -14.25 C 11.75 -12.46875 12.023438 -10.925781 12.578125 -9.625 C 13.128906 -8.320312 13.910156 -7.320312 14.921875 -6.625 C 15.929688 -5.9375 17.125 -5.59375 18.5 -5.59375 C 20.664062 -5.59375 22.316406 -6.394531 23.453125 -8 C 24.585938 -9.601562 25.15625 -11.929688 25.15625 -14.984375 C 25.15625 -17.890625 24.585938 -20.148438 23.453125 -21.765625 C 22.316406 -23.390625 20.757812 -24.203125 18.78125 -24.203125 Z M 18.78125 -24.203125 "/></g></g></g><g fill="#000000" fill-opacity="1"><g transform="translate(235.739752, 174.833728)"><g><path d="M 14.359375 -24.875 C 13.109375 -24.875 12.097656 -24.648438 11.328125 -24.203125 C 10.554688 -23.765625 10.171875 -23.164062 10.171875 -22.40625 C 10.171875 -21.820312 10.351562 -21.328125 10.71875 -20.921875 C 11.082031 -20.523438 11.726562 -20.160156 12.65625 -19.828125 C 13.582031 -19.503906 14.882812 -19.203125 16.5625 -18.921875 C 20.34375 -18.273438 23.128906 -17.195312 24.921875 -15.6875 C 26.722656 -14.1875 27.625 -12.066406 27.625 -9.328125 C 27.625 -7.421875 27.117188 -5.703125 26.109375 -4.171875 C 25.097656 -2.648438 23.640625 -1.457031 21.734375 -0.59375 C 19.835938 0.269531 17.601562 0.703125 15.03125 0.703125 C 11.113281 0.703125 8.03125 -0.078125 5.78125 -1.640625 C 3.539062 -3.203125 2.1875 -5.492188 1.71875 -8.515625 L 9.109375 -9.703125 C 9.441406 -8.117188 10.078125 -6.929688 11.015625 -6.140625 C 11.953125 -5.347656 13.289062 -4.953125 15.03125 -4.953125 C 16.53125 -4.953125 17.726562 -5.234375 18.625 -5.796875 C 19.53125 -6.359375 19.984375 -7.132812 19.984375 -8.125 C 19.984375 -8.664062 19.832031 -9.128906 19.53125 -9.515625 C 19.226562 -9.898438 18.675781 -10.238281 17.875 -10.53125 C 17.070312 -10.832031 15.921875 -11.097656 14.421875 -11.328125 C 10.273438 -11.960938 7.265625 -13.125 5.390625 -14.8125 C 3.515625 -16.5 2.578125 -18.75 2.578125 -21.5625 C 2.578125 -23.375 3.054688 -24.953125 4.015625 -26.296875 C 4.972656 -27.648438 6.347656 -28.6875 8.140625 -29.40625 C 9.929688 -30.132812 12.050781 -30.5 14.5 -30.5 C 17.988281 -30.5 20.800781 -29.804688 22.9375 -28.421875 C 25.070312 -27.035156 26.363281 -25.066406 26.8125 -22.515625 L 19.28125 -21.421875 C 19.050781 -22.523438 18.5 -23.375 17.625 -23.96875 C 16.757812 -24.570312 15.671875 -24.875 14.359375 -24.875 Z M 14.359375 -24.875 "/></g></g></g></g></g></g></g></g></g></mask><clipPath id="3f146661c5"><path d="M 0.296875 4.820312 L 284 4.820312 L 284 303.808594 L 0.296875 303.808594 Z M 0.296875 4.820312 " clip-rule="nonzero"/></clipPath><clipPath id="7d8b290968"><rect x="0" width="284" y="0" height="310"/></clipPath><clipPath id="bd9cd689ee"><rect x="0" width="284" y="0" height="310"/></clipPath><clipPath id="d3736d9937"><rect x="0" width="285" y="0" height="313"/></clipPath></defs><rect x="-37.5" width="450" fill="#ffffff" y="-37.499999" height="449.999989" fill-opacity="1"/><rect x="-37.5" width="450" fill="#ffffff" y="-37.499999" height="449.999989" fill-opacity="1"/><path fill="#5170ff" d="M 331.238281 199.863281 C 341.597656 199.863281 349.996094 208.257812 349.996094 218.617188 C 349.996094 228.976562 341.597656 237.375 331.238281 237.375 C 320.878906 237.375 312.484375 228.976562 312.484375 218.617188 C 312.484375 208.257812 320.878906 199.863281 331.238281 199.863281 Z M 331.238281 199.863281 " fill-opacity="1" fill-rule="nonzero"/><g mask="url(#4efcf20f15)"><g transform="matrix(1, 0, 0, 1, 262, 199)"><g clip-path="url(#ee8ea58c55)"><g clip-path="url(#b546ec6d30)"><path fill="#5170ff" d="M 19.222656 0.863281 C 29.582031 0.863281 37.980469 9.257812 37.980469 19.617188 C 37.980469 29.976562 29.582031 38.375 19.222656 38.375 C 8.863281 38.375 0.46875 29.976562 0.46875 19.617188 C 0.46875 9.257812 8.863281 0.863281 19.222656 0.863281 Z M 19.222656 0.863281 " fill-opacity="1" fill-rule="nonzero"/></g></g></g></g><path fill="#5170ff" d="M 231.207031 199.863281 C 241.566406 199.863281 249.964844 208.257812 249.964844 218.617188 C 249.964844 228.976562 241.566406 237.375 231.207031 237.375 C 220.847656 237.375 212.453125 228.976562 212.453125 218.617188 C 212.453125 208.257812 220.847656 199.863281 231.207031 199.863281 Z M 231.207031 199.863281 " fill-opacity="1" fill-rule="nonzero"/><g transform="matrix(1, 0, 0, 1, 0, 0)"><g clip-path="url(#e47996b4e9)"><g transform="matrix(1, 0, 0, 1, 0, 0)"><g clip-path="url(#0286e81c34)"><g mask="url(#b0b42d2b9a)"><g transform="matrix(1, 0, 0, 1, 0, 0)"><g clip-path="url(#0b331abae3)"><g clip-path="url(#e01c18a65c)"><rect x="-201.3" fill="url(#20f9114836)" width="777.6" height="777.599981" y="-201.299995"/></g></g></g></g></g></g></g></g><g transform="matrix(1, 0, 0, 1, 90, 1)"><g clip-path="url(#d3736d9937)"><g clip-path="url(#028653443b)"><g transform="matrix(1, 0, 0, 1, 1, 2)"><g clip-path="url(#bd9cd689ee)"><g clip-path="url(#8f86128d80)"><g mask="url(#cbf4e38951)"><g transform="matrix(1, 0, 0, 1, -0.000000000000014211, 0.000000000000000444)"><g clip-path="url(#7d8b290968)"><g clip-path="url(#3f146661c5)"><path fill="url(#09a05fc439)" d="M 0.296875 4.820312 L 0.296875 303.808594 L 284 303.808594 L 284 4.820312 Z M 0.296875 4.820312 " fill-rule="nonzero"/></g></g></g></g></g></g></g></g></g></g></svg>