<svg xmlns="http://www.w3.org/2000/svg" xmlns:xlink="http://www.w3.org/1999/xlink" width="500" zoomAndPan="magnify" viewBox="0 0 375 374.999991" height="500" preserveAspectRatio="xMidYMid meet" version="1.0"><defs><filter x="0%" y="0%" width="100%" height="100%" id="69d86066e5"><feColorMatrix values="0 0 0 0 1 0 0 0 0 1 0 0 0 0 1 0 0 0 1 0" color-interpolation-filters="sRGB"/></filter><g/><mask id="31db0782b3"><g filter="url(#69d86066e5)"><rect x="-37.5" width="450" fill="#000000" y="-37.499999" height="449.999989" fill-opacity="0.35"/></g></mask><clipPath id="c2a52137ca"><path d="M 0.679688 0.441406 L 19 0.441406 L 19 18.679688 L 0.679688 18.679688 Z M 0.679688 0.441406 " clip-rule="nonzero"/></clipPath><clipPath id="7cb5cfb7a8"><rect x="0" width="20" y="0" height="19"/></clipPath><clipPath id="15565cbf36"><path d="M 0 0 L 355.921875 0 L 355.921875 375 L 0 375 Z M 0 0 " clip-rule="nonzero"/></clipPath><clipPath id="973ed380ef"><path d="M 0 0 L 355.921875 0 L 355.921875 375 L 0 375 Z M 0 0 " clip-rule="nonzero"/></clipPath><clipPath id="d0cbe8d5dc"><path d="M 0 0 L 355.921875 0 L 355.921875 375 L 0 375 Z M 0 0 " clip-rule="nonzero"/></clipPath><linearGradient x1="-131.025483" gradientTransform="matrix(0.808058, 0, 0, 0.809774, 105.87623, 128.521091)" y1="68.5" x2="309.44101" gradientUnits="userSpaceOnUse" y2="68.5" id="387282a4f9"><stop stop-opacity="1" stop-color="rgb(0%, 29.019165%, 67.83905%)" offset="0"/><stop stop-opacity="1" stop-color="rgb(0%, 29.019165%, 67.83905%)" offset="0.25"/><stop stop-opacity="1" stop-color="rgb(0%, 29.019165%, 67.83905%)" offset="0.28125"/><stop stop-opacity="1" stop-color="rgb(0%, 29.019165%, 67.83905%)" offset="0.296875"/><stop stop-opacity="1" stop-color="rgb(1.127625%, 29.208374%, 68.156433%)" offset="0.300781"/><stop stop-opacity="1" stop-color="rgb(2.256775%, 29.397583%, 68.473816%)" offset="0.304688"/><stop stop-opacity="1" stop-color="rgb(3.479004%, 29.602051%, 68.817139%)" offset="0.308594"/><stop stop-opacity="1" stop-color="rgb(4.701233%, 29.806519%, 69.160461%)" offset="0.3125"/><stop stop-opacity="1" stop-color="rgb(5.923462%, 30.010986%, 69.503784%)" offset="0.316406"/><stop stop-opacity="1" stop-color="rgb(7.145691%, 30.215454%, 69.847107%)" offset="0.320312"/><stop stop-opacity="1" stop-color="rgb(8.36792%, 30.419922%, 70.19043%)" offset="0.324219"/><stop stop-opacity="1" stop-color="rgb(9.590149%, 30.625916%, 70.533752%)" offset="0.328125"/><stop stop-opacity="1" stop-color="rgb(10.812378%, 30.830383%, 70.875549%)" offset="0.332031"/><stop stop-opacity="1" stop-color="rgb(12.034607%, 31.034851%, 71.218872%)" offset="0.335938"/><stop stop-opacity="1" stop-color="rgb(13.256836%, 31.239319%, 71.562195%)" offset="0.339844"/><stop stop-opacity="1" stop-color="rgb(14.479065%, 31.443787%, 71.905518%)" offset="0.34375"/><stop stop-opacity="1" stop-color="rgb(15.701294%, 31.648254%, 72.24884%)" offset="0.347656"/><stop stop-opacity="1" stop-color="rgb(16.923523%, 31.852722%, 72.592163%)" offset="0.351562"/><stop stop-opacity="1" stop-color="rgb(18.145752%, 32.05719%, 72.935486%)" offset="0.355469"/><stop stop-opacity="1" stop-color="rgb(19.367981%, 32.261658%, 73.278809%)" offset="0.359375"/><stop stop-opacity="1" stop-color="rgb(20.588684%, 32.466125%, 73.622131%)" offset="0.363281"/><stop stop-opacity="1" stop-color="rgb(21.810913%, 32.672119%, 73.965454%)" offset="0.367188"/><stop stop-opacity="1" stop-color="rgb(23.033142%, 32.876587%, 74.308777%)" offset="0.371094"/><stop stop-opacity="1" stop-color="rgb(24.255371%, 33.081055%, 74.6521%)" offset="0.375"/><stop stop-opacity="1" stop-color="rgb(25.4776%, 33.285522%, 74.995422%)" offset="0.378906"/><stop stop-opacity="1" stop-color="rgb(26.699829%, 33.48999%, 75.338745%)" offset="0.382812"/><stop stop-opacity="1" stop-color="rgb(27.922058%, 33.694458%, 75.682068%)" offset="0.386719"/><stop stop-opacity="1" stop-color="rgb(29.144287%, 33.898926%, 76.025391%)" offset="0.390625"/><stop stop-opacity="1" stop-color="rgb(30.366516%, 34.103394%, 76.368713%)" offset="0.394531"/><stop stop-opacity="1" stop-color="rgb(31.588745%, 34.307861%, 76.712036%)" offset="0.398438"/><stop stop-opacity="1" stop-color="rgb(32.810974%, 34.512329%, 77.055359%)" offset="0.402344"/><stop stop-opacity="1" stop-color="rgb(34.033203%, 34.718323%, 77.398682%)" offset="0.40625"/><stop stop-opacity="1" stop-color="rgb(35.255432%, 34.922791%, 77.742004%)" offset="0.410156"/><stop stop-opacity="1" stop-color="rgb(36.477661%, 35.127258%, 78.085327%)" offset="0.414062"/><stop stop-opacity="1" stop-color="rgb(37.69989%, 35.331726%, 78.42865%)" offset="0.417969"/><stop stop-opacity="1" stop-color="rgb(38.922119%, 35.536194%, 78.771973%)" offset="0.421875"/><stop stop-opacity="1" stop-color="rgb(40.144348%, 35.740662%, 79.11377%)" offset="0.425781"/><stop stop-opacity="1" stop-color="rgb(41.366577%, 35.945129%, 79.457092%)" offset="0.429688"/><stop stop-opacity="1" stop-color="rgb(42.58728%, 36.149597%, 79.800415%)" offset="0.433594"/><stop stop-opacity="1" stop-color="rgb(43.809509%, 36.355591%, 80.143738%)" offset="0.4375"/><stop stop-opacity="1" stop-color="rgb(45.031738%, 36.560059%, 80.487061%)" offset="0.441406"/><stop stop-opacity="1" stop-color="rgb(46.253967%, 36.764526%, 80.830383%)" offset="0.445312"/><stop stop-opacity="1" stop-color="rgb(47.476196%, 36.968994%, 81.173706%)" offset="0.449219"/><stop stop-opacity="1" stop-color="rgb(48.698425%, 37.173462%, 81.517029%)" offset="0.453125"/><stop stop-opacity="1" stop-color="rgb(49.920654%, 37.37793%, 81.860352%)" offset="0.457031"/><stop stop-opacity="1" stop-color="rgb(51.142883%, 37.582397%, 82.203674%)" offset="0.460938"/><stop stop-opacity="1" stop-color="rgb(52.365112%, 37.786865%, 82.546997%)" offset="0.464844"/><stop stop-opacity="1" stop-color="rgb(53.587341%, 37.991333%, 82.89032%)" offset="0.46875"/><stop stop-opacity="1" stop-color="rgb(54.80957%, 38.195801%, 83.233643%)" offset="0.472656"/><stop stop-opacity="1" stop-color="rgb(56.031799%, 38.401794%, 83.576965%)" offset="0.476562"/><stop stop-opacity="1" stop-color="rgb(57.254028%, 38.606262%, 83.920288%)" offset="0.480469"/><stop stop-opacity="1" stop-color="rgb(58.476257%, 38.81073%, 84.263611%)" offset="0.484375"/><stop stop-opacity="1" stop-color="rgb(59.698486%, 39.015198%, 84.606934%)" offset="0.488281"/><stop stop-opacity="1" stop-color="rgb(60.920715%, 39.219666%, 84.950256%)" offset="0.492188"/><stop stop-opacity="1" stop-color="rgb(62.141418%, 39.424133%, 85.293579%)" offset="0.496094"/><stop stop-opacity="1" stop-color="rgb(63.363647%, 39.628601%, 85.636902%)" offset="0.5"/><stop stop-opacity="1" stop-color="rgb(64.585876%, 39.833069%, 85.980225%)" offset="0.503906"/><stop stop-opacity="1" stop-color="rgb(65.808105%, 40.039062%, 86.323547%)" offset="0.507812"/><stop stop-opacity="1" stop-color="rgb(67.030334%, 40.24353%, 86.66687%)" offset="0.511719"/><stop stop-opacity="1" stop-color="rgb(68.252563%, 40.447998%, 87.010193%)" offset="0.515625"/><stop stop-opacity="1" stop-color="rgb(69.474792%, 40.652466%, 87.353516%)" offset="0.519531"/><stop stop-opacity="1" stop-color="rgb(70.697021%, 40.856934%, 87.696838%)" offset="0.523438"/><stop stop-opacity="1" stop-color="rgb(71.91925%, 41.061401%, 88.038635%)" offset="0.527344"/><stop stop-opacity="1" stop-color="rgb(73.141479%, 41.265869%, 88.381958%)" offset="0.53125"/><stop stop-opacity="1" stop-color="rgb(74.363708%, 41.470337%, 88.725281%)" offset="0.535156"/><stop stop-opacity="1" stop-color="rgb(75.585938%, 41.674805%, 89.068604%)" offset="0.539062"/><stop stop-opacity="1" stop-color="rgb(76.808167%, 41.879272%, 89.411926%)" offset="0.542969"/><stop stop-opacity="1" stop-color="rgb(78.030396%, 42.085266%, 89.755249%)" offset="0.546875"/><stop stop-opacity="1" stop-color="rgb(78.819275%, 42.216492%, 89.976501%)" offset="0.550781"/><stop stop-opacity="1" stop-color="rgb(79.60968%, 42.349243%, 90.19928%)" offset="0.554688"/><stop stop-opacity="1" stop-color="rgb(79.60968%, 42.349243%, 90.19928%)" offset="0.5625"/><stop stop-opacity="1" stop-color="rgb(79.60968%, 42.349243%, 90.19928%)" offset="0.625"/><stop stop-opacity="1" stop-color="rgb(79.60968%, 42.349243%, 90.19928%)" offset="0.75"/><stop stop-opacity="1" stop-color="rgb(79.60968%, 42.349243%, 90.19928%)" offset="1"/></linearGradient><clipPath id="3af2c61c65"><rect x="0" width="356" y="0" height="375"/></clipPath><clipPath id="739d2f6151"><path d="M 0 0 L 355.921875 0 L 355.921875 375 L 0 375 Z M 0 0 " clip-rule="nonzero"/></clipPath><clipPath id="632d945a92"><rect x="0" width="356" y="0" height="375"/></clipPath><clipPath id="e16c761117"><rect x="0" width="356" y="0" height="375"/></clipPath><mask id="6695eb40a7"><g filter="url(#69d86066e5)"><g transform="matrix(1, 0, 0, 1, 0, 0)"><g clip-path="url(#e16c761117)"><g clip-path="url(#739d2f6151)"><g transform="matrix(1, 0, 0, 1, 0, 0)"><g clip-path="url(#632d945a92)"><g fill="#000000" fill-opacity="1"><g transform="translate(105.836342, 213.127262)"><g><path d="M 41.5625 -17 C 41.5625 -13.257812 40.773438 -10.035156 39.203125 -7.328125 C 37.628906 -4.628906 35.382812 -2.570312 32.46875 -1.15625 C 29.5625 0.257812 26.125 0.96875 22.15625 0.96875 C 18.75 0.96875 15.679688 0.359375 12.953125 -0.859375 C 10.222656 -2.078125 7.984375 -3.894531 6.234375 -6.3125 C 4.492188 -8.726562 3.390625 -11.679688 2.921875 -15.171875 L 13.921875 -16.453125 C 14.253906 -13.722656 15.125 -11.65625 16.53125 -10.25 C 17.9375 -8.851562 19.785156 -8.15625 22.078125 -8.15625 C 23.679688 -8.15625 25.085938 -8.566406 26.296875 -9.390625 C 27.503906 -10.222656 28.429688 -11.351562 29.078125 -12.78125 C 29.734375 -14.21875 30.0625 -15.796875 30.0625 -17.515625 C 30.0625 -19.148438 29.707031 -20.609375 29 -21.890625 C 28.300781 -23.179688 27.300781 -24.191406 26 -24.921875 C 24.707031 -25.648438 23.191406 -26.015625 21.453125 -26.015625 L 16.265625 -26.015625 L 17.46875 -34.390625 C 21.289062 -34.390625 24.078125 -35.019531 25.828125 -36.28125 C 27.585938 -37.539062 28.46875 -39.378906 28.46875 -41.796875 C 28.46875 -43.691406 27.867188 -45.207031 26.671875 -46.34375 C 25.472656 -47.476562 23.863281 -48.046875 21.84375 -48.046875 C 19.757812 -48.046875 18.039062 -47.363281 16.6875 -46 C 15.332031 -44.632812 14.515625 -42.78125 14.234375 -40.4375 L 3.703125 -42.234375 C 4.742188 -47.222656 6.835938 -50.957031 9.984375 -53.4375 C 13.128906 -55.925781 17.171875 -57.171875 22.109375 -57.171875 C 25.617188 -57.171875 28.695312 -56.535156 31.34375 -55.265625 C 34 -54.003906 36.039062 -52.265625 37.46875 -50.046875 C 38.90625 -47.828125 39.625 -45.300781 39.625 -42.46875 C 39.625 -39.84375 38.878906 -37.46875 37.390625 -35.34375 C 35.910156 -33.226562 33.625 -31.570312 30.53125 -30.375 C 34.007812 -29.675781 36.71875 -28.125 38.65625 -25.71875 C 40.59375 -23.3125 41.5625 -20.40625 41.5625 -17 Z M 41.5625 -17 "/></g></g></g><g fill="#000000" fill-opacity="1"><g transform="translate(151.18606, 213.127262)"><g><path d="M 3.3125 -28.265625 C 3.3125 -38.222656 4.945312 -45.570312 8.21875 -50.3125 C 11.5 -55.0625 16.296875 -57.4375 22.609375 -57.4375 C 29.160156 -57.4375 34.035156 -55.035156 37.234375 -50.234375 C 40.429688 -45.441406 42.03125 -38.109375 42.03125 -28.234375 C 42.03125 -18.046875 40.359375 -10.628906 37.015625 -5.984375 C 33.679688 -1.347656 28.90625 0.96875 22.6875 0.96875 C 16.375 0.96875 11.566406 -1.335938 8.265625 -5.953125 C 4.960938 -10.566406 3.3125 -18.003906 3.3125 -28.265625 Z M 14.8125 -27.40625 C 14.8125 -22.625 15.082031 -18.828125 15.625 -16.015625 C 16.175781 -13.210938 17.015625 -11.203125 18.140625 -9.984375 C 19.273438 -8.765625 20.765625 -8.15625 22.609375 -8.15625 C 24.566406 -8.15625 26.113281 -8.796875 27.25 -10.078125 C 28.394531 -11.367188 29.226562 -13.460938 29.75 -16.359375 C 30.269531 -19.253906 30.53125 -23.195312 30.53125 -28.1875 C 30.53125 -33.382812 30.269531 -37.429688 29.75 -40.328125 C 29.226562 -43.234375 28.414062 -45.289062 27.3125 -46.5 C 26.207031 -47.707031 24.71875 -48.3125 22.84375 -48.3125 C 20.945312 -48.3125 19.425781 -47.757812 18.28125 -46.65625 C 17.144531 -45.550781 16.28125 -43.488281 15.6875 -40.46875 C 15.101562 -37.457031 14.8125 -33.101562 14.8125 -27.40625 Z M 14.8125 -27.40625 "/></g></g></g></g></g></g></g></g></g></mask><clipPath id="07c6e67ac4"><path d="M 0 0 L 355.921875 0 L 355.921875 375 L 0 375 Z M 0 0 " clip-rule="nonzero"/></clipPath><clipPath id="ed29015d70"><rect x="0" width="356" y="0" height="375"/></clipPath><clipPath id="0a05abadea"><rect x="0" width="356" y="0" height="375"/></clipPath><clipPath id="5d6ac6e35a"><rect x="0" width="357" y="0" height="375"/></clipPath><clipPath id="59cf1f858a"><path d="M 0.945312 1.277344 L 184.785156 1.277344 L 184.785156 151.074219 L 0.945312 151.074219 Z M 0.945312 1.277344 " clip-rule="nonzero"/></clipPath><clipPath id="406f74bbe2"><path d="M 0.945312 0.277344 L 184.785156 0.277344 L 184.785156 150.074219 L 0.945312 150.074219 Z M 0.945312 0.277344 " clip-rule="nonzero"/></clipPath><clipPath id="8510c54f8a"><path d="M 0.945312 2.546875 L 184.785156 2.546875 L 184.785156 147.238281 L 0.945312 147.238281 Z M 0.945312 2.546875 " clip-rule="nonzero"/></clipPath><linearGradient x1="-98.185997" gradientTransform="matrix(0.566835, 0, 0, 0.566583, 56.60004, 55.911942)" y1="33.5" x2="226.139013" gradientUnits="userSpaceOnUse" y2="33.5" id="e915107b4a"><stop stop-opacity="1" stop-color="rgb(0%, 29.019165%, 67.83905%)" offset="0"/><stop stop-opacity="1" stop-color="rgb(0%, 29.019165%, 67.83905%)" offset="0.25"/><stop stop-opacity="1" stop-color="rgb(0%, 29.019165%, 67.83905%)" offset="0.28125"/><stop stop-opacity="1" stop-color="rgb(0%, 29.019165%, 67.83905%)" offset="0.296875"/><stop stop-opacity="1" stop-color="rgb(0.195312%, 29.051208%, 67.893982%)" offset="0.300781"/><stop stop-opacity="1" stop-color="rgb(0.392151%, 29.084778%, 67.948914%)" offset="0.304688"/><stop stop-opacity="1" stop-color="rgb(1.179504%, 29.216003%, 68.170166%)" offset="0.308594"/><stop stop-opacity="1" stop-color="rgb(1.968384%, 29.348755%, 68.392944%)" offset="0.3125"/><stop stop-opacity="1" stop-color="rgb(2.755737%, 29.47998%, 68.614197%)" offset="0.316406"/><stop stop-opacity="1" stop-color="rgb(3.544617%, 29.612732%, 68.835449%)" offset="0.320312"/><stop stop-opacity="1" stop-color="rgb(4.333496%, 29.743958%, 69.056702%)" offset="0.324219"/><stop stop-opacity="1" stop-color="rgb(5.122375%, 29.876709%, 69.277954%)" offset="0.328125"/><stop stop-opacity="1" stop-color="rgb(5.909729%, 30.007935%, 69.499207%)" offset="0.332031"/><stop stop-opacity="1" stop-color="rgb(6.698608%, 30.140686%, 69.720459%)" offset="0.335938"/><stop stop-opacity="1" stop-color="rgb(7.485962%, 30.271912%, 69.941711%)" offset="0.339844"/><stop stop-opacity="1" stop-color="rgb(8.274841%, 30.404663%, 70.162964%)" offset="0.34375"/><stop stop-opacity="1" stop-color="rgb(9.062195%, 30.535889%, 70.384216%)" offset="0.347656"/><stop stop-opacity="1" stop-color="rgb(9.851074%, 30.66864%, 70.606995%)" offset="0.351562"/><stop stop-opacity="1" stop-color="rgb(10.638428%, 30.799866%, 70.828247%)" offset="0.355469"/><stop stop-opacity="1" stop-color="rgb(11.427307%, 30.932617%, 71.0495%)" offset="0.359375"/><stop stop-opacity="1" stop-color="rgb(12.214661%, 31.063843%, 71.270752%)" offset="0.363281"/><stop stop-opacity="1" stop-color="rgb(13.00354%, 31.196594%, 71.492004%)" offset="0.367187"/><stop stop-opacity="1" stop-color="rgb(13.792419%, 31.32782%, 71.713257%)" offset="0.371094"/><stop stop-opacity="1" stop-color="rgb(14.581299%, 31.460571%, 71.934509%)" offset="0.375"/><stop stop-opacity="1" stop-color="rgb(15.368652%, 31.591797%, 72.155762%)" offset="0.378906"/><stop stop-opacity="1" stop-color="rgb(16.157532%, 31.724548%, 72.377014%)" offset="0.382812"/><stop stop-opacity="1" stop-color="rgb(16.944885%, 31.855774%, 72.598267%)" offset="0.386719"/><stop stop-opacity="1" stop-color="rgb(17.733765%, 31.988525%, 72.819519%)" offset="0.390625"/><stop stop-opacity="1" stop-color="rgb(18.521118%, 32.119751%, 73.040771%)" offset="0.394531"/><stop stop-opacity="1" stop-color="rgb(19.309998%, 32.252502%, 73.26355%)" offset="0.398437"/><stop stop-opacity="1" stop-color="rgb(20.097351%, 32.383728%, 73.484802%)" offset="0.402344"/><stop stop-opacity="1" stop-color="rgb(20.88623%, 32.516479%, 73.706055%)" offset="0.40625"/><stop stop-opacity="1" stop-color="rgb(21.673584%, 32.647705%, 73.927307%)" offset="0.410156"/><stop stop-opacity="1" stop-color="rgb(22.462463%, 32.780457%, 74.14856%)" offset="0.414062"/><stop stop-opacity="1" stop-color="rgb(23.251343%, 32.911682%, 74.369812%)" offset="0.417969"/><stop stop-opacity="1" stop-color="rgb(24.040222%, 33.044434%, 74.591064%)" offset="0.421875"/><stop stop-opacity="1" stop-color="rgb(24.827576%, 33.175659%, 74.812317%)" offset="0.425781"/><stop stop-opacity="1" stop-color="rgb(25.616455%, 33.308411%, 75.033569%)" offset="0.429688"/><stop stop-opacity="1" stop-color="rgb(26.403809%, 33.439636%, 75.254822%)" offset="0.433594"/><stop stop-opacity="1" stop-color="rgb(27.192688%, 33.572388%, 75.4776%)" offset="0.4375"/><stop stop-opacity="1" stop-color="rgb(27.980042%, 33.703613%, 75.698853%)" offset="0.441406"/><stop stop-opacity="1" stop-color="rgb(28.768921%, 33.836365%, 75.920105%)" offset="0.445312"/><stop stop-opacity="1" stop-color="rgb(29.556274%, 33.96759%, 76.141357%)" offset="0.449219"/><stop stop-opacity="1" stop-color="rgb(30.345154%, 34.100342%, 76.36261%)" offset="0.453125"/><stop stop-opacity="1" stop-color="rgb(31.132507%, 34.231567%, 76.583862%)" offset="0.457031"/><stop stop-opacity="1" stop-color="rgb(31.921387%, 34.364319%, 76.805115%)" offset="0.460937"/><stop stop-opacity="1" stop-color="rgb(32.70874%, 34.495544%, 77.026367%)" offset="0.464844"/><stop stop-opacity="1" stop-color="rgb(33.49762%, 34.628296%, 77.24762%)" offset="0.46875"/><stop stop-opacity="1" stop-color="rgb(34.286499%, 34.759521%, 77.468872%)" offset="0.472656"/><stop stop-opacity="1" stop-color="rgb(35.075378%, 34.892273%, 77.690125%)" offset="0.476562"/><stop stop-opacity="1" stop-color="rgb(35.862732%, 35.023499%, 77.911377%)" offset="0.480469"/><stop stop-opacity="1" stop-color="rgb(36.651611%, 35.15625%, 78.134155%)" offset="0.484375"/><stop stop-opacity="1" stop-color="rgb(37.438965%, 35.287476%, 78.355408%)" offset="0.488281"/><stop stop-opacity="1" stop-color="rgb(38.227844%, 35.420227%, 78.57666%)" offset="0.492187"/><stop stop-opacity="1" stop-color="rgb(39.015198%, 35.551453%, 78.797913%)" offset="0.496094"/><stop stop-opacity="1" stop-color="rgb(39.804077%, 35.684204%, 79.019165%)" offset="0.5"/><stop stop-opacity="1" stop-color="rgb(40.591431%, 35.81543%, 79.240417%)" offset="0.503906"/><stop stop-opacity="1" stop-color="rgb(41.38031%, 35.948181%, 79.46167%)" offset="0.507812"/><stop stop-opacity="1" stop-color="rgb(42.167664%, 36.079407%, 79.682922%)" offset="0.511719"/><stop stop-opacity="1" stop-color="rgb(42.956543%, 36.212158%, 79.904175%)" offset="0.515625"/><stop stop-opacity="1" stop-color="rgb(43.745422%, 36.343384%, 80.125427%)" offset="0.519531"/><stop stop-opacity="1" stop-color="rgb(44.534302%, 36.476135%, 80.348206%)" offset="0.523438"/><stop stop-opacity="1" stop-color="rgb(45.321655%, 36.607361%, 80.569458%)" offset="0.527344"/><stop stop-opacity="1" stop-color="rgb(46.110535%, 36.740112%, 80.79071%)" offset="0.53125"/><stop stop-opacity="1" stop-color="rgb(46.897888%, 36.871338%, 81.011963%)" offset="0.535156"/><stop stop-opacity="1" stop-color="rgb(47.686768%, 37.004089%, 81.233215%)" offset="0.539062"/><stop stop-opacity="1" stop-color="rgb(48.474121%, 37.135315%, 81.454468%)" offset="0.542969"/><stop stop-opacity="1" stop-color="rgb(49.263%, 37.268066%, 81.67572%)" offset="0.546875"/><stop stop-opacity="1" stop-color="rgb(50.050354%, 37.399292%, 81.896973%)" offset="0.550781"/><stop stop-opacity="1" stop-color="rgb(50.839233%, 37.532043%, 82.118225%)" offset="0.554688"/><stop stop-opacity="1" stop-color="rgb(51.626587%, 37.663269%, 82.339478%)" offset="0.558594"/><stop stop-opacity="1" stop-color="rgb(52.415466%, 37.796021%, 82.562256%)" offset="0.5625"/><stop stop-opacity="1" stop-color="rgb(53.204346%, 37.927246%, 82.783508%)" offset="0.566406"/><stop stop-opacity="1" stop-color="rgb(53.993225%, 38.059998%, 83.004761%)" offset="0.570312"/><stop stop-opacity="1" stop-color="rgb(54.780579%, 38.191223%, 83.226013%)" offset="0.574219"/><stop stop-opacity="1" stop-color="rgb(55.569458%, 38.323975%, 83.447266%)" offset="0.578125"/><stop stop-opacity="1" stop-color="rgb(56.356812%, 38.4552%, 83.668518%)" offset="0.582031"/><stop stop-opacity="1" stop-color="rgb(57.145691%, 38.587952%, 83.889771%)" offset="0.585938"/><stop stop-opacity="1" stop-color="rgb(57.933044%, 38.719177%, 84.111023%)" offset="0.589844"/><stop stop-opacity="1" stop-color="rgb(58.721924%, 38.851929%, 84.332275%)" offset="0.59375"/><stop stop-opacity="1" stop-color="rgb(59.509277%, 38.983154%, 84.553528%)" offset="0.597656"/><stop stop-opacity="1" stop-color="rgb(60.298157%, 39.115906%, 84.77478%)" offset="0.601562"/><stop stop-opacity="1" stop-color="rgb(61.08551%, 39.247131%, 84.996033%)" offset="0.605469"/><stop stop-opacity="1" stop-color="rgb(61.87439%, 39.379883%, 85.218811%)" offset="0.609375"/><stop stop-opacity="1" stop-color="rgb(62.663269%, 39.511108%, 85.440063%)" offset="0.613281"/><stop stop-opacity="1" stop-color="rgb(63.452148%, 39.64386%, 85.661316%)" offset="0.617188"/><stop stop-opacity="1" stop-color="rgb(64.239502%, 39.775085%, 85.882568%)" offset="0.621094"/><stop stop-opacity="1" stop-color="rgb(65.028381%, 39.907837%, 86.103821%)" offset="0.625"/><stop stop-opacity="1" stop-color="rgb(65.815735%, 40.039062%, 86.325073%)" offset="0.628906"/><stop stop-opacity="1" stop-color="rgb(66.604614%, 40.171814%, 86.546326%)" offset="0.632812"/><stop stop-opacity="1" stop-color="rgb(67.391968%, 40.30304%, 86.767578%)" offset="0.636719"/><stop stop-opacity="1" stop-color="rgb(68.180847%, 40.435791%, 86.988831%)" offset="0.640625"/><stop stop-opacity="1" stop-color="rgb(68.968201%, 40.567017%, 87.210083%)" offset="0.644531"/><stop stop-opacity="1" stop-color="rgb(69.75708%, 40.699768%, 87.432861%)" offset="0.648438"/><stop stop-opacity="1" stop-color="rgb(70.544434%, 40.830994%, 87.654114%)" offset="0.652344"/><stop stop-opacity="1" stop-color="rgb(71.333313%, 40.963745%, 87.875366%)" offset="0.65625"/><stop stop-opacity="1" stop-color="rgb(72.120667%, 41.094971%, 88.096619%)" offset="0.660156"/><stop stop-opacity="1" stop-color="rgb(72.909546%, 41.227722%, 88.317871%)" offset="0.664062"/><stop stop-opacity="1" stop-color="rgb(73.698425%, 41.358948%, 88.539124%)" offset="0.667969"/><stop stop-opacity="1" stop-color="rgb(74.487305%, 41.491699%, 88.760376%)" offset="0.671875"/><stop stop-opacity="1" stop-color="rgb(75.274658%, 41.622925%, 88.981628%)" offset="0.675781"/><stop stop-opacity="1" stop-color="rgb(76.063538%, 41.755676%, 89.202881%)" offset="0.679687"/><stop stop-opacity="1" stop-color="rgb(76.850891%, 41.886902%, 89.424133%)" offset="0.683594"/><stop stop-opacity="1" stop-color="rgb(77.639771%, 42.019653%, 89.645386%)" offset="0.6875"/><stop stop-opacity="1" stop-color="rgb(78.427124%, 42.150879%, 89.866638%)" offset="0.691406"/><stop stop-opacity="1" stop-color="rgb(79.216003%, 42.28363%, 90.089417%)" offset="0.695312"/><stop stop-opacity="1" stop-color="rgb(79.412842%, 42.315674%, 90.144348%)" offset="0.699219"/><stop stop-opacity="1" stop-color="rgb(79.60968%, 42.349243%, 90.19928%)" offset="0.703125"/><stop stop-opacity="1" stop-color="rgb(79.60968%, 42.349243%, 90.19928%)" offset="0.71875"/><stop stop-opacity="1" stop-color="rgb(79.60968%, 42.349243%, 90.19928%)" offset="0.75"/><stop stop-opacity="1" stop-color="rgb(79.60968%, 42.349243%, 90.19928%)" offset="1"/></linearGradient><clipPath id="49db1d3626"><rect x="0" width="185" y="0" height="151"/></clipPath><clipPath id="b376263b16"><path d="M 0.945312 0.277344 L 184.785156 0.277344 L 184.785156 150.074219 L 0.945312 150.074219 Z M 0.945312 0.277344 " clip-rule="nonzero"/></clipPath><clipPath id="b2588c7b33"><rect x="0" width="185" y="0" height="151"/></clipPath><clipPath id="b402e7e2c2"><rect x="0" width="185" y="0" height="151"/></clipPath><mask id="0e02cbb5b7"><g filter="url(#69d86066e5)"><g><g clip-path="url(#b402e7e2c2)"><g clip-path="url(#b376263b16)"><g><g clip-path="url(#b2588c7b33)"><g fill="#000000" fill-opacity="1"><g transform="translate(56.549957, 84.822164)"><g><path d="M 16.125 -19.9375 L 22.171875 -19.9375 L 22.171875 0 L 18.4375 0 L 18.4375 -15.71875 L 14.09375 0 L 10.234375 0 L 5.828125 -15.71875 L 5.828125 0 L 2.09375 0 L 2.09375 -19.9375 L 8.125 -19.9375 L 12.171875 -5.828125 Z M 16.125 -19.9375 "/></g></g></g><g fill="#000000" fill-opacity="1"><g transform="translate(80.807667, 84.822164)"><g><path d="M 5.765625 -12.8125 C 6.890625 -14.113281 8.285156 -14.765625 9.953125 -14.765625 C 11.140625 -14.765625 12.195312 -14.46875 13.125 -13.875 C 14.0625 -13.28125 14.789062 -12.421875 15.3125 -11.296875 C 15.832031 -10.179688 16.09375 -8.867188 16.09375 -7.359375 C 16.09375 -5.804688 15.828125 -4.445312 15.296875 -3.28125 C 14.765625 -2.113281 14.035156 -1.21875 13.109375 -0.59375 C 12.179688 0.03125 11.144531 0.34375 10 0.34375 C 8.988281 0.34375 8.128906 0.171875 7.421875 -0.171875 C 6.710938 -0.515625 6.078125 -1.09375 5.515625 -1.90625 L 5.453125 -1.90625 L 5.453125 0 L 1.890625 0 L 1.890625 -19.9375 L 5.71875 -19.9375 L 5.71875 -12.8125 Z M 8.921875 -11.71875 C 8.285156 -11.71875 7.722656 -11.550781 7.234375 -11.21875 C 6.742188 -10.894531 6.363281 -10.414062 6.09375 -9.78125 C 5.820312 -9.15625 5.6875 -8.398438 5.6875 -7.515625 C 5.6875 -5.941406 5.984375 -4.742188 6.578125 -3.921875 C 7.179688 -3.109375 8.015625 -2.703125 9.078125 -2.703125 C 9.703125 -2.703125 10.242188 -2.875 10.703125 -3.21875 C 11.171875 -3.5625 11.53125 -4.066406 11.78125 -4.734375 C 12.039062 -5.410156 12.171875 -6.222656 12.171875 -7.171875 C 12.171875 -8.628906 11.894531 -9.75 11.34375 -10.53125 C 10.789062 -11.320312 9.984375 -11.71875 8.921875 -11.71875 Z M 8.921875 -11.71875 "/></g></g></g><g fill="#000000" fill-opacity="1"><g transform="translate(97.845177, 84.822164)"><g><path d="M 5.78125 -1.546875 L 5.71875 -1.546875 L 5.71875 5.515625 L 1.890625 5.515625 L 1.890625 -14.4375 L 5.453125 -14.4375 L 5.453125 -12.3125 L 5.515625 -12.3125 C 6.015625 -13.144531 6.660156 -13.757812 7.453125 -14.15625 C 8.253906 -14.5625 9.109375 -14.765625 10.015625 -14.765625 C 11.171875 -14.765625 12.207031 -14.445312 13.125 -13.8125 C 14.050781 -13.1875 14.773438 -12.289062 15.296875 -11.125 C 15.828125 -9.96875 16.09375 -8.617188 16.09375 -7.078125 C 16.09375 -5.546875 15.832031 -4.21875 15.3125 -3.09375 C 14.800781 -1.976562 14.082031 -1.125 13.15625 -0.53125 C 12.238281 0.0507812 11.175781 0.34375 9.96875 0.34375 C 9.03125 0.34375 8.25 0.207031 7.625 -0.0625 C 7.007812 -0.332031 6.394531 -0.828125 5.78125 -1.546875 Z M 9.09375 -11.71875 C 8.101562 -11.71875 7.285156 -11.332031 6.640625 -10.5625 C 6.003906 -9.789062 5.6875 -8.566406 5.6875 -6.890625 C 5.6875 -6.035156 5.816406 -5.289062 6.078125 -4.65625 C 6.347656 -4.03125 6.726562 -3.546875 7.21875 -3.203125 C 7.707031 -2.867188 8.285156 -2.703125 8.953125 -2.703125 C 10.003906 -2.703125 10.800781 -3.085938 11.34375 -3.859375 C 11.894531 -4.640625 12.171875 -5.769531 12.171875 -7.25 C 12.171875 -8.65625 11.894531 -9.75 11.34375 -10.53125 C 10.800781 -11.320312 10.050781 -11.71875 9.09375 -11.71875 Z M 9.09375 -11.71875 "/></g></g></g><g fill="#000000" fill-opacity="1"><g transform="translate(114.882687, 84.822164)"><g><path d="M 6.953125 -12.03125 C 6.347656 -12.03125 5.859375 -11.925781 5.484375 -11.71875 C 5.109375 -11.507812 4.921875 -11.21875 4.921875 -10.84375 C 4.921875 -10.5625 5.007812 -10.320312 5.1875 -10.125 C 5.363281 -9.925781 5.675781 -9.75 6.125 -9.59375 C 6.570312 -9.4375 7.203125 -9.289062 8.015625 -9.15625 C 9.847656 -8.84375 11.195312 -8.320312 12.0625 -7.59375 C 12.9375 -6.863281 13.375 -5.835938 13.375 -4.515625 C 13.375 -3.585938 13.128906 -2.753906 12.640625 -2.015625 C 12.148438 -1.273438 11.441406 -0.695312 10.515625 -0.28125 C 9.597656 0.132812 8.519531 0.34375 7.28125 0.34375 C 5.382812 0.34375 3.890625 -0.0351562 2.796875 -0.796875 C 1.710938 -1.554688 1.054688 -2.664062 0.828125 -4.125 L 4.40625 -4.6875 C 4.570312 -3.925781 4.878906 -3.351562 5.328125 -2.96875 C 5.785156 -2.582031 6.4375 -2.390625 7.28125 -2.390625 C 8 -2.390625 8.578125 -2.523438 9.015625 -2.796875 C 9.453125 -3.066406 9.671875 -3.445312 9.671875 -3.9375 C 9.671875 -4.195312 9.597656 -4.421875 9.453125 -4.609375 C 9.304688 -4.796875 9.035156 -4.957031 8.640625 -5.09375 C 8.253906 -5.238281 7.703125 -5.367188 6.984375 -5.484375 C 4.972656 -5.785156 3.515625 -6.34375 2.609375 -7.15625 C 1.703125 -7.976562 1.25 -9.070312 1.25 -10.4375 C 1.25 -11.3125 1.476562 -12.078125 1.9375 -12.734375 C 2.40625 -13.390625 3.070312 -13.890625 3.9375 -14.234375 C 4.800781 -14.585938 5.828125 -14.765625 7.015625 -14.765625 C 8.703125 -14.765625 10.0625 -14.425781 11.09375 -13.75 C 12.132812 -13.082031 12.765625 -12.128906 12.984375 -10.890625 L 9.328125 -10.359375 C 9.222656 -10.898438 8.957031 -11.3125 8.53125 -11.59375 C 8.113281 -11.882812 7.585938 -12.03125 6.953125 -12.03125 Z M 6.953125 -12.03125 "/></g></g></g></g></g></g></g></g></g></mask><clipPath id="3958c82f85"><path d="M 0.945312 2.546875 L 184.785156 2.546875 L 184.785156 147.238281 L 0.945312 147.238281 Z M 0.945312 2.546875 " clip-rule="nonzero"/></clipPath><clipPath id="03324584e3"><rect x="0" width="185" y="0" height="151"/></clipPath><clipPath id="25b82e9986"><rect x="0" width="185" y="0" height="151"/></clipPath><clipPath id="6814184d20"><rect x="0" width="186" y="0" height="152"/></clipPath></defs><path fill="#5170ff" d="M 257.058594 193.480469 C 262.070312 193.480469 266.132812 197.542969 266.132812 202.558594 C 266.132812 207.570312 262.070312 211.632812 257.058594 211.632812 C 252.042969 211.632812 247.980469 207.570312 247.980469 202.558594 C 247.980469 197.542969 252.042969 193.480469 257.058594 193.480469 Z M 257.058594 193.480469 " fill-opacity="1" fill-rule="nonzero"/><g mask="url(#31db0782b3)"><g transform="matrix(1, 0, 0, 1, 223, 193)"><g clip-path="url(#7cb5cfb7a8)"><g clip-path="url(#c2a52137ca)"><path fill="#5170ff" d="M 9.855469 0.480469 C 14.867188 0.480469 18.929688 4.542969 18.929688 9.558594 C 18.929688 14.570312 14.867188 18.632812 9.855469 18.632812 C 4.839844 18.632812 0.777344 14.570312 0.777344 9.558594 C 0.777344 4.542969 4.839844 0.480469 9.855469 0.480469 Z M 9.855469 0.480469 " fill-opacity="1" fill-rule="nonzero"/></g></g></g></g><path fill="#5170ff" d="M 208.652344 193.480469 C 213.664062 193.480469 217.726562 197.542969 217.726562 202.558594 C 217.726562 207.570312 213.664062 211.632812 208.652344 211.632812 C 203.636719 211.632812 199.574219 207.570312 199.574219 202.558594 C 199.574219 197.542969 203.636719 193.480469 208.652344 193.480469 Z M 208.652344 193.480469 " fill-opacity="1" fill-rule="nonzero"/><g transform="matrix(1, 0, 0, 1, 0, 0)"><g clip-path="url(#5d6ac6e35a)"><g clip-path="url(#15565cbf36)"><g transform="matrix(1, 0, 0, 1, 0, 0)"><g clip-path="url(#0a05abadea)"><g clip-path="url(#973ed380ef)"><g mask="url(#6695eb40a7)"><g transform="matrix(1, 0, 0, 1, 0, 0)"><g clip-path="url(#ed29015d70)"><g clip-path="url(#07c6e67ac4)"><path fill="url(#387282a4f9)" d="M 0 0 L 0 375 L 355.921875 375 L 355.921875 0 Z M 0 0 " fill-rule="nonzero"/></g></g></g></g></g></g></g></g></g></g><g transform="matrix(1, 0, 0, 1, 140, 97)"><g clip-path="url(#6814184d20)"><g clip-path="url(#59cf1f858a)"><g transform="matrix(1, 0, 0, 1, 0, 1)"><g clip-path="url(#25b82e9986)"><g clip-path="url(#406f74bbe2)"><g mask="url(#0e02cbb5b7)"><g><g clip-path="url(#03324584e3)"><g clip-path="url(#3958c82f85)"><path fill="url(#e915107b4a)" d="M 0.945312 2.546875 L 0.945312 147.238281 L 184.785156 147.238281 L 184.785156 2.546875 Z M 0.945312 2.546875 " fill-rule="nonzero"/></g></g></g></g></g></g></g></g></g></g></svg>