<svg xmlns="http://www.w3.org/2000/svg" xmlns:xlink="http://www.w3.org/1999/xlink" width="500" zoomAndPan="magnify" viewBox="0 0 375 374.999991" height="500" preserveAspectRatio="xMidYMid meet" version="1.0"><defs><clipPath id="8b50bc7248"><path d="M 114.015625 114.015625 L 260.984375 114.015625 L 260.984375 260.984375 L 114.015625 260.984375 Z M 114.015625 114.015625 " clip-rule="nonzero"/></clipPath><clipPath id="b0f59f0e52"><path d="M 187.5 114.015625 C 146.917969 114.015625 114.015625 146.917969 114.015625 187.5 C 114.015625 228.082031 146.917969 260.984375 187.5 260.984375 C 228.082031 260.984375 260.984375 228.082031 260.984375 187.5 C 260.984375 146.917969 228.082031 114.015625 187.5 114.015625 Z M 187.5 114.015625 " clip-rule="nonzero"/></clipPath><clipPath id="66c9907d6b"><path d="M 0.015625 0.015625 L 146.984375 0.015625 L 146.984375 146.984375 L 0.015625 146.984375 Z M 0.015625 0.015625 " clip-rule="nonzero"/></clipPath><clipPath id="5719edbdce"><path d="M 73.5 0.015625 C 32.917969 0.015625 0.015625 32.917969 0.015625 73.5 C 0.015625 114.082031 32.917969 146.984375 73.5 146.984375 C 114.082031 146.984375 146.984375 114.082031 146.984375 73.5 C 146.984375 32.917969 114.082031 0.015625 73.5 0.015625 Z M 73.5 0.015625 " clip-rule="nonzero"/></clipPath><clipPath id="451d6cdf9d"><rect x="0" width="147" y="0" height="147"/></clipPath><clipPath id="19f1994274"><path d="M 145 135.066406 L 203 135.066406 L 203 201 L 145 201 Z M 145 135.066406 " clip-rule="nonzero"/></clipPath><clipPath id="3d7f4a9c00"><path d="M 144 135.066406 L 160 135.066406 L 160 152 L 144 152 Z M 144 135.066406 " clip-rule="nonzero"/></clipPath><clipPath id="57568fd4cc"><path d="M 193 191 L 236.75 191 L 236.75 240.066406 L 193 240.066406 Z M 193 191 " clip-rule="nonzero"/></clipPath></defs><g clip-path="url(#8b50bc7248)"><g clip-path="url(#b0f59f0e52)"><g transform="matrix(1, 0, 0, 1, 114, 114)"><g clip-path="url(#451d6cdf9d)"><g clip-path="url(#66c9907d6b)"><g clip-path="url(#5719edbdce)"><path fill="#bea1f7" d="M 0.015625 0.015625 L 146.984375 0.015625 L 146.984375 146.984375 L 0.015625 146.984375 Z M 0.015625 0.015625 " fill-opacity="1" fill-rule="nonzero"/></g></g></g></g></g></g><path fill="#e25152" d="M 183.855469 158.929688 C 183.410156 158.519531 199.246094 160.222656 207.320312 170.285156 C 215.398438 180.347656 217.347656 190.746094 217.347656 190.746094 C 217.347656 190.746094 207.945312 184.019531 200.300781 187.214844 C 200.289062 187.214844 191.984375 166.515625 183.855469 158.929688 Z M 183.855469 158.929688 " fill-opacity="1" fill-rule="nonzero"/><path fill="#e25152" d="M 162.183594 178.328125 C 162.183594 178.328125 156.785156 200.195312 189.46875 215.148438 C 189.46875 215.148438 183.816406 202.078125 188.507812 197.921875 C 188.507812 197.921875 175.457031 189.84375 170.609375 185.71875 C 165.761719 181.597656 162.183594 178.328125 162.183594 178.328125 Z M 162.183594 178.328125 " fill-opacity="1" fill-rule="nonzero"/><g clip-path="url(#19f1994274)"><path fill="#dcdcdc" d="M 192.496094 200.230469 C 192.496094 200.230469 138.625 176.160156 145.671875 135.972656 C 145.671875 135.972656 182.019531 135.066406 202.828125 191.085938 Z M 192.496094 200.230469 " fill-opacity="1" fill-rule="nonzero"/></g><path fill="#6c364a" d="M 188.261719 198.148438 L 201.1875 186.847656 C 201.1875 186.847656 203.707031 190.472656 202.699219 191.3125 C 202.007812 191.902344 192.367188 200.460938 192.367188 200.460938 Z M 188.261719 198.148438 " fill-opacity="1" fill-rule="nonzero"/><g clip-path="url(#3d7f4a9c00)"><path fill="#e25152" d="M 145.863281 151.351562 C 145.863281 151.351562 143.8125 142.710938 145.644531 135.511719 C 145.644531 135.511719 152.636719 136.296875 159.339844 139.054688 Z M 145.863281 151.351562 " fill-opacity="1" fill-rule="nonzero"/></g><g clip-path="url(#57568fd4cc)"><path fill="#f26522" d="M 193.054688 199.769531 C 193.054688 199.769531 212.910156 232.179688 236.640625 240.070312 C 236.640625 240.070312 227.0625 207.523438 202.234375 191.648438 Z M 193.054688 199.769531 " fill-opacity="1" fill-rule="nonzero"/></g><path fill="#fcb22c" d="M 194.347656 198.625 C 194.347656 198.625 199.980469 208.394531 221.761719 223.296875 C 221.761719 223.296875 213.660156 203.019531 200.878906 192.847656 Z M 194.347656 198.625 " fill-opacity="1" fill-rule="nonzero"/><path fill="#feeb81" d="M 195.054688 198.039062 C 195.054688 198.039062 200.660156 203.742188 204.222656 203.539062 C 204.222656 203.539062 204.582031 197.675781 200.1875 193.449219 Z M 195.054688 198.039062 " fill-opacity="1" fill-rule="nonzero"/><path fill="#6c364a" d="M 173.699219 159.734375 C 173.699219 160.296875 173.644531 160.851562 173.535156 161.40625 C 173.425781 161.957031 173.261719 162.492188 173.046875 163.011719 C 172.832031 163.53125 172.566406 164.027344 172.253906 164.496094 C 171.941406 164.960938 171.582031 165.394531 171.183594 165.792969 C 170.785156 166.191406 170.351562 166.546875 169.882812 166.859375 C 169.417969 167.171875 168.921875 167.4375 168.402344 167.652344 C 167.878906 167.867188 167.34375 168.03125 166.789062 168.140625 C 166.238281 168.25 165.679688 168.304688 165.117188 168.304688 C 164.554688 168.304688 163.996094 168.25 163.441406 168.140625 C 162.890625 168.03125 162.351562 167.867188 161.832031 167.652344 C 161.3125 167.4375 160.816406 167.171875 160.347656 166.859375 C 159.878906 166.546875 159.445312 166.191406 159.046875 165.792969 C 158.648438 165.394531 158.292969 164.960938 157.980469 164.496094 C 157.667969 164.027344 157.402344 163.53125 157.1875 163.011719 C 156.972656 162.492188 156.808594 161.957031 156.699219 161.40625 C 156.589844 160.851562 156.535156 160.296875 156.535156 159.734375 C 156.535156 159.167969 156.589844 158.613281 156.699219 158.058594 C 156.808594 157.507812 156.972656 156.972656 157.1875 156.453125 C 157.402344 155.933594 157.667969 155.4375 157.980469 154.96875 C 158.292969 154.503906 158.648438 154.070312 159.046875 153.671875 C 159.445312 153.273438 159.878906 152.917969 160.347656 152.605469 C 160.816406 152.292969 161.3125 152.027344 161.832031 151.8125 C 162.351562 151.597656 162.890625 151.433594 163.441406 151.324219 C 163.996094 151.214844 164.554688 151.160156 165.117188 151.160156 C 165.679688 151.160156 166.238281 151.214844 166.789062 151.324219 C 167.34375 151.433594 167.878906 151.597656 168.402344 151.8125 C 168.921875 152.027344 169.417969 152.292969 169.882812 152.605469 C 170.351562 152.917969 170.785156 153.273438 171.183594 153.671875 C 171.582031 154.070312 171.941406 154.503906 172.253906 154.96875 C 172.566406 155.4375 172.832031 155.933594 173.046875 156.453125 C 173.261719 156.972656 173.425781 157.507812 173.535156 158.058594 C 173.644531 158.613281 173.699219 159.167969 173.699219 159.734375 Z M 173.699219 159.734375 " fill-opacity="1" fill-rule="nonzero"/><path fill="#7fd0db" d="M 170.164062 155.257812 C 170.4375 155.566406 170.675781 155.898438 170.882812 156.257812 C 171.089844 156.617188 171.257812 156.992188 171.386719 157.386719 C 171.515625 157.78125 171.605469 158.1875 171.652344 158.601562 C 171.703125 159.015625 171.707031 159.433594 171.675781 159.855469 C 171.640625 160.273438 171.566406 160.691406 171.449219 161.097656 C 171.332031 161.507812 171.179688 161.902344 170.984375 162.285156 C 170.792969 162.667969 170.5625 163.027344 170.300781 163.367188 C 170.039062 163.707031 169.746094 164.023438 169.421875 164.308594 C 169.101562 164.59375 168.753906 164.84375 168.382812 165.066406 C 168.015625 165.285156 167.628906 165.46875 167.226562 165.613281 C 166.824219 165.757812 166.410156 165.863281 165.992188 165.929688 C 165.570312 165.996094 165.148438 166.019531 164.726562 166.003906 C 164.304688 165.988281 163.890625 165.929688 163.484375 165.832031 C 163.078125 165.734375 162.683594 165.597656 162.308594 165.421875 C 161.933594 165.246094 161.578125 165.035156 161.246094 164.785156 C 160.914062 164.539062 160.613281 164.261719 160.335938 163.953125 C 160.0625 163.644531 159.824219 163.308594 159.617188 162.953125 C 159.410156 162.59375 159.246094 162.214844 159.113281 161.820312 C 158.984375 161.425781 158.894531 161.023438 158.847656 160.605469 C 158.796875 160.191406 158.792969 159.773438 158.824219 159.355469 C 158.859375 158.933594 158.933594 158.519531 159.050781 158.109375 C 159.167969 157.703125 159.320312 157.304688 159.515625 156.925781 C 159.707031 156.542969 159.9375 156.179688 160.199219 155.839844 C 160.460938 155.5 160.753906 155.1875 161.078125 154.902344 C 161.398438 154.617188 161.746094 154.363281 162.117188 154.144531 C 162.484375 153.925781 162.871094 153.742188 163.273438 153.597656 C 163.675781 153.449219 164.089844 153.34375 164.507812 153.277344 C 164.929688 153.214844 165.351562 153.1875 165.773438 153.203125 C 166.195312 153.222656 166.609375 153.277344 167.015625 153.375 C 167.421875 153.476562 167.816406 153.613281 168.191406 153.789062 C 168.566406 153.964844 168.921875 154.175781 169.253906 154.421875 C 169.585938 154.667969 169.886719 154.949219 170.164062 155.257812 Z M 170.164062 155.257812 " fill-opacity="1" fill-rule="nonzero"/></svg>