<svg xmlns="http://www.w3.org/2000/svg" xmlns:xlink="http://www.w3.org/1999/xlink" width="500" zoomAndPan="magnify" viewBox="0 0 375 374.999991" height="500" preserveAspectRatio="xMidYMid meet" version="1.0"><defs><clipPath id="5c07baeca0"><path d="M 114.015625 114.015625 L 260.984375 114.015625 L 260.984375 260.984375 L 114.015625 260.984375 Z M 114.015625 114.015625 " clip-rule="nonzero"/></clipPath><clipPath id="561ba18ee6"><path d="M 187.5 114.015625 C 146.917969 114.015625 114.015625 146.917969 114.015625 187.5 C 114.015625 228.082031 146.917969 260.984375 187.5 260.984375 C 228.082031 260.984375 260.984375 228.082031 260.984375 187.5 C 260.984375 146.917969 228.082031 114.015625 187.5 114.015625 Z M 187.5 114.015625 " clip-rule="nonzero"/></clipPath><clipPath id="1ac9b99ba3"><path d="M 0.015625 0.015625 L 146.984375 0.015625 L 146.984375 146.984375 L 0.015625 146.984375 Z M 0.015625 0.015625 " clip-rule="nonzero"/></clipPath><clipPath id="20638a5c61"><path d="M 73.5 0.015625 C 32.917969 0.015625 0.015625 32.917969 0.015625 73.5 C 0.015625 114.082031 32.917969 146.984375 73.5 146.984375 C 114.082031 146.984375 146.984375 114.082031 146.984375 73.5 C 146.984375 32.917969 114.082031 0.015625 73.5 0.015625 Z M 73.5 0.015625 " clip-rule="nonzero"/></clipPath><clipPath id="7703845d8f"><rect x="0" width="147" y="0" height="147"/></clipPath><clipPath id="5e66cc958b"><path d="M 141.640625 134.484375 L 233.140625 134.484375 L 233.140625 240.234375 L 141.640625 240.234375 Z M 141.640625 134.484375 " clip-rule="nonzero"/></clipPath></defs><g clip-path="url(#5c07baeca0)"><g clip-path="url(#561ba18ee6)"><g transform="matrix(1, 0, 0, 1, 114, 114)"><g clip-path="url(#7703845d8f)"><g clip-path="url(#1ac9b99ba3)"><g clip-path="url(#20638a5c61)"><path fill="#bea1f7" d="M 0.015625 0.015625 L 146.984375 0.015625 L 146.984375 146.984375 L 0.015625 146.984375 Z M 0.015625 0.015625 " fill-opacity="1" fill-rule="nonzero"/></g></g></g></g></g></g><g clip-path="url(#5e66cc958b)"><path fill="#ffde59" d="M 229.378906 136.921875 C 231.921875 145.367188 233.351562 154.496094 233.351562 163.996094 C 233.351562 199.140625 214.289062 229.007812 187.527344 240.496094 C 160.765625 229.007812 141.640625 199.140625 141.640625 163.996094 C 141.640625 154.496094 143.066406 145.367188 145.613281 136.921875 C 148.90625 142.882812 156.667969 147.042969 165.730469 147.042969 C 175.914062 147.042969 184.484375 141.703125 186.84375 134.503906 L 188.148438 134.503906 C 190.507812 141.703125 199.074219 147.042969 209.257812 147.042969 C 218.324219 147.042969 226.085938 142.882812 229.378906 136.921875 Z M 229.378906 136.921875 " fill-opacity="1" fill-rule="evenodd"/></g><path fill="#ff751f" d="M 221.675781 156.296875 C 217.703125 157.664062 213.480469 158.347656 209.257812 158.347656 C 201.621094 158.347656 193.734375 156.046875 187.527344 151.578125 C 181.316406 156.046875 173.371094 158.347656 165.730469 158.347656 C 161.570312 158.347656 157.289062 157.664062 153.3125 156.296875 C 153.066406 158.90625 152.941406 161.449219 152.941406 163.996094 C 152.941406 189.144531 164.863281 215.78125 187.527344 227.953125 C 210.128906 215.78125 222.050781 189.144531 222.050781 163.996094 C 222.050781 161.449219 221.925781 158.90625 221.675781 156.296875 Z M 221.675781 156.296875 " fill-opacity="1" fill-rule="evenodd"/><path fill="#000000" d="M 187.527344 167.101562 L 194.109375 178.464844 L 206.898438 181.195312 L 198.144531 190.945312 L 199.511719 204.046875 L 187.527344 198.707031 L 175.480469 204.046875 L 176.847656 190.945312 L 168.089844 181.195312 L 180.945312 178.464844 Z M 187.527344 167.101562 " fill-opacity="1" fill-rule="evenodd"/></svg>