<svg xmlns="http://www.w3.org/2000/svg" xmlns:xlink="http://www.w3.org/1999/xlink" width="500" zoomAndPan="magnify" viewBox="0 0 375 374.999991" height="500" preserveAspectRatio="xMidYMid meet" version="1.0"><defs><filter x="0%" y="0%" width="100%" height="100%" id="fc808492cc"><feColorMatrix values="0 0 0 0 1 0 0 0 0 1 0 0 0 0 1 0 0 0 1 0" color-interpolation-filters="sRGB"/></filter><clipPath id="c44be9134e"><path d="M 114.015625 114.015625 L 260.984375 114.015625 L 260.984375 260.984375 L 114.015625 260.984375 Z M 114.015625 114.015625 " clip-rule="nonzero"/></clipPath><clipPath id="e5353f0f95"><path d="M 187.5 114.015625 C 146.917969 114.015625 114.015625 146.917969 114.015625 187.5 C 114.015625 228.082031 146.917969 260.984375 187.5 260.984375 C 228.082031 260.984375 260.984375 228.082031 260.984375 187.5 C 260.984375 146.917969 228.082031 114.015625 187.5 114.015625 Z M 187.5 114.015625 " clip-rule="nonzero"/></clipPath><clipPath id="15bdd411eb"><path d="M 0.015625 0.015625 L 146.984375 0.015625 L 146.984375 146.984375 L 0.015625 146.984375 Z M 0.015625 0.015625 " clip-rule="nonzero"/></clipPath><clipPath id="7bd48c2204"><path d="M 73.5 0.015625 C 32.917969 0.015625 0.015625 32.917969 0.015625 73.5 C 0.015625 114.082031 32.917969 146.984375 73.5 146.984375 C 114.082031 146.984375 146.984375 114.082031 146.984375 73.5 C 146.984375 32.917969 114.082031 0.015625 73.5 0.015625 Z M 73.5 0.015625 " clip-rule="nonzero"/></clipPath><clipPath id="b1992c4803"><rect x="0" width="147" y="0" height="147"/></clipPath><clipPath id="95972ea38c"><path d="M 163 133.242188 L 217 133.242188 L 217 186 L 163 186 Z M 163 133.242188 " clip-rule="nonzero"/></clipPath><clipPath id="46673d9e60"><path d="M 177 236 L 184 236 L 184 241.992188 L 177 241.992188 Z M 177 236 " clip-rule="nonzero"/></clipPath><clipPath id="10e76d8c7d"><path d="M 143.007812 164 L 153 164 L 153 174 L 143.007812 174 Z M 143.007812 164 " clip-rule="nonzero"/></clipPath><clipPath id="adb91525de"><path d="M 162 133.242188 L 191 133.242188 L 191 187 L 162 187 Z M 162 133.242188 " clip-rule="nonzero"/></clipPath><mask id="8be51937e2"><g filter="url(#fc808492cc)"><rect x="-37.5" width="450" fill="#000000" y="-37.499999" height="449.999989" fill-opacity="0.1"/></g></mask><clipPath id="865f031e38"><path d="M 1 0.242188 L 28 0.242188 L 28 53 L 1 53 Z M 1 0.242188 " clip-rule="nonzero"/></clipPath><clipPath id="2ebd942037"><rect x="0" width="29" y="0" height="54"/></clipPath><mask id="0975c9f60a"><g filter="url(#fc808492cc)"><rect x="-37.5" width="450" fill="#000000" y="-37.499999" height="449.999989" fill-opacity="0.1"/></g></mask><clipPath id="b723b5b0ca"><path d="M 1 1 L 16 1 L 16 30.519531 L 1 30.519531 Z M 1 1 " clip-rule="nonzero"/></clipPath><clipPath id="9c25d80a70"><rect x="0" width="17" y="0" height="31"/></clipPath><mask id="9c65d35141"><g filter="url(#fc808492cc)"><rect x="-37.5" width="450" fill="#000000" y="-37.499999" height="449.999989" fill-opacity="0.1"/></g></mask><clipPath id="e03fdc8dff"><path d="M 0 0.558594 L 6.71875 0.558594 L 6.71875 13 L 0 13 Z M 0 0.558594 " clip-rule="nonzero"/></clipPath><clipPath id="1353ee7360"><rect x="0" width="7" y="0" height="14"/></clipPath><clipPath id="ccf6f413d4"><path d="M 177 236 L 181 236 L 181 241.992188 L 177 241.992188 Z M 177 236 " clip-rule="nonzero"/></clipPath><mask id="6981c3d041"><g filter="url(#fc808492cc)"><rect x="-37.5" width="450" fill="#000000" y="-37.499999" height="449.999989" fill-opacity="0.1"/></g></mask><clipPath id="c5672ff7bb"><path d="M 0.839844 0.160156 L 3.960938 0.160156 L 3.960938 5.921875 L 0.839844 5.921875 Z M 0.839844 0.160156 " clip-rule="nonzero"/></clipPath><clipPath id="508d195794"><rect x="0" width="4" y="0" height="6"/></clipPath><mask id="fc8573e3ab"><g filter="url(#fc808492cc)"><rect x="-37.5" width="450" fill="#000000" y="-37.499999" height="449.999989" fill-opacity="0.1"/></g></mask><clipPath id="2771caaba6"><path d="M 0.238281 0.199219 L 5.519531 0.199219 L 5.519531 9.558594 L 0.238281 9.558594 Z M 0.238281 0.199219 " clip-rule="nonzero"/></clipPath><clipPath id="05d4ce2a5f"><rect x="0" width="6" y="0" height="10"/></clipPath><clipPath id="83a57775ea"><path d="M 143.007812 163 L 149 163 L 149 174 L 143.007812 174 Z M 143.007812 163 " clip-rule="nonzero"/></clipPath><mask id="7b4d668448"><g filter="url(#fc808492cc)"><rect x="-37.5" width="450" fill="#000000" y="-37.499999" height="449.999989" fill-opacity="0.1"/></g></mask><clipPath id="a0dc40612d"><path d="M 0.0390625 1 L 5 1 L 5 10.519531 L 0.0390625 10.519531 Z M 0.0390625 1 " clip-rule="nonzero"/></clipPath><clipPath id="280dd64c1c"><rect x="0" width="6" y="0" height="11"/></clipPath><mask id="983cb179f6"><g filter="url(#fc808492cc)"><rect x="-37.5" width="450" fill="#000000" y="-37.499999" height="449.999989" fill-opacity="0.1"/></g></mask><clipPath id="acbb2d6804"><path d="M 0.199219 0.601562 L 18.921875 0.601562 L 18.921875 37 L 0.199219 37 Z M 0.199219 0.601562 " clip-rule="nonzero"/></clipPath><clipPath id="facb6625f4"><rect x="0" width="19" y="0" height="38"/></clipPath></defs><g clip-path="url(#c44be9134e)"><g clip-path="url(#e5353f0f95)"><g transform="matrix(1, 0, 0, 1, 114, 114)"><g clip-path="url(#b1992c4803)"><g clip-path="url(#15bdd411eb)"><g clip-path="url(#7bd48c2204)"><path fill="#d3ff99" d="M 0.015625 0.015625 L 146.984375 0.015625 L 146.984375 146.984375 L 0.015625 146.984375 Z M 0.015625 0.015625 " fill-opacity="1" fill-rule="nonzero"/></g></g></g></g></g></g><g clip-path="url(#95972ea38c)"><path fill="#ff751f" d="M 191.53125 134.21875 L 199.707031 149.011719 C 199.886719 149.339844 200.140625 149.589844 200.464844 149.773438 L 215.367188 157.875 C 216.707031 158.597656 216.707031 160.476562 215.367188 161.199219 L 200.464844 169.300781 C 200.140625 169.484375 199.886719 169.738281 199.707031 170.0625 L 191.53125 184.855469 C 190.808594 186.15625 188.890625 186.15625 188.167969 184.855469 L 179.996094 170.0625 C 179.8125 169.738281 179.5625 169.484375 179.234375 169.300781 L 164.335938 161.238281 C 162.996094 160.515625 162.996094 158.632812 164.335938 157.910156 L 179.234375 149.808594 C 179.5625 149.628906 179.8125 149.375 179.996094 149.046875 L 188.167969 134.257812 C 188.890625 132.917969 190.808594 132.917969 191.53125 134.21875 Z M 191.53125 134.21875 " fill-opacity="1" fill-rule="nonzero"/></g><path fill="#ff751f" d="M 211.894531 192.558594 L 216.453125 200.839844 C 216.5625 201.023438 216.707031 201.167969 216.886719 201.273438 L 225.203125 205.796875 C 225.964844 206.195312 225.964844 207.242188 225.203125 207.675781 L 216.886719 212.199219 C 216.707031 212.304688 216.5625 212.449219 216.453125 212.632812 L 211.894531 220.914062 C 211.496094 221.636719 210.410156 221.636719 210.015625 220.914062 L 205.457031 212.632812 C 205.347656 212.449219 205.203125 212.304688 205.023438 212.199219 L 196.703125 207.675781 C 195.945312 207.277344 195.945312 206.230469 196.703125 205.796875 L 205.023438 201.273438 C 205.203125 201.167969 205.347656 201.023438 205.457031 200.839844 L 210.015625 192.558594 C 210.410156 191.835938 211.496094 191.835938 211.894531 192.558594 Z M 211.894531 192.558594 " fill-opacity="1" fill-rule="nonzero"/><path fill="#ff751f" d="M 186.792969 214.910156 L 188.675781 218.273438 C 188.710938 218.347656 188.785156 218.417969 188.855469 218.453125 L 192.253906 220.300781 C 192.546875 220.480469 192.546875 220.914062 192.253906 221.058594 L 188.855469 222.902344 C 188.785156 222.941406 188.710938 223.011719 188.675781 223.085938 L 186.792969 226.449219 C 186.613281 226.738281 186.179688 226.738281 186.035156 226.449219 L 184.152344 223.085938 C 184.117188 223.011719 184.046875 222.941406 183.972656 222.902344 L 180.574219 221.058594 C 180.285156 220.878906 180.285156 220.445312 180.574219 220.300781 L 183.972656 218.453125 C 184.046875 218.417969 184.117188 218.347656 184.152344 218.273438 L 186.035156 214.910156 C 186.179688 214.621094 186.648438 214.621094 186.792969 214.910156 Z M 186.792969 214.910156 " fill-opacity="1" fill-rule="nonzero"/><g clip-path="url(#46673d9e60)"><path fill="#ff751f" d="M 180.71875 236.683594 L 181.515625 238.128906 C 181.515625 238.167969 181.550781 238.203125 181.585938 238.203125 L 183.03125 239 C 183.175781 239.070312 183.175781 239.25 183.03125 239.324219 L 181.585938 240.121094 C 181.550781 240.121094 181.515625 240.15625 181.515625 240.191406 L 180.71875 241.636719 C 180.644531 241.785156 180.464844 241.785156 180.394531 241.636719 L 179.597656 240.191406 C 179.597656 240.15625 179.5625 240.121094 179.523438 240.121094 L 178.078125 239.324219 C 177.933594 239.25 177.933594 239.070312 178.078125 239 L 179.523438 238.203125 C 179.5625 238.203125 179.597656 238.167969 179.597656 238.128906 L 180.394531 236.683594 C 180.464844 236.574219 180.644531 236.574219 180.71875 236.683594 Z M 180.71875 236.683594 " fill-opacity="1" fill-rule="nonzero"/></g><path fill="#ff751f" d="M 227.554688 181.5625 L 228.929688 184.09375 C 228.964844 184.167969 229.003906 184.203125 229.074219 184.238281 L 231.605469 185.613281 C 231.824219 185.722656 231.824219 186.046875 231.605469 186.191406 L 229.074219 187.566406 C 229.003906 187.605469 228.964844 187.640625 228.929688 187.710938 L 227.554688 190.242188 C 227.445312 190.460938 227.121094 190.460938 226.976562 190.242188 L 225.601562 187.710938 C 225.566406 187.640625 225.53125 187.605469 225.457031 187.566406 L 222.925781 186.191406 C 222.710938 186.085938 222.710938 185.757812 222.925781 185.613281 L 225.457031 184.238281 C 225.53125 184.203125 225.566406 184.167969 225.601562 184.09375 L 226.976562 181.5625 C 227.085938 181.347656 227.410156 181.347656 227.554688 181.5625 Z M 227.554688 181.5625 " fill-opacity="1" fill-rule="nonzero"/><g clip-path="url(#10e76d8c7d)"><path fill="#ff751f" d="M 148.023438 164.347656 L 149.398438 166.878906 C 149.433594 166.953125 149.46875 166.988281 149.542969 167.023438 L 152.074219 168.398438 C 152.289062 168.507812 152.289062 168.832031 152.074219 168.976562 L 149.542969 170.351562 C 149.46875 170.386719 149.433594 170.425781 149.398438 170.496094 L 148.023438 173.027344 C 147.914062 173.246094 147.589844 173.246094 147.445312 173.027344 L 146.070312 170.496094 C 146.03125 170.425781 145.996094 170.386719 145.925781 170.351562 L 143.394531 168.976562 C 143.175781 168.867188 143.175781 168.542969 143.394531 168.398438 L 145.925781 167.023438 C 145.996094 166.988281 146.03125 166.953125 146.070312 166.878906 L 147.445312 164.347656 C 147.589844 164.128906 147.914062 164.128906 148.023438 164.347656 Z M 148.023438 164.347656 " fill-opacity="1" fill-rule="nonzero"/></g><path fill="#ff751f" d="M 164.730469 178.671875 L 170.300781 188.761719 C 170.410156 188.976562 170.589844 189.160156 170.808594 189.265625 L 181.007812 194.800781 C 181.910156 195.308594 181.910156 196.574219 181.007812 197.078125 L 170.808594 202.613281 C 170.589844 202.722656 170.410156 202.902344 170.300781 203.121094 L 164.730469 213.210938 C 164.226562 214.113281 162.921875 214.113281 162.417969 213.210938 L 156.847656 203.121094 C 156.738281 202.902344 156.558594 202.722656 156.339844 202.613281 L 146.140625 197.117188 C 145.238281 196.609375 145.238281 195.34375 146.140625 194.835938 L 156.339844 189.304688 C 156.558594 189.195312 156.738281 189.015625 156.847656 188.796875 L 162.417969 178.707031 C 162.921875 177.765625 164.226562 177.765625 164.730469 178.671875 Z M 164.730469 178.671875 " fill-opacity="1" fill-rule="nonzero"/><g clip-path="url(#adb91525de)"><g mask="url(#8be51937e2)"><g transform="matrix(1, 0, 0, 1, 162, 133)"><g clip-path="url(#2ebd942037)"><g clip-path="url(#865f031e38)"><path fill="#000000" d="M 27.832031 0.242188 L 27.832031 52.867188 C 27.179688 52.867188 26.53125 52.542969 26.132812 51.890625 L 17.957031 37.097656 C 17.777344 36.773438 17.523438 36.519531 17.199219 36.339844 L 2.335938 28.238281 C 0.996094 27.515625 0.996094 25.632812 2.335938 24.910156 L 17.269531 16.808594 C 17.597656 16.628906 17.851562 16.375 18.03125 16.046875 L 26.203125 1.257812 C 26.53125 0.570312 27.179688 0.242188 27.832031 0.242188 Z M 27.832031 0.242188 " fill-opacity="1" fill-rule="nonzero"/></g></g></g></g></g><g mask="url(#0975c9f60a)"><g transform="matrix(1, 0, 0, 1, 195, 191)"><g clip-path="url(#9c25d80a70)"><g clip-path="url(#b723b5b0ca)"><path fill="#000000" d="M 15.953125 1.015625 L 15.953125 30.421875 C 15.59375 30.421875 15.230469 30.238281 15.015625 29.878906 L 10.457031 21.597656 C 10.347656 21.414062 10.203125 21.269531 10.023438 21.160156 L 1.667969 16.640625 C 0.910156 16.242188 0.910156 15.195312 1.667969 14.761719 L 10.023438 10.238281 C 10.203125 10.128906 10.347656 9.984375 10.457031 9.804688 L 15.015625 1.523438 C 15.230469 1.195312 15.59375 1.015625 15.953125 1.015625 Z M 15.953125 1.015625 " fill-opacity="1" fill-rule="nonzero"/></g></g></g></g><g mask="url(#9c65d35141)"><g transform="matrix(1, 0, 0, 1, 180, 214)"><g clip-path="url(#1353ee7360)"><g clip-path="url(#e03fdc8dff)"><path fill="#000000" d="M 6.433594 0.695312 L 6.433594 12.703125 C 6.289062 12.703125 6.144531 12.628906 6.035156 12.484375 L 4.152344 9.085938 C 4.117188 9.011719 4.046875 8.941406 3.972656 8.902344 L 0.574219 7.058594 C 0.285156 6.878906 0.285156 6.445312 0.574219 6.300781 L 3.972656 4.453125 C 4.046875 4.417969 4.117188 4.347656 4.152344 4.273438 L 6.035156 0.910156 C 6.105469 0.765625 6.25 0.695312 6.433594 0.695312 Z M 6.433594 0.695312 " fill-opacity="1" fill-rule="nonzero"/></g></g></g></g><g clip-path="url(#ccf6f413d4)"><g mask="url(#6981c3d041)"><g transform="matrix(1, 0, 0, 1, 177, 236)"><g clip-path="url(#508d195794)"><g clip-path="url(#c5672ff7bb)"><path fill="#000000" d="M 3.539062 0.609375 L 3.539062 5.746094 C 3.464844 5.746094 3.394531 5.710938 3.355469 5.636719 L 2.5625 4.191406 C 2.5625 4.15625 2.523438 4.121094 2.488281 4.121094 L 1.042969 3.324219 C 0.898438 3.25 0.898438 3.070312 1.042969 3 L 2.488281 2.203125 C 2.523438 2.203125 2.5625 2.167969 2.5625 2.128906 L 3.355469 0.683594 C 3.429688 0.609375 3.464844 0.609375 3.539062 0.609375 Z M 3.539062 0.609375 " fill-opacity="1" fill-rule="nonzero"/></g></g></g></g></g><g mask="url(#fc8573e3ab)"><g transform="matrix(1, 0, 0, 1, 222, 181)"><g clip-path="url(#05d4ce2a5f)"><g clip-path="url(#2771caaba6)"><path fill="#000000" d="M 5.265625 0.382812 L 5.265625 9.351562 C 5.15625 9.351562 5.050781 9.28125 4.976562 9.171875 L 3.601562 6.640625 C 3.566406 6.605469 3.53125 6.53125 3.457031 6.496094 L 0.925781 5.121094 C 0.710938 5.011719 0.710938 4.6875 0.925781 4.542969 L 3.457031 3.167969 C 3.492188 3.132812 3.566406 3.09375 3.601562 3.023438 L 4.976562 0.492188 C 5.011719 0.457031 5.121094 0.382812 5.265625 0.382812 Z M 5.265625 0.382812 " fill-opacity="1" fill-rule="nonzero"/></g></g></g></g><g clip-path="url(#83a57775ea)"><g mask="url(#7b4d668448)"><g transform="matrix(1, 0, 0, 1, 143, 163)"><g clip-path="url(#280dd64c1c)"><g clip-path="url(#a0dc40612d)"><path fill="#000000" d="M 4.734375 1.203125 L 4.734375 10.171875 C 4.625 10.171875 4.515625 10.101562 4.445312 9.992188 L 3.070312 7.460938 C 3.03125 7.425781 2.996094 7.351562 2.925781 7.316406 L 0.394531 5.941406 C 0.175781 5.832031 0.175781 5.507812 0.394531 5.363281 L 2.925781 3.988281 C 2.960938 3.953125 3.03125 3.914062 3.070312 3.84375 L 4.445312 1.3125 C 4.515625 1.238281 4.625 1.203125 4.734375 1.203125 Z M 4.734375 1.203125 " fill-opacity="1" fill-rule="nonzero"/></g></g></g></g></g><g mask="url(#983cb179f6)"><g transform="matrix(1, 0, 0, 1, 145, 177)"><g clip-path="url(#facb6625f4)"><g clip-path="url(#acbb2d6804)"><path fill="#000000" d="M 18.574219 0.984375 L 18.574219 36.898438 C 18.140625 36.898438 17.671875 36.679688 17.417969 36.210938 L 11.847656 26.121094 C 11.738281 25.902344 11.558594 25.722656 11.339844 25.613281 L 1.140625 20.117188 C 0.238281 19.609375 0.238281 18.34375 1.140625 17.835938 L 11.339844 12.304688 C 11.558594 12.195312 11.738281 12.015625 11.847656 11.796875 L 17.417969 1.707031 C 17.671875 1.234375 18.140625 0.984375 18.574219 0.984375 Z M 18.574219 0.984375 " fill-opacity="1" fill-rule="nonzero"/></g></g></g></g></svg>