<svg xmlns="http://www.w3.org/2000/svg" xmlns:xlink="http://www.w3.org/1999/xlink" width="500" zoomAndPan="magnify" viewBox="0 0 375 374.999991" height="500" preserveAspectRatio="xMidYMid meet" version="1.0"><defs><clipPath id="918c0c931a"><path d="M 114.015625 114.015625 L 260.984375 114.015625 L 260.984375 260.984375 L 114.015625 260.984375 Z M 114.015625 114.015625 " clip-rule="nonzero"/></clipPath><clipPath id="f457ae1097"><path d="M 187.5 114.015625 C 146.917969 114.015625 114.015625 146.917969 114.015625 187.5 C 114.015625 228.082031 146.917969 260.984375 187.5 260.984375 C 228.082031 260.984375 260.984375 228.082031 260.984375 187.5 C 260.984375 146.917969 228.082031 114.015625 187.5 114.015625 Z M 187.5 114.015625 " clip-rule="nonzero"/></clipPath><clipPath id="022633b677"><path d="M 0.015625 0.015625 L 146.984375 0.015625 L 146.984375 146.984375 L 0.015625 146.984375 Z M 0.015625 0.015625 " clip-rule="nonzero"/></clipPath><clipPath id="079df549ad"><path d="M 73.5 0.015625 C 32.917969 0.015625 0.015625 32.917969 0.015625 73.5 C 0.015625 114.082031 32.917969 146.984375 73.5 146.984375 C 114.082031 146.984375 146.984375 114.082031 146.984375 73.5 C 146.984375 32.917969 114.082031 0.015625 73.5 0.015625 Z M 73.5 0.015625 " clip-rule="nonzero"/></clipPath><clipPath id="8799351d5e"><rect x="0" width="147" y="0" height="147"/></clipPath><clipPath id="c9715fa27c"><path d="M 134 151.238281 L 241 151.238281 L 241 183 L 134 183 Z M 134 151.238281 " clip-rule="nonzero"/></clipPath><clipPath id="731cf65762"><path d="M 182 213 L 193 213 L 193 223.988281 L 182 223.988281 Z M 182 213 " clip-rule="nonzero"/></clipPath></defs><g clip-path="url(#918c0c931a)"><g clip-path="url(#f457ae1097)"><g transform="matrix(1, 0, 0, 1, 114, 114)"><g clip-path="url(#8799351d5e)"><g clip-path="url(#022633b677)"><g clip-path="url(#079df549ad)"><path fill="#d3ff99" d="M 0.015625 0.015625 L 146.984375 0.015625 L 146.984375 146.984375 L 0.015625 146.984375 Z M 0.015625 0.015625 " fill-opacity="1" fill-rule="nonzero"/></g></g></g></g></g></g><g clip-path="url(#c9715fa27c)"><path fill="#5271ff" d="M 238.6875 172.453125 C 231.773438 165.539062 223.714844 160.183594 214.730469 156.539062 C 206.054688 153.015625 196.890625 151.230469 187.492188 151.230469 C 178.09375 151.230469 168.929688 153.015625 160.253906 156.539062 C 151.269531 160.183594 143.210938 165.539062 136.296875 172.453125 C 133.984375 174.765625 133.984375 178.515625 136.296875 180.828125 C 138.609375 183.144531 142.359375 183.144531 144.671875 180.828125 C 168.28125 157.21875 206.699219 157.21875 230.3125 180.828125 C 231.46875 181.988281 232.984375 182.566406 234.5 182.566406 C 236.015625 182.566406 237.53125 181.988281 238.6875 180.828125 C 241 178.515625 241 174.765625 238.6875 172.453125 Z M 238.6875 172.453125 " fill-opacity="1" fill-rule="nonzero"/></g><path fill="#5271ff" d="M 187.484375 172.203125 C 172.980469 172.203125 159.339844 177.859375 149.070312 188.128906 C 146.757812 190.441406 146.757812 194.191406 149.070312 196.503906 C 151.382812 198.816406 155.132812 198.816406 157.445312 196.503906 C 174.011719 179.941406 200.960938 179.941406 217.519531 196.503906 C 218.675781 197.660156 220.195312 198.238281 221.710938 198.238281 C 223.226562 198.238281 224.742188 197.660156 225.898438 196.503906 C 228.210938 194.191406 228.210938 190.441406 225.898438 188.128906 C 215.628906 177.859375 201.988281 172.203125 187.484375 172.203125 Z M 187.484375 172.203125 " fill-opacity="1" fill-rule="nonzero"/><path fill="#5271ff" d="M 187.484375 193.625 C 178.621094 193.625 170.28125 197.082031 164.007812 203.355469 C 161.695312 205.667969 161.695312 209.417969 164.007812 211.730469 C 166.320312 214.042969 170.070312 214.042969 172.382812 211.730469 C 180.710938 203.40625 194.257812 203.40625 202.585938 211.730469 C 203.742188 212.886719 205.257812 213.464844 206.773438 213.464844 C 208.289062 213.464844 209.804688 212.886719 210.960938 211.730469 C 213.273438 209.417969 213.273438 205.667969 210.960938 203.355469 C 204.6875 197.082031 196.347656 193.625 187.484375 193.625 Z M 187.484375 193.625 " fill-opacity="1" fill-rule="nonzero"/><g clip-path="url(#731cf65762)"><path fill="#5271ff" d="M 192.378906 218.835938 C 192.378906 219.160156 192.347656 219.480469 192.285156 219.796875 C 192.222656 220.113281 192.128906 220.421875 192.003906 220.71875 C 191.882812 221.019531 191.730469 221.300781 191.550781 221.570312 C 191.371094 221.839844 191.167969 222.085938 190.9375 222.316406 C 190.710938 222.542969 190.460938 222.746094 190.195312 222.925781 C 189.925781 223.105469 189.640625 223.257812 189.34375 223.382812 C 189.046875 223.503906 188.738281 223.597656 188.421875 223.660156 C 188.105469 223.722656 187.785156 223.757812 187.460938 223.757812 C 187.136719 223.757812 186.816406 223.722656 186.5 223.660156 C 186.183594 223.597656 185.878906 223.503906 185.578125 223.382812 C 185.28125 223.257812 184.996094 223.105469 184.726562 222.925781 C 184.460938 222.746094 184.210938 222.542969 183.984375 222.316406 C 183.753906 222.085938 183.550781 221.839844 183.371094 221.570312 C 183.191406 221.300781 183.039062 221.019531 182.917969 220.71875 C 182.792969 220.421875 182.699219 220.113281 182.636719 219.796875 C 182.574219 219.480469 182.542969 219.160156 182.542969 218.835938 C 182.542969 218.515625 182.574219 218.195312 182.636719 217.878906 C 182.699219 217.5625 182.792969 217.253906 182.917969 216.953125 C 183.039062 216.65625 183.191406 216.371094 183.371094 216.105469 C 183.550781 215.835938 183.753906 215.585938 183.984375 215.359375 C 184.210938 215.128906 184.460938 214.925781 184.726562 214.746094 C 184.996094 214.566406 185.28125 214.417969 185.578125 214.292969 C 185.878906 214.167969 186.183594 214.074219 186.5 214.011719 C 186.816406 213.949219 187.136719 213.917969 187.460938 213.917969 C 187.785156 213.917969 188.105469 213.949219 188.421875 214.011719 C 188.738281 214.074219 189.046875 214.167969 189.34375 214.292969 C 189.640625 214.417969 189.925781 214.566406 190.195312 214.746094 C 190.460938 214.925781 190.710938 215.128906 190.9375 215.359375 C 191.167969 215.585938 191.371094 215.835938 191.550781 216.105469 C 191.730469 216.371094 191.882812 216.65625 192.003906 216.953125 C 192.128906 217.253906 192.222656 217.5625 192.285156 217.878906 C 192.347656 218.195312 192.378906 218.515625 192.378906 218.835938 Z M 192.378906 218.835938 " fill-opacity="1" fill-rule="nonzero"/></g></svg>