<svg xmlns="http://www.w3.org/2000/svg" xmlns:xlink="http://www.w3.org/1999/xlink" width="1080" zoomAndPan="magnify" viewBox="0 0 810 1012.49997" height="1350" preserveAspectRatio="xMidYMid meet" version="1.0"><defs><clipPath id="bbc47e4cb1"><path d="M 198.550781 299.550781 L 611.449219 299.550781 L 611.449219 712.449219 L 198.550781 712.449219 Z M 198.550781 299.550781 " clip-rule="nonzero"/></clipPath><clipPath id="1fc55e114a"><path d="M 405 299.550781 C 290.980469 299.550781 198.550781 391.980469 198.550781 506 C 198.550781 620.019531 290.980469 712.449219 405 712.449219 C 519.019531 712.449219 611.449219 620.019531 611.449219 506 C 611.449219 391.980469 519.019531 299.550781 405 299.550781 Z M 405 299.550781 " clip-rule="nonzero"/></clipPath><clipPath id="23ec692331"><path d="M 0.550781 0.550781 L 413.449219 0.550781 L 413.449219 413.449219 L 0.550781 413.449219 Z M 0.550781 0.550781 " clip-rule="nonzero"/></clipPath><clipPath id="881925f4a6"><path d="M 207 0.550781 C 92.980469 0.550781 0.550781 92.980469 0.550781 207 C 0.550781 321.019531 92.980469 413.449219 207 413.449219 C 321.019531 413.449219 413.449219 321.019531 413.449219 207 C 413.449219 92.980469 321.019531 0.550781 207 0.550781 Z M 207 0.550781 " clip-rule="nonzero"/></clipPath><linearGradient x1="0" gradientTransform="matrix(1.612875, 0, 0, 1.612875, 0.551948, 0.552052)" y1="128" x2="256" gradientUnits="userSpaceOnUse" y2="128" id="35b77a0784"><stop stop-opacity="1" stop-color="rgb(0%, 0%, 0%)" offset="0"/><stop stop-opacity="1" stop-color="rgb(0.305176%, 0.221252%, 0.0335693%)" offset="0.00390625"/><stop stop-opacity="1" stop-color="rgb(0.611877%, 0.444031%, 0.0671387%)" offset="0.0078125"/><stop stop-opacity="1" stop-color="rgb(0.918579%, 0.665283%, 0.100708%)" offset="0.0117188"/><stop stop-opacity="1" stop-color="rgb(1.225281%, 0.888062%, 0.134277%)" offset="0.015625"/><stop stop-opacity="1" stop-color="rgb(1.530457%, 1.109314%, 0.167847%)" offset="0.0195312"/><stop stop-opacity="1" stop-color="rgb(1.837158%, 1.332092%, 0.201416%)" offset="0.0234375"/><stop stop-opacity="1" stop-color="rgb(2.14386%, 1.553345%, 0.234985%)" offset="0.0273438"/><stop stop-opacity="1" stop-color="rgb(2.450562%, 1.776123%, 0.268555%)" offset="0.03125"/><stop stop-opacity="1" stop-color="rgb(2.755737%, 1.997375%, 0.302124%)" offset="0.0351562"/><stop stop-opacity="1" stop-color="rgb(3.062439%, 2.220154%, 0.335693%)" offset="0.0390625"/><stop stop-opacity="1" stop-color="rgb(3.369141%, 2.441406%, 0.369263%)" offset="0.0429688"/><stop stop-opacity="1" stop-color="rgb(3.675842%, 2.664185%, 0.404358%)" offset="0.046875"/><stop stop-opacity="1" stop-color="rgb(3.981018%, 2.885437%, 0.437927%)" offset="0.0507812"/><stop stop-opacity="1" stop-color="rgb(4.28772%, 3.108215%, 0.471497%)" offset="0.0546875"/><stop stop-opacity="1" stop-color="rgb(4.594421%, 3.329468%, 0.505066%)" offset="0.0585938"/><stop stop-opacity="1" stop-color="rgb(4.901123%, 3.552246%, 0.538635%)" offset="0.0625"/><stop stop-opacity="1" stop-color="rgb(5.207825%, 3.775024%, 0.572205%)" offset="0.0664062"/><stop stop-opacity="1" stop-color="rgb(5.514526%, 3.997803%, 0.605774%)" offset="0.0703125"/><stop stop-opacity="1" stop-color="rgb(5.819702%, 4.219055%, 0.639343%)" offset="0.0742188"/><stop stop-opacity="1" stop-color="rgb(6.126404%, 4.441833%, 0.672913%)" offset="0.078125"/><stop stop-opacity="1" stop-color="rgb(6.433105%, 4.663086%, 0.706482%)" offset="0.0820312"/><stop stop-opacity="1" stop-color="rgb(6.739807%, 4.885864%, 0.741577%)" offset="0.0859375"/><stop stop-opacity="1" stop-color="rgb(7.044983%, 5.107117%, 0.775146%)" offset="0.0898438"/><stop stop-opacity="1" stop-color="rgb(7.351685%, 5.329895%, 0.808716%)" offset="0.09375"/><stop stop-opacity="1" stop-color="rgb(7.658386%, 5.551147%, 0.842285%)" offset="0.0976562"/><stop stop-opacity="1" stop-color="rgb(7.965088%, 5.773926%, 0.875854%)" offset="0.101562"/><stop stop-opacity="1" stop-color="rgb(8.270264%, 5.995178%, 0.909424%)" offset="0.105469"/><stop stop-opacity="1" stop-color="rgb(8.576965%, 6.217957%, 0.942993%)" offset="0.109375"/><stop stop-opacity="1" stop-color="rgb(8.883667%, 6.439209%, 0.976562%)" offset="0.113281"/><stop stop-opacity="1" stop-color="rgb(9.190369%, 6.661987%, 1.010132%)" offset="0.117188"/><stop stop-opacity="1" stop-color="rgb(9.495544%, 6.88324%, 1.043701%)" offset="0.121094"/><stop stop-opacity="1" stop-color="rgb(9.802246%, 7.106018%, 1.077271%)" offset="0.125"/><stop stop-opacity="1" stop-color="rgb(10.108948%, 7.328796%, 1.11084%)" offset="0.128906"/><stop stop-opacity="1" stop-color="rgb(10.415649%, 7.551575%, 1.145935%)" offset="0.132812"/><stop stop-opacity="1" stop-color="rgb(10.722351%, 7.772827%, 1.179504%)" offset="0.136719"/><stop stop-opacity="1" stop-color="rgb(11.029053%, 7.995605%, 1.213074%)" offset="0.140625"/><stop stop-opacity="1" stop-color="rgb(11.334229%, 8.216858%, 1.246643%)" offset="0.144531"/><stop stop-opacity="1" stop-color="rgb(11.64093%, 8.439636%, 1.280212%)" offset="0.148438"/><stop stop-opacity="1" stop-color="rgb(11.947632%, 8.660889%, 1.313782%)" offset="0.152344"/><stop stop-opacity="1" stop-color="rgb(12.254333%, 8.883667%, 1.347351%)" offset="0.15625"/><stop stop-opacity="1" stop-color="rgb(12.559509%, 9.104919%, 1.38092%)" offset="0.160156"/><stop stop-opacity="1" stop-color="rgb(12.866211%, 9.327698%, 1.41449%)" offset="0.164062"/><stop stop-opacity="1" stop-color="rgb(13.172913%, 9.54895%, 1.448059%)" offset="0.167969"/><stop stop-opacity="1" stop-color="rgb(13.479614%, 9.771729%, 1.483154%)" offset="0.171875"/><stop stop-opacity="1" stop-color="rgb(13.78479%, 9.992981%, 1.516724%)" offset="0.175781"/><stop stop-opacity="1" stop-color="rgb(14.091492%, 10.215759%, 1.550293%)" offset="0.179688"/><stop stop-opacity="1" stop-color="rgb(14.398193%, 10.437012%, 1.583862%)" offset="0.183594"/><stop stop-opacity="1" stop-color="rgb(14.704895%, 10.65979%, 1.617432%)" offset="0.1875"/><stop stop-opacity="1" stop-color="rgb(15.011597%, 10.882568%, 1.651001%)" offset="0.191406"/><stop stop-opacity="1" stop-color="rgb(15.318298%, 11.105347%, 1.68457%)" offset="0.195312"/><stop stop-opacity="1" stop-color="rgb(15.623474%, 11.326599%, 1.71814%)" offset="0.199219"/><stop stop-opacity="1" stop-color="rgb(15.930176%, 11.549377%, 1.751709%)" offset="0.203125"/><stop stop-opacity="1" stop-color="rgb(16.236877%, 11.77063%, 1.785278%)" offset="0.207031"/><stop stop-opacity="1" stop-color="rgb(16.543579%, 11.993408%, 1.820374%)" offset="0.210938"/><stop stop-opacity="1" stop-color="rgb(16.848755%, 12.214661%, 1.853943%)" offset="0.214844"/><stop stop-opacity="1" stop-color="rgb(17.155457%, 12.437439%, 1.887512%)" offset="0.21875"/><stop stop-opacity="1" stop-color="rgb(17.462158%, 12.658691%, 1.921082%)" offset="0.222656"/><stop stop-opacity="1" stop-color="rgb(17.76886%, 12.88147%, 1.954651%)" offset="0.226562"/><stop stop-opacity="1" stop-color="rgb(18.074036%, 13.102722%, 1.98822%)" offset="0.230469"/><stop stop-opacity="1" stop-color="rgb(18.380737%, 13.3255%, 2.02179%)" offset="0.234375"/><stop stop-opacity="1" stop-color="rgb(18.687439%, 13.546753%, 2.055359%)" offset="0.238281"/><stop stop-opacity="1" stop-color="rgb(18.994141%, 13.769531%, 2.088928%)" offset="0.242188"/><stop stop-opacity="1" stop-color="rgb(19.299316%, 13.990784%, 2.122498%)" offset="0.246094"/><stop stop-opacity="1" stop-color="rgb(19.606018%, 14.213562%, 2.156067%)" offset="0.25"/><stop stop-opacity="1" stop-color="rgb(19.91272%, 14.43634%, 2.189636%)" offset="0.253906"/><stop stop-opacity="1" stop-color="rgb(20.219421%, 14.659119%, 2.224731%)" offset="0.257812"/><stop stop-opacity="1" stop-color="rgb(20.526123%, 14.880371%, 2.258301%)" offset="0.261719"/><stop stop-opacity="1" stop-color="rgb(20.832825%, 15.103149%, 2.29187%)" offset="0.265625"/><stop stop-opacity="1" stop-color="rgb(21.138%, 15.324402%, 2.325439%)" offset="0.269531"/><stop stop-opacity="1" stop-color="rgb(21.444702%, 15.54718%, 2.359009%)" offset="0.273438"/><stop stop-opacity="1" stop-color="rgb(21.751404%, 15.768433%, 2.392578%)" offset="0.277344"/><stop stop-opacity="1" stop-color="rgb(22.058105%, 15.991211%, 2.426147%)" offset="0.28125"/><stop stop-opacity="1" stop-color="rgb(22.363281%, 16.212463%, 2.459717%)" offset="0.285156"/><stop stop-opacity="1" stop-color="rgb(22.669983%, 16.435242%, 2.493286%)" offset="0.289062"/><stop stop-opacity="1" stop-color="rgb(22.976685%, 16.656494%, 2.526855%)" offset="0.292969"/><stop stop-opacity="1" stop-color="rgb(23.283386%, 16.879272%, 2.561951%)" offset="0.296875"/><stop stop-opacity="1" stop-color="rgb(23.588562%, 17.100525%, 2.59552%)" offset="0.300781"/><stop stop-opacity="1" stop-color="rgb(23.895264%, 17.323303%, 2.629089%)" offset="0.304688"/><stop stop-opacity="1" stop-color="rgb(24.201965%, 17.544556%, 2.662659%)" offset="0.308594"/><stop stop-opacity="1" stop-color="rgb(24.508667%, 17.767334%, 2.696228%)" offset="0.3125"/><stop stop-opacity="1" stop-color="rgb(24.815369%, 17.990112%, 2.729797%)" offset="0.316406"/><stop stop-opacity="1" stop-color="rgb(25.12207%, 18.212891%, 2.763367%)" offset="0.320312"/><stop stop-opacity="1" stop-color="rgb(25.427246%, 18.434143%, 2.796936%)" offset="0.324219"/><stop stop-opacity="1" stop-color="rgb(25.733948%, 18.656921%, 2.830505%)" offset="0.328125"/><stop stop-opacity="1" stop-color="rgb(26.040649%, 18.878174%, 2.864075%)" offset="0.332031"/><stop stop-opacity="1" stop-color="rgb(26.347351%, 19.100952%, 2.897644%)" offset="0.335938"/><stop stop-opacity="1" stop-color="rgb(26.652527%, 19.322205%, 2.931213%)" offset="0.339844"/><stop stop-opacity="1" stop-color="rgb(26.959229%, 19.544983%, 2.966309%)" offset="0.34375"/><stop stop-opacity="1" stop-color="rgb(27.26593%, 19.766235%, 2.999878%)" offset="0.347656"/><stop stop-opacity="1" stop-color="rgb(27.572632%, 19.989014%, 3.033447%)" offset="0.351562"/><stop stop-opacity="1" stop-color="rgb(27.877808%, 20.210266%, 3.067017%)" offset="0.355469"/><stop stop-opacity="1" stop-color="rgb(28.184509%, 20.433044%, 3.100586%)" offset="0.359375"/><stop stop-opacity="1" stop-color="rgb(28.491211%, 20.654297%, 3.134155%)" offset="0.363281"/><stop stop-opacity="1" stop-color="rgb(28.797913%, 20.877075%, 3.167725%)" offset="0.367188"/><stop stop-opacity="1" stop-color="rgb(29.103088%, 21.098328%, 3.201294%)" offset="0.371094"/><stop stop-opacity="1" stop-color="rgb(29.40979%, 21.321106%, 3.234863%)" offset="0.375"/><stop stop-opacity="1" stop-color="rgb(29.716492%, 21.543884%, 3.268433%)" offset="0.378906"/><stop stop-opacity="1" stop-color="rgb(30.023193%, 21.766663%, 3.303528%)" offset="0.382812"/><stop stop-opacity="1" stop-color="rgb(30.329895%, 21.987915%, 3.337097%)" offset="0.386719"/><stop stop-opacity="1" stop-color="rgb(30.636597%, 22.210693%, 3.370667%)" offset="0.390625"/><stop stop-opacity="1" stop-color="rgb(30.941772%, 22.431946%, 3.404236%)" offset="0.394531"/><stop stop-opacity="1" stop-color="rgb(31.248474%, 22.654724%, 3.437805%)" offset="0.398438"/><stop stop-opacity="1" stop-color="rgb(31.555176%, 22.875977%, 3.471375%)" offset="0.402344"/><stop stop-opacity="1" stop-color="rgb(31.861877%, 23.098755%, 3.504944%)" offset="0.40625"/><stop stop-opacity="1" stop-color="rgb(32.167053%, 23.320007%, 3.538513%)" offset="0.410156"/><stop stop-opacity="1" stop-color="rgb(32.473755%, 23.542786%, 3.572083%)" offset="0.414062"/><stop stop-opacity="1" stop-color="rgb(32.780457%, 23.764038%, 3.605652%)" offset="0.417969"/><stop stop-opacity="1" stop-color="rgb(33.087158%, 23.986816%, 3.640747%)" offset="0.421875"/><stop stop-opacity="1" stop-color="rgb(33.392334%, 24.208069%, 3.674316%)" offset="0.425781"/><stop stop-opacity="1" stop-color="rgb(33.699036%, 24.430847%, 3.707886%)" offset="0.429688"/><stop stop-opacity="1" stop-color="rgb(34.005737%, 24.6521%, 3.741455%)" offset="0.433594"/><stop stop-opacity="1" stop-color="rgb(34.312439%, 24.874878%, 3.775024%)" offset="0.4375"/><stop stop-opacity="1" stop-color="rgb(34.619141%, 25.097656%, 3.808594%)" offset="0.441406"/><stop stop-opacity="1" stop-color="rgb(34.925842%, 25.320435%, 3.842163%)" offset="0.445312"/><stop stop-opacity="1" stop-color="rgb(35.231018%, 25.541687%, 3.875732%)" offset="0.449219"/><stop stop-opacity="1" stop-color="rgb(35.53772%, 25.764465%, 3.909302%)" offset="0.453125"/><stop stop-opacity="1" stop-color="rgb(35.844421%, 25.985718%, 3.942871%)" offset="0.457031"/><stop stop-opacity="1" stop-color="rgb(36.151123%, 26.208496%, 3.97644%)" offset="0.460938"/><stop stop-opacity="1" stop-color="rgb(36.456299%, 26.429749%, 4.01001%)" offset="0.464844"/><stop stop-opacity="1" stop-color="rgb(36.763%, 26.652527%, 4.045105%)" offset="0.46875"/><stop stop-opacity="1" stop-color="rgb(37.069702%, 26.873779%, 4.078674%)" offset="0.472656"/><stop stop-opacity="1" stop-color="rgb(37.376404%, 27.096558%, 4.112244%)" offset="0.476562"/><stop stop-opacity="1" stop-color="rgb(37.68158%, 27.31781%, 4.145813%)" offset="0.480469"/><stop stop-opacity="1" stop-color="rgb(37.988281%, 27.540588%, 4.179382%)" offset="0.484375"/><stop stop-opacity="1" stop-color="rgb(38.294983%, 27.761841%, 4.212952%)" offset="0.488281"/><stop stop-opacity="1" stop-color="rgb(38.601685%, 27.984619%, 4.246521%)" offset="0.492188"/><stop stop-opacity="1" stop-color="rgb(38.90686%, 28.205872%, 4.28009%)" offset="0.496094"/><stop stop-opacity="1" stop-color="rgb(39.213562%, 28.42865%, 4.31366%)" offset="0.5"/><stop stop-opacity="1" stop-color="rgb(39.520264%, 28.651428%, 4.347229%)" offset="0.503906"/><stop stop-opacity="1" stop-color="rgb(39.826965%, 28.874207%, 4.382324%)" offset="0.507812"/><stop stop-opacity="1" stop-color="rgb(40.133667%, 29.095459%, 4.415894%)" offset="0.511719"/><stop stop-opacity="1" stop-color="rgb(40.440369%, 29.318237%, 4.449463%)" offset="0.515625"/><stop stop-opacity="1" stop-color="rgb(40.745544%, 29.53949%, 4.483032%)" offset="0.519531"/><stop stop-opacity="1" stop-color="rgb(41.052246%, 29.762268%, 4.516602%)" offset="0.523438"/><stop stop-opacity="1" stop-color="rgb(41.358948%, 29.983521%, 4.550171%)" offset="0.527344"/><stop stop-opacity="1" stop-color="rgb(41.665649%, 30.206299%, 4.58374%)" offset="0.53125"/><stop stop-opacity="1" stop-color="rgb(41.970825%, 30.427551%, 4.61731%)" offset="0.535156"/><stop stop-opacity="1" stop-color="rgb(42.277527%, 30.65033%, 4.650879%)" offset="0.539062"/><stop stop-opacity="1" stop-color="rgb(42.584229%, 30.871582%, 4.684448%)" offset="0.542969"/><stop stop-opacity="1" stop-color="rgb(42.89093%, 31.09436%, 4.718018%)" offset="0.546875"/><stop stop-opacity="1" stop-color="rgb(43.196106%, 31.315613%, 4.751587%)" offset="0.550781"/><stop stop-opacity="1" stop-color="rgb(43.502808%, 31.538391%, 4.786682%)" offset="0.554688"/><stop stop-opacity="1" stop-color="rgb(43.809509%, 31.759644%, 4.820251%)" offset="0.558594"/><stop stop-opacity="1" stop-color="rgb(44.116211%, 31.982422%, 4.853821%)" offset="0.5625"/><stop stop-opacity="1" stop-color="rgb(44.421387%, 32.203674%, 4.88739%)" offset="0.566406"/><stop stop-opacity="1" stop-color="rgb(44.728088%, 32.426453%, 4.920959%)" offset="0.570312"/><stop stop-opacity="1" stop-color="rgb(45.03479%, 32.649231%, 4.954529%)" offset="0.574219"/><stop stop-opacity="1" stop-color="rgb(45.341492%, 32.872009%, 4.988098%)" offset="0.578125"/><stop stop-opacity="1" stop-color="rgb(45.648193%, 33.093262%, 5.021667%)" offset="0.582031"/><stop stop-opacity="1" stop-color="rgb(45.954895%, 33.31604%, 5.055237%)" offset="0.585938"/><stop stop-opacity="1" stop-color="rgb(46.260071%, 33.537292%, 5.088806%)" offset="0.589844"/><stop stop-opacity="1" stop-color="rgb(46.566772%, 33.760071%, 5.123901%)" offset="0.59375"/><stop stop-opacity="1" stop-color="rgb(46.873474%, 33.981323%, 5.157471%)" offset="0.597656"/><stop stop-opacity="1" stop-color="rgb(47.180176%, 34.204102%, 5.19104%)" offset="0.601562"/><stop stop-opacity="1" stop-color="rgb(47.485352%, 34.425354%, 5.224609%)" offset="0.605469"/><stop stop-opacity="1" stop-color="rgb(47.792053%, 34.648132%, 5.258179%)" offset="0.609375"/><stop stop-opacity="1" stop-color="rgb(48.098755%, 34.869385%, 5.291748%)" offset="0.613281"/><stop stop-opacity="1" stop-color="rgb(48.405457%, 35.092163%, 5.325317%)" offset="0.617188"/><stop stop-opacity="1" stop-color="rgb(48.710632%, 35.313416%, 5.358887%)" offset="0.621094"/><stop stop-opacity="1" stop-color="rgb(49.017334%, 35.536194%, 5.392456%)" offset="0.625"/><stop stop-opacity="1" stop-color="rgb(49.324036%, 35.757446%, 5.426025%)" offset="0.628906"/><stop stop-opacity="1" stop-color="rgb(49.630737%, 35.980225%, 5.461121%)" offset="0.632812"/><stop stop-opacity="1" stop-color="rgb(49.937439%, 36.203003%, 5.49469%)" offset="0.636719"/><stop stop-opacity="1" stop-color="rgb(50.244141%, 36.425781%, 5.528259%)" offset="0.640625"/><stop stop-opacity="1" stop-color="rgb(50.549316%, 36.647034%, 5.561829%)" offset="0.644531"/><stop stop-opacity="1" stop-color="rgb(50.856018%, 36.869812%, 5.595398%)" offset="0.648438"/><stop stop-opacity="1" stop-color="rgb(51.16272%, 37.091064%, 5.628967%)" offset="0.652344"/><stop stop-opacity="1" stop-color="rgb(51.469421%, 37.313843%, 5.662537%)" offset="0.65625"/><stop stop-opacity="1" stop-color="rgb(51.774597%, 37.535095%, 5.696106%)" offset="0.660156"/><stop stop-opacity="1" stop-color="rgb(52.081299%, 37.757874%, 5.729675%)" offset="0.664062"/><stop stop-opacity="1" stop-color="rgb(52.388%, 37.979126%, 5.763245%)" offset="0.667969"/><stop stop-opacity="1" stop-color="rgb(52.694702%, 38.201904%, 5.796814%)" offset="0.671875"/><stop stop-opacity="1" stop-color="rgb(52.999878%, 38.423157%, 5.830383%)" offset="0.675781"/><stop stop-opacity="1" stop-color="rgb(53.30658%, 38.645935%, 5.865479%)" offset="0.679688"/><stop stop-opacity="1" stop-color="rgb(53.613281%, 38.867188%, 5.899048%)" offset="0.683594"/><stop stop-opacity="1" stop-color="rgb(53.919983%, 39.089966%, 5.932617%)" offset="0.6875"/><stop stop-opacity="1" stop-color="rgb(54.225159%, 39.311218%, 5.966187%)" offset="0.691406"/><stop stop-opacity="1" stop-color="rgb(54.53186%, 39.533997%, 5.999756%)" offset="0.695312"/><stop stop-opacity="1" stop-color="rgb(54.838562%, 39.756775%, 6.033325%)" offset="0.699219"/><stop stop-opacity="1" stop-color="rgb(55.145264%, 39.979553%, 6.066895%)" offset="0.703125"/><stop stop-opacity="1" stop-color="rgb(55.451965%, 40.200806%, 6.100464%)" offset="0.707031"/><stop stop-opacity="1" stop-color="rgb(55.758667%, 40.423584%, 6.134033%)" offset="0.710938"/><stop stop-opacity="1" stop-color="rgb(56.063843%, 40.644836%, 6.167603%)" offset="0.714844"/><stop stop-opacity="1" stop-color="rgb(56.370544%, 40.867615%, 6.202698%)" offset="0.71875"/><stop stop-opacity="1" stop-color="rgb(56.677246%, 41.088867%, 6.236267%)" offset="0.722656"/><stop stop-opacity="1" stop-color="rgb(56.983948%, 41.311646%, 6.269836%)" offset="0.726562"/><stop stop-opacity="1" stop-color="rgb(57.289124%, 41.532898%, 6.303406%)" offset="0.730469"/><stop stop-opacity="1" stop-color="rgb(57.595825%, 41.755676%, 6.336975%)" offset="0.734375"/><stop stop-opacity="1" stop-color="rgb(57.902527%, 41.976929%, 6.370544%)" offset="0.738281"/><stop stop-opacity="1" stop-color="rgb(58.209229%, 42.199707%, 6.404114%)" offset="0.742188"/><stop stop-opacity="1" stop-color="rgb(58.514404%, 42.420959%, 6.437683%)" offset="0.746094"/><stop stop-opacity="1" stop-color="rgb(58.821106%, 42.643738%, 6.471252%)" offset="0.75"/><stop stop-opacity="1" stop-color="rgb(59.127808%, 42.86499%, 6.504822%)" offset="0.753906"/><stop stop-opacity="1" stop-color="rgb(59.434509%, 43.087769%, 6.539917%)" offset="0.757812"/><stop stop-opacity="1" stop-color="rgb(59.741211%, 43.310547%, 6.573486%)" offset="0.761719"/><stop stop-opacity="1" stop-color="rgb(60.047913%, 43.533325%, 6.607056%)" offset="0.765625"/><stop stop-opacity="1" stop-color="rgb(60.353088%, 43.754578%, 6.640625%)" offset="0.769531"/><stop stop-opacity="1" stop-color="rgb(60.65979%, 43.977356%, 6.674194%)" offset="0.773438"/><stop stop-opacity="1" stop-color="rgb(60.966492%, 44.198608%, 6.707764%)" offset="0.777344"/><stop stop-opacity="1" stop-color="rgb(61.273193%, 44.421387%, 6.741333%)" offset="0.78125"/><stop stop-opacity="1" stop-color="rgb(61.578369%, 44.642639%, 6.774902%)" offset="0.785156"/><stop stop-opacity="1" stop-color="rgb(61.885071%, 44.865417%, 6.808472%)" offset="0.789062"/><stop stop-opacity="1" stop-color="rgb(62.191772%, 45.08667%, 6.842041%)" offset="0.792969"/><stop stop-opacity="1" stop-color="rgb(62.498474%, 45.309448%, 6.87561%)" offset="0.796875"/><stop stop-opacity="1" stop-color="rgb(62.80365%, 45.530701%, 6.90918%)" offset="0.800781"/><stop stop-opacity="1" stop-color="rgb(63.110352%, 45.753479%, 6.944275%)" offset="0.804688"/><stop stop-opacity="1" stop-color="rgb(63.417053%, 45.974731%, 6.977844%)" offset="0.808594"/><stop stop-opacity="1" stop-color="rgb(63.723755%, 46.19751%, 7.011414%)" offset="0.8125"/><stop stop-opacity="1" stop-color="rgb(64.028931%, 46.418762%, 7.044983%)" offset="0.816406"/><stop stop-opacity="1" stop-color="rgb(64.335632%, 46.641541%, 7.078552%)" offset="0.820312"/><stop stop-opacity="1" stop-color="rgb(64.642334%, 46.864319%, 7.112122%)" offset="0.824219"/><stop stop-opacity="1" stop-color="rgb(64.949036%, 47.087097%, 7.145691%)" offset="0.828125"/><stop stop-opacity="1" stop-color="rgb(65.255737%, 47.30835%, 7.17926%)" offset="0.832031"/><stop stop-opacity="1" stop-color="rgb(65.562439%, 47.531128%, 7.21283%)" offset="0.835938"/><stop stop-opacity="1" stop-color="rgb(65.867615%, 47.75238%, 7.246399%)" offset="0.839844"/><stop stop-opacity="1" stop-color="rgb(66.174316%, 47.975159%, 7.281494%)" offset="0.84375"/><stop stop-opacity="1" stop-color="rgb(66.481018%, 48.196411%, 7.315063%)" offset="0.847656"/><stop stop-opacity="1" stop-color="rgb(66.78772%, 48.419189%, 7.348633%)" offset="0.851562"/><stop stop-opacity="1" stop-color="rgb(67.092896%, 48.640442%, 7.382202%)" offset="0.855469"/><stop stop-opacity="1" stop-color="rgb(67.399597%, 48.86322%, 7.415771%)" offset="0.859375"/><stop stop-opacity="1" stop-color="rgb(67.706299%, 49.084473%, 7.449341%)" offset="0.863281"/><stop stop-opacity="1" stop-color="rgb(68.013%, 49.307251%, 7.48291%)" offset="0.867188"/><stop stop-opacity="1" stop-color="rgb(68.318176%, 49.528503%, 7.516479%)" offset="0.871094"/><stop stop-opacity="1" stop-color="rgb(68.624878%, 49.751282%, 7.550049%)" offset="0.875"/><stop stop-opacity="1" stop-color="rgb(68.93158%, 49.972534%, 7.583618%)" offset="0.878906"/><stop stop-opacity="1" stop-color="rgb(69.238281%, 50.195312%, 7.617188%)" offset="0.882812"/><stop stop-opacity="1" stop-color="rgb(69.544983%, 50.418091%, 7.650757%)" offset="0.886719"/><stop stop-opacity="1" stop-color="rgb(69.851685%, 50.640869%, 7.685852%)" offset="0.890625"/><stop stop-opacity="1" stop-color="rgb(70.15686%, 50.862122%, 7.719421%)" offset="0.894531"/><stop stop-opacity="1" stop-color="rgb(70.463562%, 51.0849%, 7.752991%)" offset="0.898438"/><stop stop-opacity="1" stop-color="rgb(70.770264%, 51.306152%, 7.78656%)" offset="0.902344"/><stop stop-opacity="1" stop-color="rgb(71.076965%, 51.528931%, 7.820129%)" offset="0.90625"/><stop stop-opacity="1" stop-color="rgb(71.382141%, 51.750183%, 7.853699%)" offset="0.910156"/><stop stop-opacity="1" stop-color="rgb(71.688843%, 51.972961%, 7.887268%)" offset="0.914062"/><stop stop-opacity="1" stop-color="rgb(71.995544%, 52.194214%, 7.920837%)" offset="0.917969"/><stop stop-opacity="1" stop-color="rgb(72.302246%, 52.416992%, 7.954407%)" offset="0.921875"/><stop stop-opacity="1" stop-color="rgb(72.607422%, 52.638245%, 7.987976%)" offset="0.925781"/><stop stop-opacity="1" stop-color="rgb(72.914124%, 52.861023%, 8.023071%)" offset="0.929688"/><stop stop-opacity="1" stop-color="rgb(73.220825%, 53.082275%, 8.056641%)" offset="0.933594"/><stop stop-opacity="1" stop-color="rgb(73.527527%, 53.305054%, 8.09021%)" offset="0.9375"/><stop stop-opacity="1" stop-color="rgb(73.832703%, 53.526306%, 8.123779%)" offset="0.941406"/><stop stop-opacity="1" stop-color="rgb(74.139404%, 53.749084%, 8.157349%)" offset="0.945312"/><stop stop-opacity="1" stop-color="rgb(74.446106%, 53.971863%, 8.190918%)" offset="0.949219"/><stop stop-opacity="1" stop-color="rgb(74.752808%, 54.194641%, 8.224487%)" offset="0.953125"/><stop stop-opacity="1" stop-color="rgb(75.059509%, 54.415894%, 8.258057%)" offset="0.957031"/><stop stop-opacity="1" stop-color="rgb(75.366211%, 54.638672%, 8.291626%)" offset="0.960938"/><stop stop-opacity="1" stop-color="rgb(75.671387%, 54.859924%, 8.325195%)" offset="0.964844"/><stop stop-opacity="1" stop-color="rgb(75.978088%, 55.082703%, 8.360291%)" offset="0.96875"/><stop stop-opacity="1" stop-color="rgb(76.28479%, 55.303955%, 8.39386%)" offset="0.972656"/><stop stop-opacity="1" stop-color="rgb(76.591492%, 55.526733%, 8.427429%)" offset="0.976562"/><stop stop-opacity="1" stop-color="rgb(76.896667%, 55.747986%, 8.460999%)" offset="0.980469"/><stop stop-opacity="1" stop-color="rgb(77.203369%, 55.970764%, 8.494568%)" offset="0.984375"/><stop stop-opacity="1" stop-color="rgb(77.510071%, 56.192017%, 8.528137%)" offset="0.988281"/><stop stop-opacity="1" stop-color="rgb(77.816772%, 56.414795%, 8.561707%)" offset="0.992188"/><stop stop-opacity="1" stop-color="rgb(78.121948%, 56.636047%, 8.595276%)" offset="0.996094"/><stop stop-opacity="1" stop-color="rgb(78.42865%, 56.858826%, 8.628845%)" offset="1"/></linearGradient><clipPath id="6fd5f3b86b"><rect x="0" width="414" y="0" height="414"/></clipPath><clipPath id="084665e0c1"><path d="M 279.1875 392 L 531.066406 392 L 531.066406 620 L 279.1875 620 Z M 279.1875 392 " clip-rule="nonzero"/></clipPath></defs><g clip-path="url(#bbc47e4cb1)"><g clip-path="url(#1fc55e114a)"><g transform="matrix(1, 0, 0, 1, 198, 299)"><g clip-path="url(#6fd5f3b86b)"><g clip-path="url(#23ec692331)"><g clip-path="url(#881925f4a6)"><path fill="url(#35b77a0784)" d="M 0.550781 0.550781 L 0.550781 413.449219 L 413.449219 413.449219 L 413.449219 0.550781 Z M 0.550781 0.550781 " fill-rule="nonzero"/></g></g></g></g></g></g><path fill="#ffffff" d="M 457 510.472656 C 456.707031 510.472656 456.421875 510.5 456.136719 510.558594 C 455.851562 510.613281 455.574219 510.699219 455.308594 510.8125 C 455.039062 510.925781 454.785156 511.0625 454.542969 511.222656 C 454.304688 511.386719 454.082031 511.570312 453.878906 511.777344 C 453.675781 511.984375 453.492188 512.210938 453.332031 512.453125 C 453.175781 512.695312 453.042969 512.953125 452.933594 513.222656 C 452.824219 513.492188 452.746094 513.769531 452.691406 514.054688 C 452.640625 514.339844 452.613281 514.628906 452.621094 514.917969 L 452.621094 576.234375 C 452.582031 576.546875 452.574219 576.859375 452.601562 577.171875 C 452.632812 577.488281 452.691406 577.792969 452.785156 578.09375 C 452.878906 578.394531 453 578.683594 453.15625 578.957031 C 453.308594 579.234375 453.492188 579.488281 453.699219 579.722656 C 453.910156 579.960938 454.140625 580.171875 454.394531 580.359375 C 454.648438 580.546875 454.917969 580.703125 455.203125 580.832031 C 455.492188 580.960938 455.789062 581.0625 456.097656 581.125 C 456.40625 581.191406 456.71875 581.226562 457.03125 581.226562 C 457.347656 581.226562 457.660156 581.191406 457.96875 581.125 C 458.273438 581.0625 458.574219 580.960938 458.859375 580.832031 C 459.148438 580.703125 459.417969 580.546875 459.671875 580.359375 C 459.925781 580.171875 460.15625 579.960938 460.363281 579.722656 C 460.574219 579.488281 460.753906 579.234375 460.910156 578.957031 C 461.0625 578.683594 461.1875 578.394531 461.28125 578.09375 C 461.375 577.792969 461.433594 577.488281 461.460938 577.171875 C 461.488281 576.859375 461.484375 576.546875 461.445312 576.234375 L 461.445312 514.917969 C 461.449219 514.625 461.425781 514.335938 461.371094 514.046875 C 461.316406 513.757812 461.234375 513.476562 461.125 513.207031 C 461.015625 512.933594 460.878906 512.675781 460.71875 512.433594 C 460.554688 512.1875 460.371094 511.960938 460.164062 511.753906 C 459.957031 511.546875 459.730469 511.363281 459.484375 511.199219 C 459.242188 511.039062 458.984375 510.902344 458.710938 510.792969 C 458.4375 510.683594 458.160156 510.601562 457.871094 510.546875 C 457.582031 510.492188 457.292969 510.46875 457 510.472656 Z M 457 510.472656 " fill-opacity="1" fill-rule="nonzero"/><g clip-path="url(#084665e0c1)"><path fill="#ffffff" d="M 512.179688 392.628906 L 332.011719 392.628906 C 331.394531 392.628906 330.78125 392.660156 330.167969 392.71875 C 329.550781 392.78125 328.941406 392.871094 328.335938 392.992188 C 327.730469 393.113281 327.132812 393.261719 326.542969 393.441406 C 325.953125 393.621094 325.375 393.828125 324.804688 394.066406 C 324.234375 394.300781 323.675781 394.566406 323.132812 394.859375 C 322.589844 395.148438 322.0625 395.46875 321.546875 395.8125 C 321.035156 396.152344 320.542969 396.523438 320.066406 396.914062 C 319.589844 397.304688 319.132812 397.722656 318.695312 398.160156 C 318.261719 398.59375 317.847656 399.054688 317.457031 399.53125 C 317.066406 400.007812 316.699219 400.503906 316.359375 401.019531 C 316.019531 401.53125 315.703125 402.0625 315.414062 402.605469 C 315.121094 403.152344 314.859375 403.707031 314.625 404.28125 C 314.390625 404.851562 314.1875 405.429688 314.007812 406.023438 C 313.832031 406.613281 313.683594 407.210938 313.5625 407.816406 C 313.445312 408.421875 313.359375 409.03125 313.300781 409.648438 C 313.242188 410.261719 313.210938 410.878906 313.214844 411.496094 L 313.214844 444.644531 L 298.054688 444.644531 C 297.4375 444.644531 296.820312 444.675781 296.207031 444.734375 C 295.589844 444.796875 294.980469 444.886719 294.375 445.007812 C 293.769531 445.128906 293.167969 445.277344 292.578125 445.457031 C 291.988281 445.636719 291.40625 445.84375 290.835938 446.082031 C 290.265625 446.316406 289.707031 446.582031 289.160156 446.871094 C 288.617188 447.164062 288.085938 447.480469 287.574219 447.824219 C 287.058594 448.167969 286.5625 448.535156 286.085938 448.925781 C 285.609375 449.320312 285.152344 449.734375 284.714844 450.167969 C 284.277344 450.605469 283.863281 451.0625 283.472656 451.542969 C 283.078125 452.019531 282.710938 452.515625 282.367188 453.027344 C 282.023438 453.542969 281.707031 454.070312 281.417969 454.617188 C 281.125 455.160156 280.863281 455.71875 280.625 456.289062 C 280.386719 456.859375 280.179688 457.441406 280 458.035156 C 279.820312 458.625 279.671875 459.222656 279.550781 459.828125 C 279.429688 460.433594 279.339844 461.046875 279.28125 461.660156 C 279.21875 462.277344 279.1875 462.890625 279.1875 463.511719 L 279.1875 600.21875 C 279.1875 600.835938 279.21875 601.453125 279.28125 602.066406 C 279.339844 602.679688 279.429688 603.289062 279.550781 603.894531 C 279.671875 604.5 279.824219 605.097656 280.003906 605.6875 C 280.179688 606.277344 280.390625 606.859375 280.625 607.429688 C 280.863281 608 281.128906 608.554688 281.417969 609.097656 C 281.710938 609.644531 282.027344 610.171875 282.371094 610.683594 C 282.714844 611.195312 283.082031 611.691406 283.476562 612.167969 C 283.867188 612.644531 284.28125 613.101562 284.71875 613.535156 C 285.15625 613.972656 285.613281 614.382812 286.089844 614.773438 C 286.570312 615.164062 287.066406 615.53125 287.578125 615.871094 C 288.09375 616.214844 288.621094 616.53125 289.167969 616.820312 C 289.710938 617.109375 290.269531 617.371094 290.839844 617.605469 C 291.410156 617.839844 291.992188 618.046875 292.582031 618.222656 C 293.175781 618.402344 293.773438 618.550781 294.378906 618.667969 C 294.984375 618.785156 295.59375 618.875 296.207031 618.933594 C 296.820312 618.992188 297.4375 619.019531 298.054688 619.019531 L 478.222656 619.019531 C 478.839844 619.019531 479.453125 618.988281 480.066406 618.925781 C 480.679688 618.867188 481.285156 618.777344 481.890625 618.65625 C 482.492188 618.535156 483.089844 618.386719 483.679688 618.207031 C 484.269531 618.03125 484.847656 617.824219 485.417969 617.585938 C 485.984375 617.351562 486.542969 617.089844 487.085938 616.796875 C 487.628906 616.507812 488.15625 616.191406 488.667969 615.847656 C 489.179688 615.507812 489.671875 615.140625 490.148438 614.75 C 490.625 614.359375 491.078125 613.945312 491.515625 613.511719 C 491.949219 613.078125 492.363281 612.621094 492.753906 612.144531 C 493.144531 611.667969 493.511719 611.175781 493.851562 610.664062 C 494.195312 610.152344 494.511719 609.625 494.800781 609.082031 C 495.089844 608.539062 495.355469 607.980469 495.589844 607.414062 C 495.824219 606.84375 496.03125 606.265625 496.210938 605.675781 C 496.390625 605.085938 496.539062 604.492188 496.660156 603.886719 C 496.78125 603.28125 496.871094 602.675781 496.929688 602.0625 C 496.992188 601.449219 497.019531 600.835938 497.019531 600.21875 L 497.019531 567.003906 L 512.179688 567.003906 C 512.800781 567.003906 513.414062 566.972656 514.03125 566.910156 C 514.644531 566.851562 515.253906 566.761719 515.863281 566.640625 C 516.46875 566.519531 517.066406 566.367188 517.65625 566.191406 C 518.25 566.011719 518.828125 565.800781 519.402344 565.566406 C 519.972656 565.328125 520.53125 565.066406 521.074219 564.773438 C 521.621094 564.484375 522.148438 564.164062 522.664062 563.824219 C 523.175781 563.480469 523.671875 563.113281 524.148438 562.71875 C 524.628906 562.328125 525.085938 561.914062 525.519531 561.476562 C 525.957031 561.039062 526.371094 560.582031 526.765625 560.105469 C 527.15625 559.628906 527.523438 559.132812 527.867188 558.617188 C 528.210938 558.105469 528.527344 557.574219 528.820312 557.03125 C 529.109375 556.484375 529.375 555.925781 529.609375 555.355469 C 529.847656 554.785156 530.054688 554.203125 530.234375 553.613281 C 530.414062 553.019531 530.5625 552.421875 530.683594 551.816406 C 530.804688 551.210938 530.894531 550.601562 530.957031 549.984375 C 531.015625 549.371094 531.046875 548.753906 531.046875 548.136719 L 531.046875 411.496094 C 531.046875 410.875 531.015625 410.261719 530.957031 409.644531 C 530.894531 409.03125 530.804688 408.417969 530.683594 407.8125 C 530.5625 407.207031 530.414062 406.609375 530.234375 406.019531 C 530.054688 405.425781 529.847656 404.84375 529.609375 404.273438 C 529.375 403.703125 529.109375 403.144531 528.820312 402.601562 C 528.527344 402.054688 528.210938 401.527344 527.867188 401.011719 C 527.523438 400.5 527.15625 400.003906 526.765625 399.527344 C 526.371094 399.046875 525.957031 398.589844 525.519531 398.152344 C 525.085938 397.71875 524.628906 397.304688 524.148438 396.910156 C 523.671875 396.519531 523.175781 396.152344 522.664062 395.808594 C 522.148438 395.464844 521.621094 395.148438 521.074219 394.855469 C 520.53125 394.566406 519.972656 394.300781 519.402344 394.066406 C 518.828125 393.828125 518.25 393.621094 517.65625 393.441406 C 517.066406 393.261719 516.46875 393.113281 515.863281 392.992188 C 515.253906 392.871094 514.644531 392.78125 514.03125 392.71875 C 513.414062 392.660156 512.800781 392.628906 512.179688 392.628906 Z M 478.492188 610.191406 L 298.054688 610.191406 C 297.398438 610.191406 296.75 610.128906 296.109375 610 C 295.46875 609.871094 294.84375 609.683594 294.238281 609.433594 C 293.632812 609.179688 293.058594 608.875 292.515625 608.511719 C 291.96875 608.148438 291.464844 607.734375 291.003906 607.269531 C 290.539062 606.808594 290.128906 606.304688 289.761719 605.757812 C 289.398438 605.214844 289.09375 604.640625 288.84375 604.035156 C 288.589844 603.429688 288.402344 602.808594 288.273438 602.164062 C 288.148438 601.523438 288.082031 600.875 288.082031 600.21875 L 288.082031 463.511719 C 288.066406 462.84375 288.113281 462.183594 288.226562 461.527344 C 288.34375 460.871094 288.519531 460.230469 288.761719 459.609375 C 289.003906 458.992188 289.308594 458.398438 289.667969 457.839844 C 290.027344 457.28125 290.441406 456.761719 290.90625 456.285156 C 291.371094 455.804688 291.878906 455.378906 292.429688 455.003906 C 292.980469 454.628906 293.5625 454.3125 294.175781 454.050781 C 294.789062 453.792969 295.421875 453.597656 296.074219 453.464844 C 296.730469 453.335938 297.386719 453.269531 298.054688 453.269531 L 478.222656 453.269531 C 478.882812 453.277344 479.535156 453.351562 480.183594 453.488281 C 480.828125 453.628906 481.453125 453.828125 482.058594 454.089844 C 482.667969 454.355469 483.242188 454.675781 483.785156 455.050781 C 484.324219 455.429688 484.824219 455.855469 485.285156 456.332031 C 485.742188 456.808594 486.148438 457.324219 486.503906 457.882812 C 486.855469 458.4375 487.152344 459.027344 487.390625 459.640625 C 487.628906 460.257812 487.804688 460.890625 487.917969 461.542969 C 488.03125 462.195312 488.078125 462.847656 488.058594 463.511719 L 488.058594 466.339844 L 368.464844 466.339844 C 367.882812 466.328125 367.320312 466.433594 366.78125 466.65625 C 366.242188 466.878906 365.769531 467.199219 365.363281 467.621094 L 358.628906 474.359375 L 318.199219 474.359375 C 317.910156 474.359375 317.621094 474.386719 317.332031 474.441406 C 317.046875 474.5 316.769531 474.585938 316.5 474.695312 C 316.230469 474.808594 315.972656 474.945312 315.730469 475.105469 C 315.488281 475.269531 315.261719 475.453125 315.054688 475.660156 C 314.851562 475.867188 314.664062 476.089844 314.503906 476.335938 C 314.339844 476.578125 314.203125 476.832031 314.09375 477.101562 C 313.980469 477.371094 313.894531 477.652344 313.839844 477.9375 C 313.78125 478.222656 313.753906 478.511719 313.753906 478.804688 C 313.753906 479.097656 313.78125 479.386719 313.839844 479.671875 C 313.894531 479.957031 313.980469 480.238281 314.09375 480.507812 C 314.203125 480.777344 314.339844 481.03125 314.503906 481.273438 C 314.664062 481.519531 314.851562 481.742188 315.054688 481.949219 C 315.261719 482.15625 315.488281 482.339844 315.730469 482.503906 C 315.972656 482.664062 316.230469 482.800781 316.5 482.914062 C 316.769531 483.023438 317.046875 483.109375 317.332031 483.167969 C 317.621094 483.222656 317.910156 483.25 318.199219 483.25 L 360.042969 483.25 C 361.25 483.246094 362.28125 482.820312 363.140625 481.972656 L 369.878906 475.234375 L 488.058594 475.234375 L 488.058594 600.21875 C 488.054688 600.867188 487.988281 601.507812 487.859375 602.144531 C 487.734375 602.777344 487.542969 603.394531 487.296875 603.996094 C 487.046875 604.59375 486.746094 605.164062 486.386719 605.703125 C 486.03125 606.242188 485.621094 606.742188 485.167969 607.203125 C 484.710938 607.664062 484.21875 608.078125 483.683594 608.445312 C 483.148438 608.808594 482.582031 609.121094 481.988281 609.375 C 481.390625 609.632812 480.777344 609.828125 480.144531 609.964844 C 479.511719 610.101562 478.871094 610.179688 478.222656 610.191406 Z M 522.152344 414.257812 L 402.488281 414.257812 C 401.902344 414.257812 401.339844 414.375 400.800781 414.609375 C 400.261719 414.84375 399.792969 415.175781 399.390625 415.605469 L 392.652344 422.34375 L 352.226562 422.34375 C 351.933594 422.34375 351.644531 422.371094 351.359375 422.425781 C 351.074219 422.484375 350.792969 422.570312 350.523438 422.679688 C 350.253906 422.792969 350 422.929688 349.753906 423.089844 C 349.511719 423.253906 349.289062 423.4375 349.082031 423.644531 C 348.875 423.851562 348.691406 424.074219 348.527344 424.320312 C 348.367188 424.5625 348.230469 424.816406 348.117188 425.085938 C 348.007812 425.355469 347.921875 425.636719 347.863281 425.921875 C 347.808594 426.207031 347.78125 426.496094 347.78125 426.789062 C 347.78125 427.082031 347.808594 427.371094 347.863281 427.65625 C 347.921875 427.941406 348.007812 428.222656 348.117188 428.492188 C 348.230469 428.761719 348.367188 429.015625 348.527344 429.257812 C 348.691406 429.503906 348.875 429.726562 349.082031 429.933594 C 349.289062 430.140625 349.511719 430.324219 349.753906 430.488281 C 350 430.648438 350.253906 430.785156 350.523438 430.898438 C 350.792969 431.007812 351.074219 431.09375 351.359375 431.152344 C 351.644531 431.207031 351.933594 431.234375 352.226562 431.234375 L 394.742188 431.234375 C 395.972656 431.242188 397.027344 430.8125 397.910156 429.957031 L 404.644531 423.21875 L 522.152344 423.21875 L 522.152344 548.136719 C 522.152344 548.792969 522.089844 549.441406 521.960938 550.085938 C 521.835938 550.730469 521.644531 551.355469 521.394531 551.960938 C 521.144531 552.570312 520.839844 553.144531 520.476562 553.691406 C 520.113281 554.238281 519.699219 554.746094 519.238281 555.210938 C 518.773438 555.675781 518.269531 556.09375 517.726562 556.460938 C 517.183594 556.828125 516.609375 557.136719 516.003906 557.390625 C 515.398438 557.644531 514.773438 557.839844 514.128906 557.972656 C 513.488281 558.101562 512.835938 558.171875 512.179688 558.175781 L 497.019531 558.175781 L 497.019531 463.847656 C 497.019531 463.230469 496.992188 462.617188 496.929688 462 C 496.871094 461.386719 496.78125 460.777344 496.660156 460.175781 C 496.539062 459.570312 496.390625 458.972656 496.210938 458.382812 C 496.035156 457.792969 495.828125 457.210938 495.589844 456.644531 C 495.355469 456.074219 495.09375 455.515625 494.804688 454.972656 C 494.511719 454.429688 494.199219 453.898438 493.855469 453.386719 C 493.515625 452.875 493.148438 452.378906 492.757812 451.902344 C 492.367188 451.425781 491.953125 450.96875 491.519531 450.53125 C 491.085938 450.09375 490.628906 449.679688 490.152344 449.289062 C 489.675781 448.894531 489.183594 448.527344 488.671875 448.183594 C 488.160156 447.839844 487.632812 447.523438 487.089844 447.230469 C 486.546875 446.9375 485.992188 446.671875 485.421875 446.4375 C 484.851562 446.199219 484.273438 445.988281 483.683594 445.808594 C 483.09375 445.628906 482.496094 445.476562 481.894531 445.355469 C 481.289062 445.234375 480.679688 445.140625 480.066406 445.078125 C 479.453125 445.015625 478.839844 444.984375 478.222656 444.980469 L 322.042969 444.980469 L 322.042969 411.496094 C 322.042969 410.839844 322.105469 410.191406 322.234375 409.546875 C 322.359375 408.90625 322.550781 408.28125 322.800781 407.679688 C 323.050781 407.074219 323.359375 406.5 323.722656 405.953125 C 324.085938 405.410156 324.5 404.90625 324.960938 404.441406 C 325.425781 403.980469 325.929688 403.566406 326.472656 403.203125 C 327.015625 402.839844 327.59375 402.53125 328.195312 402.28125 C 328.800781 402.03125 329.425781 401.839844 330.066406 401.714844 C 330.710938 401.585938 331.359375 401.523438 332.011719 401.523438 L 512.179688 401.523438 C 512.835938 401.523438 513.484375 401.585938 514.125 401.714844 C 514.769531 401.839844 515.390625 402.03125 515.996094 402.28125 C 516.601562 402.53125 517.175781 402.839844 517.722656 403.203125 C 518.265625 403.566406 518.769531 403.980469 519.230469 404.441406 C 519.695312 404.90625 520.109375 405.410156 520.472656 405.953125 C 520.835938 406.5 521.144531 407.074219 521.394531 407.679688 C 521.644531 408.28125 521.832031 408.90625 521.960938 409.546875 C 522.089844 410.191406 522.152344 410.839844 522.152344 411.496094 Z M 522.152344 414.257812 " fill-opacity="1" fill-rule="nonzero"/></g><path fill="#ffffff" d="M 436.582031 510.472656 L 392.652344 510.472656 C 392.363281 510.472656 392.074219 510.5 391.789062 510.558594 C 391.503906 510.613281 391.230469 510.699219 390.960938 510.8125 C 390.695312 510.925781 390.4375 511.0625 390.199219 511.222656 C 389.957031 511.386719 389.734375 511.570312 389.53125 511.777344 C 389.328125 511.984375 389.148438 512.210938 388.988281 512.453125 C 388.828125 512.695312 388.695312 512.953125 388.585938 513.222656 C 388.480469 513.492188 388.398438 513.769531 388.347656 514.054688 C 388.292969 514.339844 388.269531 514.628906 388.273438 514.917969 L 388.273438 576.234375 C 388.234375 576.546875 388.230469 576.859375 388.257812 577.171875 C 388.285156 577.488281 388.34375 577.792969 388.4375 578.09375 C 388.53125 578.394531 388.65625 578.683594 388.808594 578.957031 C 388.964844 579.234375 389.144531 579.488281 389.355469 579.722656 C 389.5625 579.960938 389.792969 580.171875 390.046875 580.359375 C 390.300781 580.546875 390.570312 580.703125 390.859375 580.832031 C 391.148438 580.960938 391.445312 581.0625 391.753906 581.125 C 392.058594 581.191406 392.371094 581.226562 392.6875 581.226562 C 393 581.226562 393.3125 581.191406 393.621094 581.125 C 393.929688 581.0625 394.226562 580.960938 394.515625 580.832031 C 394.800781 580.703125 395.070312 580.546875 395.324219 580.359375 C 395.578125 580.171875 395.808594 579.960938 396.019531 579.722656 C 396.226562 579.488281 396.410156 579.234375 396.5625 578.957031 C 396.71875 578.683594 396.839844 578.394531 396.933594 578.09375 C 397.027344 577.792969 397.089844 577.488281 397.117188 577.171875 C 397.144531 576.859375 397.140625 576.546875 397.101562 576.234375 L 397.101562 550.023438 L 436.582031 550.023438 C 437.160156 549.996094 437.707031 549.867188 438.234375 549.628906 C 438.757812 549.394531 439.222656 549.070312 439.621094 548.65625 C 440.023438 548.242188 440.332031 547.769531 440.554688 547.238281 C 440.773438 546.707031 440.886719 546.152344 440.894531 545.574219 L 440.894531 514.917969 C 440.894531 514.632812 440.867188 514.347656 440.8125 514.066406 C 440.757812 513.785156 440.679688 513.511719 440.570312 513.246094 C 440.460938 512.980469 440.332031 512.730469 440.175781 512.488281 C 440.019531 512.25 439.839844 512.027344 439.640625 511.820312 C 439.441406 511.617188 439.222656 511.429688 438.988281 511.265625 C 438.753906 511.105469 438.503906 510.964844 438.242188 510.847656 C 437.980469 510.734375 437.710938 510.644531 437.433594 510.582031 C 437.152344 510.515625 436.871094 510.480469 436.582031 510.472656 Z M 397.101562 519.296875 L 432.136719 519.296875 L 432.136719 540.859375 L 397.101562 540.859375 Z M 397.101562 519.296875 " fill-opacity="1" fill-rule="nonzero"/><path fill="#ffffff" d="M 354.449219 513.371094 C 354.292969 512.941406 354.078125 512.546875 353.796875 512.183594 C 353.519531 511.824219 353.195312 511.511719 352.820312 511.25 C 352.449219 510.988281 352.042969 510.789062 351.609375 510.652344 C 351.175781 510.515625 350.726562 510.445312 350.273438 510.445312 C 349.816406 510.445312 349.371094 510.515625 348.9375 510.652344 C 348.5 510.789062 348.097656 510.988281 347.722656 511.25 C 347.351562 511.511719 347.023438 511.824219 346.746094 512.183594 C 346.46875 512.546875 346.25 512.941406 346.09375 513.371094 L 324.128906 574.546875 C 324.035156 574.824219 323.964844 575.105469 323.921875 575.390625 C 323.882812 575.679688 323.871094 575.96875 323.886719 576.257812 C 323.902344 576.550781 323.945312 576.835938 324.015625 577.117188 C 324.085938 577.398438 324.1875 577.671875 324.3125 577.933594 C 324.4375 578.195312 324.585938 578.445312 324.757812 578.675781 C 324.933594 578.910156 325.125 579.125 325.34375 579.320312 C 325.558594 579.515625 325.789062 579.6875 326.039062 579.835938 C 326.289062 579.984375 326.550781 580.109375 326.824219 580.207031 C 327.320312 580.300781 327.8125 580.300781 328.308594 580.207031 C 328.765625 580.210938 329.214844 580.144531 329.65625 580.007812 C 330.09375 579.867188 330.5 579.667969 330.875 579.398438 C 331.25 579.132812 331.574219 578.816406 331.847656 578.449219 C 332.125 578.082031 332.335938 577.679688 332.484375 577.242188 L 338.414062 561.074219 L 362.132812 561.074219 L 368.058594 577.582031 C 368.207031 578.015625 368.421875 578.417969 368.695312 578.785156 C 368.96875 579.152344 369.296875 579.472656 369.671875 579.738281 C 370.046875 580.003906 370.453125 580.207031 370.890625 580.34375 C 371.328125 580.480469 371.777344 580.546875 372.238281 580.546875 C 372.730469 580.609375 373.226562 580.609375 373.71875 580.546875 C 373.992188 580.445312 374.253906 580.324219 374.503906 580.171875 C 374.753906 580.023438 374.988281 579.851562 375.203125 579.65625 C 375.417969 579.460938 375.613281 579.246094 375.785156 579.015625 C 375.960938 578.78125 376.109375 578.535156 376.234375 578.269531 C 376.359375 578.007812 376.457031 577.734375 376.53125 577.453125 C 376.601562 577.171875 376.644531 576.886719 376.660156 576.597656 C 376.675781 576.304688 376.664062 576.015625 376.621094 575.730469 C 376.582031 575.441406 376.511719 575.160156 376.414062 574.886719 Z M 358.964844 552.3125 L 341.582031 552.3125 L 350.273438 528.058594 Z M 358.964844 552.3125 " fill-opacity="1" fill-rule="nonzero"/></svg>