<svg xmlns="http://www.w3.org/2000/svg" xmlns:xlink="http://www.w3.org/1999/xlink" width="1080" zoomAndPan="magnify" viewBox="0 0 810 1012.49997" height="1350" preserveAspectRatio="xMidYMid meet" version="1.0"><defs><clipPath id="ba5c495311"><path d="M 198.550781 299.550781 L 611.449219 299.550781 L 611.449219 712.449219 L 198.550781 712.449219 Z M 198.550781 299.550781 " clip-rule="nonzero"/></clipPath><clipPath id="379252a0f1"><path d="M 405 299.550781 C 290.980469 299.550781 198.550781 391.980469 198.550781 506 C 198.550781 620.019531 290.980469 712.449219 405 712.449219 C 519.019531 712.449219 611.449219 620.019531 611.449219 506 C 611.449219 391.980469 519.019531 299.550781 405 299.550781 Z M 405 299.550781 " clip-rule="nonzero"/></clipPath><clipPath id="e95efbac03"><path d="M 0.550781 0.550781 L 413.449219 0.550781 L 413.449219 413.449219 L 0.550781 413.449219 Z M 0.550781 0.550781 " clip-rule="nonzero"/></clipPath><clipPath id="c0152f16af"><path d="M 207 0.550781 C 92.980469 0.550781 0.550781 92.980469 0.550781 207 C 0.550781 321.019531 92.980469 413.449219 207 413.449219 C 321.019531 413.449219 413.449219 321.019531 413.449219 207 C 413.449219 92.980469 321.019531 0.550781 207 0.550781 Z M 207 0.550781 " clip-rule="nonzero"/></clipPath><linearGradient x1="128" gradientTransform="matrix(1.612875, 0, 0, 1.612875, 0.551948, 0.552052)" y1="256" x2="128" gradientUnits="userSpaceOnUse" y2="0" id="6b9254e32c"><stop stop-opacity="1" stop-color="rgb(0%, 0%, 0%)" offset="0"/><stop stop-opacity="1" stop-color="rgb(0.291443%, 0.212097%, 0.0335693%)" offset="0.00390625"/><stop stop-opacity="1" stop-color="rgb(0.584412%, 0.42572%, 0.0671387%)" offset="0.0078125"/><stop stop-opacity="1" stop-color="rgb(0.875854%, 0.637817%, 0.100708%)" offset="0.0117188"/><stop stop-opacity="1" stop-color="rgb(1.168823%, 0.85144%, 0.134277%)" offset="0.015625"/><stop stop-opacity="1" stop-color="rgb(1.461792%, 1.063538%, 0.167847%)" offset="0.0195312"/><stop stop-opacity="1" stop-color="rgb(1.754761%, 1.277161%, 0.201416%)" offset="0.0234375"/><stop stop-opacity="1" stop-color="rgb(2.046204%, 1.489258%, 0.234985%)" offset="0.0273438"/><stop stop-opacity="1" stop-color="rgb(2.339172%, 1.702881%, 0.268555%)" offset="0.03125"/><stop stop-opacity="1" stop-color="rgb(2.632141%, 1.914978%, 0.302124%)" offset="0.0351562"/><stop stop-opacity="1" stop-color="rgb(2.92511%, 2.128601%, 0.335693%)" offset="0.0390625"/><stop stop-opacity="1" stop-color="rgb(3.216553%, 2.340698%, 0.369263%)" offset="0.0429688"/><stop stop-opacity="1" stop-color="rgb(3.509521%, 2.554321%, 0.404358%)" offset="0.046875"/><stop stop-opacity="1" stop-color="rgb(3.80249%, 2.766418%, 0.437927%)" offset="0.0507812"/><stop stop-opacity="1" stop-color="rgb(4.095459%, 2.980042%, 0.471497%)" offset="0.0546875"/><stop stop-opacity="1" stop-color="rgb(4.386902%, 3.192139%, 0.505066%)" offset="0.0585938"/><stop stop-opacity="1" stop-color="rgb(4.679871%, 3.405762%, 0.538635%)" offset="0.0625"/><stop stop-opacity="1" stop-color="rgb(4.972839%, 3.617859%, 0.572205%)" offset="0.0664062"/><stop stop-opacity="1" stop-color="rgb(5.265808%, 3.831482%, 0.605774%)" offset="0.0703125"/><stop stop-opacity="1" stop-color="rgb(5.557251%, 4.043579%, 0.639343%)" offset="0.0742188"/><stop stop-opacity="1" stop-color="rgb(5.85022%, 4.257202%, 0.672913%)" offset="0.078125"/><stop stop-opacity="1" stop-color="rgb(6.143188%, 4.470825%, 0.706482%)" offset="0.0820312"/><stop stop-opacity="1" stop-color="rgb(6.436157%, 4.684448%, 0.741577%)" offset="0.0859375"/><stop stop-opacity="1" stop-color="rgb(6.7276%, 4.896545%, 0.775146%)" offset="0.0898438"/><stop stop-opacity="1" stop-color="rgb(7.020569%, 5.110168%, 0.808716%)" offset="0.09375"/><stop stop-opacity="1" stop-color="rgb(7.313538%, 5.322266%, 0.842285%)" offset="0.0976562"/><stop stop-opacity="1" stop-color="rgb(7.606506%, 5.535889%, 0.875854%)" offset="0.101562"/><stop stop-opacity="1" stop-color="rgb(7.897949%, 5.747986%, 0.909424%)" offset="0.105469"/><stop stop-opacity="1" stop-color="rgb(8.190918%, 5.961609%, 0.942993%)" offset="0.109375"/><stop stop-opacity="1" stop-color="rgb(8.483887%, 6.173706%, 0.976562%)" offset="0.113281"/><stop stop-opacity="1" stop-color="rgb(8.776855%, 6.387329%, 1.010132%)" offset="0.117188"/><stop stop-opacity="1" stop-color="rgb(9.068298%, 6.599426%, 1.043701%)" offset="0.121094"/><stop stop-opacity="1" stop-color="rgb(9.361267%, 6.813049%, 1.077271%)" offset="0.125"/><stop stop-opacity="1" stop-color="rgb(9.654236%, 7.025146%, 1.11084%)" offset="0.128906"/><stop stop-opacity="1" stop-color="rgb(9.947205%, 7.23877%, 1.145935%)" offset="0.132812"/><stop stop-opacity="1" stop-color="rgb(10.238647%, 7.450867%, 1.179504%)" offset="0.136719"/><stop stop-opacity="1" stop-color="rgb(10.531616%, 7.66449%, 1.213074%)" offset="0.140625"/><stop stop-opacity="1" stop-color="rgb(10.824585%, 7.876587%, 1.246643%)" offset="0.144531"/><stop stop-opacity="1" stop-color="rgb(11.117554%, 8.09021%, 1.280212%)" offset="0.148438"/><stop stop-opacity="1" stop-color="rgb(11.408997%, 8.302307%, 1.313782%)" offset="0.152344"/><stop stop-opacity="1" stop-color="rgb(11.701965%, 8.51593%, 1.347351%)" offset="0.15625"/><stop stop-opacity="1" stop-color="rgb(11.994934%, 8.728027%, 1.38092%)" offset="0.160156"/><stop stop-opacity="1" stop-color="rgb(12.287903%, 8.94165%, 1.41449%)" offset="0.164062"/><stop stop-opacity="1" stop-color="rgb(12.579346%, 9.155273%, 1.448059%)" offset="0.167969"/><stop stop-opacity="1" stop-color="rgb(12.872314%, 9.368896%, 1.483154%)" offset="0.171875"/><stop stop-opacity="1" stop-color="rgb(13.165283%, 9.580994%, 1.516724%)" offset="0.175781"/><stop stop-opacity="1" stop-color="rgb(13.458252%, 9.794617%, 1.550293%)" offset="0.179688"/><stop stop-opacity="1" stop-color="rgb(13.749695%, 10.006714%, 1.583862%)" offset="0.183594"/><stop stop-opacity="1" stop-color="rgb(14.042664%, 10.220337%, 1.617432%)" offset="0.1875"/><stop stop-opacity="1" stop-color="rgb(14.335632%, 10.432434%, 1.651001%)" offset="0.191406"/><stop stop-opacity="1" stop-color="rgb(14.628601%, 10.646057%, 1.68457%)" offset="0.195312"/><stop stop-opacity="1" stop-color="rgb(14.920044%, 10.858154%, 1.71814%)" offset="0.199219"/><stop stop-opacity="1" stop-color="rgb(15.213013%, 11.071777%, 1.751709%)" offset="0.203125"/><stop stop-opacity="1" stop-color="rgb(15.505981%, 11.283875%, 1.785278%)" offset="0.207031"/><stop stop-opacity="1" stop-color="rgb(15.79895%, 11.497498%, 1.820374%)" offset="0.210938"/><stop stop-opacity="1" stop-color="rgb(16.090393%, 11.709595%, 1.853943%)" offset="0.214844"/><stop stop-opacity="1" stop-color="rgb(16.383362%, 11.923218%, 1.887512%)" offset="0.21875"/><stop stop-opacity="1" stop-color="rgb(16.676331%, 12.135315%, 1.921082%)" offset="0.222656"/><stop stop-opacity="1" stop-color="rgb(16.969299%, 12.348938%, 1.954651%)" offset="0.226562"/><stop stop-opacity="1" stop-color="rgb(17.260742%, 12.561035%, 1.98822%)" offset="0.230469"/><stop stop-opacity="1" stop-color="rgb(17.553711%, 12.774658%, 2.02179%)" offset="0.234375"/><stop stop-opacity="1" stop-color="rgb(17.84668%, 12.986755%, 2.055359%)" offset="0.238281"/><stop stop-opacity="1" stop-color="rgb(18.139648%, 13.200378%, 2.088928%)" offset="0.242188"/><stop stop-opacity="1" stop-color="rgb(18.431091%, 13.412476%, 2.122498%)" offset="0.246094"/><stop stop-opacity="1" stop-color="rgb(18.72406%, 13.626099%, 2.156067%)" offset="0.25"/><stop stop-opacity="1" stop-color="rgb(19.017029%, 13.839722%, 2.189636%)" offset="0.253906"/><stop stop-opacity="1" stop-color="rgb(19.309998%, 14.053345%, 2.224731%)" offset="0.257812"/><stop stop-opacity="1" stop-color="rgb(19.60144%, 14.265442%, 2.258301%)" offset="0.261719"/><stop stop-opacity="1" stop-color="rgb(19.894409%, 14.479065%, 2.29187%)" offset="0.265625"/><stop stop-opacity="1" stop-color="rgb(20.187378%, 14.691162%, 2.325439%)" offset="0.269531"/><stop stop-opacity="1" stop-color="rgb(20.480347%, 14.904785%, 2.359009%)" offset="0.273438"/><stop stop-opacity="1" stop-color="rgb(20.77179%, 15.116882%, 2.392578%)" offset="0.277344"/><stop stop-opacity="1" stop-color="rgb(21.064758%, 15.330505%, 2.426147%)" offset="0.28125"/><stop stop-opacity="1" stop-color="rgb(21.357727%, 15.542603%, 2.459717%)" offset="0.285156"/><stop stop-opacity="1" stop-color="rgb(21.650696%, 15.756226%, 2.493286%)" offset="0.289062"/><stop stop-opacity="1" stop-color="rgb(21.942139%, 15.968323%, 2.526855%)" offset="0.292969"/><stop stop-opacity="1" stop-color="rgb(22.235107%, 16.181946%, 2.561951%)" offset="0.296875"/><stop stop-opacity="1" stop-color="rgb(22.528076%, 16.394043%, 2.59552%)" offset="0.300781"/><stop stop-opacity="1" stop-color="rgb(22.821045%, 16.607666%, 2.629089%)" offset="0.304688"/><stop stop-opacity="1" stop-color="rgb(23.112488%, 16.819763%, 2.662659%)" offset="0.308594"/><stop stop-opacity="1" stop-color="rgb(23.405457%, 17.033386%, 2.696228%)" offset="0.3125"/><stop stop-opacity="1" stop-color="rgb(23.698425%, 17.245483%, 2.729797%)" offset="0.316406"/><stop stop-opacity="1" stop-color="rgb(23.991394%, 17.459106%, 2.763367%)" offset="0.320312"/><stop stop-opacity="1" stop-color="rgb(24.282837%, 17.671204%, 2.796936%)" offset="0.324219"/><stop stop-opacity="1" stop-color="rgb(24.575806%, 17.884827%, 2.830505%)" offset="0.328125"/><stop stop-opacity="1" stop-color="rgb(24.867249%, 18.096924%, 2.864075%)" offset="0.332031"/><stop stop-opacity="1" stop-color="rgb(25.160217%, 18.310547%, 2.897644%)" offset="0.335938"/><stop stop-opacity="1" stop-color="rgb(25.453186%, 18.52417%, 2.931213%)" offset="0.339844"/><stop stop-opacity="1" stop-color="rgb(25.746155%, 18.737793%, 2.966309%)" offset="0.34375"/><stop stop-opacity="1" stop-color="rgb(26.037598%, 18.94989%, 2.999878%)" offset="0.347656"/><stop stop-opacity="1" stop-color="rgb(26.330566%, 19.163513%, 3.033447%)" offset="0.351562"/><stop stop-opacity="1" stop-color="rgb(26.623535%, 19.37561%, 3.067017%)" offset="0.355469"/><stop stop-opacity="1" stop-color="rgb(26.916504%, 19.589233%, 3.100586%)" offset="0.359375"/><stop stop-opacity="1" stop-color="rgb(27.207947%, 19.801331%, 3.134155%)" offset="0.363281"/><stop stop-opacity="1" stop-color="rgb(27.500916%, 20.014954%, 3.167725%)" offset="0.367188"/><stop stop-opacity="1" stop-color="rgb(27.793884%, 20.227051%, 3.201294%)" offset="0.371094"/><stop stop-opacity="1" stop-color="rgb(28.086853%, 20.440674%, 3.234863%)" offset="0.375"/><stop stop-opacity="1" stop-color="rgb(28.378296%, 20.652771%, 3.268433%)" offset="0.378906"/><stop stop-opacity="1" stop-color="rgb(28.671265%, 20.866394%, 3.303528%)" offset="0.382812"/><stop stop-opacity="1" stop-color="rgb(28.964233%, 21.078491%, 3.337097%)" offset="0.386719"/><stop stop-opacity="1" stop-color="rgb(29.257202%, 21.292114%, 3.370667%)" offset="0.390625"/><stop stop-opacity="1" stop-color="rgb(29.548645%, 21.504211%, 3.404236%)" offset="0.394531"/><stop stop-opacity="1" stop-color="rgb(29.841614%, 21.717834%, 3.437805%)" offset="0.398438"/><stop stop-opacity="1" stop-color="rgb(30.134583%, 21.929932%, 3.471375%)" offset="0.402344"/><stop stop-opacity="1" stop-color="rgb(30.427551%, 22.143555%, 3.504944%)" offset="0.40625"/><stop stop-opacity="1" stop-color="rgb(30.718994%, 22.355652%, 3.538513%)" offset="0.410156"/><stop stop-opacity="1" stop-color="rgb(31.011963%, 22.569275%, 3.572083%)" offset="0.414062"/><stop stop-opacity="1" stop-color="rgb(31.304932%, 22.781372%, 3.605652%)" offset="0.417969"/><stop stop-opacity="1" stop-color="rgb(31.5979%, 22.994995%, 3.640747%)" offset="0.421875"/><stop stop-opacity="1" stop-color="rgb(31.889343%, 23.208618%, 3.674316%)" offset="0.425781"/><stop stop-opacity="1" stop-color="rgb(32.182312%, 23.422241%, 3.707886%)" offset="0.429688"/><stop stop-opacity="1" stop-color="rgb(32.475281%, 23.634338%, 3.741455%)" offset="0.433594"/><stop stop-opacity="1" stop-color="rgb(32.76825%, 23.847961%, 3.775024%)" offset="0.4375"/><stop stop-opacity="1" stop-color="rgb(33.059692%, 24.060059%, 3.808594%)" offset="0.441406"/><stop stop-opacity="1" stop-color="rgb(33.352661%, 24.273682%, 3.842163%)" offset="0.445312"/><stop stop-opacity="1" stop-color="rgb(33.64563%, 24.485779%, 3.875732%)" offset="0.449219"/><stop stop-opacity="1" stop-color="rgb(33.938599%, 24.699402%, 3.909302%)" offset="0.453125"/><stop stop-opacity="1" stop-color="rgb(34.230042%, 24.911499%, 3.942871%)" offset="0.457031"/><stop stop-opacity="1" stop-color="rgb(34.52301%, 25.125122%, 3.97644%)" offset="0.460938"/><stop stop-opacity="1" stop-color="rgb(34.815979%, 25.337219%, 4.01001%)" offset="0.464844"/><stop stop-opacity="1" stop-color="rgb(35.108948%, 25.550842%, 4.045105%)" offset="0.46875"/><stop stop-opacity="1" stop-color="rgb(35.400391%, 25.762939%, 4.078674%)" offset="0.472656"/><stop stop-opacity="1" stop-color="rgb(35.693359%, 25.976562%, 4.112244%)" offset="0.476562"/><stop stop-opacity="1" stop-color="rgb(35.986328%, 26.18866%, 4.145813%)" offset="0.480469"/><stop stop-opacity="1" stop-color="rgb(36.279297%, 26.402283%, 4.179382%)" offset="0.484375"/><stop stop-opacity="1" stop-color="rgb(36.57074%, 26.61438%, 4.212952%)" offset="0.488281"/><stop stop-opacity="1" stop-color="rgb(36.863708%, 26.828003%, 4.246521%)" offset="0.492188"/><stop stop-opacity="1" stop-color="rgb(37.156677%, 27.0401%, 4.28009%)" offset="0.496094"/><stop stop-opacity="1" stop-color="rgb(37.449646%, 27.253723%, 4.31366%)" offset="0.5"/><stop stop-opacity="1" stop-color="rgb(37.741089%, 27.46582%, 4.347229%)" offset="0.503906"/><stop stop-opacity="1" stop-color="rgb(38.034058%, 27.679443%, 4.382324%)" offset="0.507812"/><stop stop-opacity="1" stop-color="rgb(38.327026%, 27.893066%, 4.415894%)" offset="0.511719"/><stop stop-opacity="1" stop-color="rgb(38.619995%, 28.106689%, 4.449463%)" offset="0.515625"/><stop stop-opacity="1" stop-color="rgb(38.911438%, 28.318787%, 4.483032%)" offset="0.519531"/><stop stop-opacity="1" stop-color="rgb(39.204407%, 28.53241%, 4.516602%)" offset="0.523438"/><stop stop-opacity="1" stop-color="rgb(39.497375%, 28.744507%, 4.550171%)" offset="0.527344"/><stop stop-opacity="1" stop-color="rgb(39.790344%, 28.95813%, 4.58374%)" offset="0.53125"/><stop stop-opacity="1" stop-color="rgb(40.081787%, 29.170227%, 4.61731%)" offset="0.535156"/><stop stop-opacity="1" stop-color="rgb(40.374756%, 29.38385%, 4.650879%)" offset="0.539062"/><stop stop-opacity="1" stop-color="rgb(40.667725%, 29.595947%, 4.684448%)" offset="0.542969"/><stop stop-opacity="1" stop-color="rgb(40.960693%, 29.80957%, 4.718018%)" offset="0.546875"/><stop stop-opacity="1" stop-color="rgb(41.252136%, 30.021667%, 4.751587%)" offset="0.550781"/><stop stop-opacity="1" stop-color="rgb(41.545105%, 30.235291%, 4.786682%)" offset="0.554688"/><stop stop-opacity="1" stop-color="rgb(41.838074%, 30.447388%, 4.820251%)" offset="0.558594"/><stop stop-opacity="1" stop-color="rgb(42.131042%, 30.661011%, 4.853821%)" offset="0.5625"/><stop stop-opacity="1" stop-color="rgb(42.422485%, 30.873108%, 4.88739%)" offset="0.566406"/><stop stop-opacity="1" stop-color="rgb(42.715454%, 31.086731%, 4.920959%)" offset="0.570312"/><stop stop-opacity="1" stop-color="rgb(43.008423%, 31.298828%, 4.954529%)" offset="0.574219"/><stop stop-opacity="1" stop-color="rgb(43.301392%, 31.512451%, 4.988098%)" offset="0.578125"/><stop stop-opacity="1" stop-color="rgb(43.592834%, 31.724548%, 5.021667%)" offset="0.582031"/><stop stop-opacity="1" stop-color="rgb(43.885803%, 31.938171%, 5.055237%)" offset="0.585938"/><stop stop-opacity="1" stop-color="rgb(44.178772%, 32.150269%, 5.088806%)" offset="0.589844"/><stop stop-opacity="1" stop-color="rgb(44.471741%, 32.363892%, 5.123901%)" offset="0.59375"/><stop stop-opacity="1" stop-color="rgb(44.763184%, 32.577515%, 5.157471%)" offset="0.597656"/><stop stop-opacity="1" stop-color="rgb(45.056152%, 32.791138%, 5.19104%)" offset="0.601562"/><stop stop-opacity="1" stop-color="rgb(45.349121%, 33.003235%, 5.224609%)" offset="0.605469"/><stop stop-opacity="1" stop-color="rgb(45.64209%, 33.216858%, 5.258179%)" offset="0.609375"/><stop stop-opacity="1" stop-color="rgb(45.933533%, 33.428955%, 5.291748%)" offset="0.613281"/><stop stop-opacity="1" stop-color="rgb(46.226501%, 33.642578%, 5.325317%)" offset="0.617188"/><stop stop-opacity="1" stop-color="rgb(46.51947%, 33.854675%, 5.358887%)" offset="0.621094"/><stop stop-opacity="1" stop-color="rgb(46.812439%, 34.068298%, 5.392456%)" offset="0.625"/><stop stop-opacity="1" stop-color="rgb(47.103882%, 34.280396%, 5.426025%)" offset="0.628906"/><stop stop-opacity="1" stop-color="rgb(47.396851%, 34.494019%, 5.461121%)" offset="0.632812"/><stop stop-opacity="1" stop-color="rgb(47.689819%, 34.706116%, 5.49469%)" offset="0.636719"/><stop stop-opacity="1" stop-color="rgb(47.982788%, 34.919739%, 5.528259%)" offset="0.640625"/><stop stop-opacity="1" stop-color="rgb(48.274231%, 35.131836%, 5.561829%)" offset="0.644531"/><stop stop-opacity="1" stop-color="rgb(48.5672%, 35.345459%, 5.595398%)" offset="0.648438"/><stop stop-opacity="1" stop-color="rgb(48.858643%, 35.557556%, 5.628967%)" offset="0.652344"/><stop stop-opacity="1" stop-color="rgb(49.151611%, 35.771179%, 5.662537%)" offset="0.65625"/><stop stop-opacity="1" stop-color="rgb(49.44458%, 35.983276%, 5.696106%)" offset="0.660156"/><stop stop-opacity="1" stop-color="rgb(49.737549%, 36.196899%, 5.729675%)" offset="0.664062"/><stop stop-opacity="1" stop-color="rgb(50.028992%, 36.408997%, 5.763245%)" offset="0.667969"/><stop stop-opacity="1" stop-color="rgb(50.32196%, 36.62262%, 5.796814%)" offset="0.671875"/><stop stop-opacity="1" stop-color="rgb(50.614929%, 36.834717%, 5.830383%)" offset="0.675781"/><stop stop-opacity="1" stop-color="rgb(50.907898%, 37.04834%, 5.865479%)" offset="0.679688"/><stop stop-opacity="1" stop-color="rgb(51.199341%, 37.261963%, 5.899048%)" offset="0.683594"/><stop stop-opacity="1" stop-color="rgb(51.49231%, 37.475586%, 5.932617%)" offset="0.6875"/><stop stop-opacity="1" stop-color="rgb(51.785278%, 37.687683%, 5.966187%)" offset="0.691406"/><stop stop-opacity="1" stop-color="rgb(52.078247%, 37.901306%, 5.999756%)" offset="0.695312"/><stop stop-opacity="1" stop-color="rgb(52.36969%, 38.113403%, 6.033325%)" offset="0.699219"/><stop stop-opacity="1" stop-color="rgb(52.662659%, 38.327026%, 6.066895%)" offset="0.703125"/><stop stop-opacity="1" stop-color="rgb(52.955627%, 38.539124%, 6.100464%)" offset="0.707031"/><stop stop-opacity="1" stop-color="rgb(53.248596%, 38.752747%, 6.134033%)" offset="0.710938"/><stop stop-opacity="1" stop-color="rgb(53.540039%, 38.964844%, 6.167603%)" offset="0.714844"/><stop stop-opacity="1" stop-color="rgb(53.833008%, 39.178467%, 6.202698%)" offset="0.71875"/><stop stop-opacity="1" stop-color="rgb(54.125977%, 39.390564%, 6.236267%)" offset="0.722656"/><stop stop-opacity="1" stop-color="rgb(54.418945%, 39.604187%, 6.269836%)" offset="0.726562"/><stop stop-opacity="1" stop-color="rgb(54.710388%, 39.816284%, 6.303406%)" offset="0.730469"/><stop stop-opacity="1" stop-color="rgb(55.003357%, 40.029907%, 6.336975%)" offset="0.734375"/><stop stop-opacity="1" stop-color="rgb(55.296326%, 40.242004%, 6.370544%)" offset="0.738281"/><stop stop-opacity="1" stop-color="rgb(55.589294%, 40.455627%, 6.404114%)" offset="0.742188"/><stop stop-opacity="1" stop-color="rgb(55.880737%, 40.667725%, 6.437683%)" offset="0.746094"/><stop stop-opacity="1" stop-color="rgb(56.173706%, 40.881348%, 6.471252%)" offset="0.75"/><stop stop-opacity="1" stop-color="rgb(56.466675%, 41.093445%, 6.504822%)" offset="0.753906"/><stop stop-opacity="1" stop-color="rgb(56.759644%, 41.307068%, 6.539917%)" offset="0.757812"/><stop stop-opacity="1" stop-color="rgb(57.051086%, 41.519165%, 6.573486%)" offset="0.761719"/><stop stop-opacity="1" stop-color="rgb(57.344055%, 41.732788%, 6.607056%)" offset="0.765625"/><stop stop-opacity="1" stop-color="rgb(57.637024%, 41.946411%, 6.640625%)" offset="0.769531"/><stop stop-opacity="1" stop-color="rgb(57.929993%, 42.160034%, 6.674194%)" offset="0.773438"/><stop stop-opacity="1" stop-color="rgb(58.221436%, 42.372131%, 6.707764%)" offset="0.777344"/><stop stop-opacity="1" stop-color="rgb(58.514404%, 42.585754%, 6.741333%)" offset="0.78125"/><stop stop-opacity="1" stop-color="rgb(58.807373%, 42.797852%, 6.774902%)" offset="0.785156"/><stop stop-opacity="1" stop-color="rgb(59.100342%, 43.011475%, 6.808472%)" offset="0.789062"/><stop stop-opacity="1" stop-color="rgb(59.391785%, 43.223572%, 6.842041%)" offset="0.792969"/><stop stop-opacity="1" stop-color="rgb(59.684753%, 43.437195%, 6.87561%)" offset="0.796875"/><stop stop-opacity="1" stop-color="rgb(59.977722%, 43.649292%, 6.90918%)" offset="0.800781"/><stop stop-opacity="1" stop-color="rgb(60.270691%, 43.862915%, 6.944275%)" offset="0.804688"/><stop stop-opacity="1" stop-color="rgb(60.562134%, 44.075012%, 6.977844%)" offset="0.808594"/><stop stop-opacity="1" stop-color="rgb(60.855103%, 44.288635%, 7.011414%)" offset="0.8125"/><stop stop-opacity="1" stop-color="rgb(61.148071%, 44.500732%, 7.044983%)" offset="0.816406"/><stop stop-opacity="1" stop-color="rgb(61.44104%, 44.714355%, 7.078552%)" offset="0.820312"/><stop stop-opacity="1" stop-color="rgb(61.732483%, 44.926453%, 7.112122%)" offset="0.824219"/><stop stop-opacity="1" stop-color="rgb(62.025452%, 45.140076%, 7.145691%)" offset="0.828125"/><stop stop-opacity="1" stop-color="rgb(62.31842%, 45.352173%, 7.17926%)" offset="0.832031"/><stop stop-opacity="1" stop-color="rgb(62.611389%, 45.565796%, 7.21283%)" offset="0.835938"/><stop stop-opacity="1" stop-color="rgb(62.902832%, 45.777893%, 7.246399%)" offset="0.839844"/><stop stop-opacity="1" stop-color="rgb(63.195801%, 45.991516%, 7.281494%)" offset="0.84375"/><stop stop-opacity="1" stop-color="rgb(63.48877%, 46.203613%, 7.315063%)" offset="0.847656"/><stop stop-opacity="1" stop-color="rgb(63.781738%, 46.417236%, 7.348633%)" offset="0.851562"/><stop stop-opacity="1" stop-color="rgb(64.073181%, 46.630859%, 7.382202%)" offset="0.855469"/><stop stop-opacity="1" stop-color="rgb(64.36615%, 46.844482%, 7.415771%)" offset="0.859375"/><stop stop-opacity="1" stop-color="rgb(64.659119%, 47.05658%, 7.449341%)" offset="0.863281"/><stop stop-opacity="1" stop-color="rgb(64.952087%, 47.270203%, 7.48291%)" offset="0.867188"/><stop stop-opacity="1" stop-color="rgb(65.24353%, 47.4823%, 7.516479%)" offset="0.871094"/><stop stop-opacity="1" stop-color="rgb(65.536499%, 47.695923%, 7.550049%)" offset="0.875"/><stop stop-opacity="1" stop-color="rgb(65.829468%, 47.90802%, 7.583618%)" offset="0.878906"/><stop stop-opacity="1" stop-color="rgb(66.122437%, 48.121643%, 7.617188%)" offset="0.882812"/><stop stop-opacity="1" stop-color="rgb(66.413879%, 48.33374%, 7.650757%)" offset="0.886719"/><stop stop-opacity="1" stop-color="rgb(66.706848%, 48.547363%, 7.685852%)" offset="0.890625"/><stop stop-opacity="1" stop-color="rgb(66.999817%, 48.75946%, 7.719421%)" offset="0.894531"/><stop stop-opacity="1" stop-color="rgb(67.292786%, 48.973083%, 7.752991%)" offset="0.898438"/><stop stop-opacity="1" stop-color="rgb(67.584229%, 49.185181%, 7.78656%)" offset="0.902344"/><stop stop-opacity="1" stop-color="rgb(67.877197%, 49.398804%, 7.820129%)" offset="0.90625"/><stop stop-opacity="1" stop-color="rgb(68.170166%, 49.610901%, 7.853699%)" offset="0.910156"/><stop stop-opacity="1" stop-color="rgb(68.463135%, 49.824524%, 7.887268%)" offset="0.914062"/><stop stop-opacity="1" stop-color="rgb(68.754578%, 50.036621%, 7.920837%)" offset="0.917969"/><stop stop-opacity="1" stop-color="rgb(69.047546%, 50.250244%, 7.954407%)" offset="0.921875"/><stop stop-opacity="1" stop-color="rgb(69.340515%, 50.462341%, 7.987976%)" offset="0.925781"/><stop stop-opacity="1" stop-color="rgb(69.633484%, 50.675964%, 8.023071%)" offset="0.929688"/><stop stop-opacity="1" stop-color="rgb(69.924927%, 50.888062%, 8.056641%)" offset="0.933594"/><stop stop-opacity="1" stop-color="rgb(70.217896%, 51.101685%, 8.09021%)" offset="0.9375"/><stop stop-opacity="1" stop-color="rgb(70.510864%, 51.315308%, 8.123779%)" offset="0.941406"/><stop stop-opacity="1" stop-color="rgb(70.803833%, 51.528931%, 8.157349%)" offset="0.945312"/><stop stop-opacity="1" stop-color="rgb(71.095276%, 51.741028%, 8.190918%)" offset="0.949219"/><stop stop-opacity="1" stop-color="rgb(71.388245%, 51.954651%, 8.224487%)" offset="0.953125"/><stop stop-opacity="1" stop-color="rgb(71.681213%, 52.166748%, 8.258057%)" offset="0.957031"/><stop stop-opacity="1" stop-color="rgb(71.974182%, 52.380371%, 8.291626%)" offset="0.960938"/><stop stop-opacity="1" stop-color="rgb(72.265625%, 52.592468%, 8.325195%)" offset="0.964844"/><stop stop-opacity="1" stop-color="rgb(72.558594%, 52.806091%, 8.360291%)" offset="0.96875"/><stop stop-opacity="1" stop-color="rgb(72.851562%, 53.018188%, 8.39386%)" offset="0.972656"/><stop stop-opacity="1" stop-color="rgb(73.144531%, 53.231812%, 8.427429%)" offset="0.976562"/><stop stop-opacity="1" stop-color="rgb(73.435974%, 53.443909%, 8.460999%)" offset="0.980469"/><stop stop-opacity="1" stop-color="rgb(73.728943%, 53.657532%, 8.494568%)" offset="0.984375"/><stop stop-opacity="1" stop-color="rgb(74.020386%, 53.869629%, 8.528137%)" offset="0.988281"/><stop stop-opacity="1" stop-color="rgb(74.313354%, 54.083252%, 8.561707%)" offset="0.992188"/><stop stop-opacity="1" stop-color="rgb(74.606323%, 54.295349%, 8.595276%)" offset="0.996094"/><stop stop-opacity="1" stop-color="rgb(74.899292%, 54.508972%, 8.628845%)" offset="1"/></linearGradient><clipPath id="396302eb76"><rect x="0" width="414" y="0" height="414"/></clipPath><clipPath id="0bb3bdea62"><path d="M 318.121094 350.164062 L 489 350.164062 L 489 652 L 318.121094 652 Z M 318.121094 350.164062 " clip-rule="nonzero"/></clipPath></defs><g clip-path="url(#ba5c495311)"><g clip-path="url(#379252a0f1)"><g transform="matrix(1, 0, 0, 1, 198, 299)"><g clip-path="url(#396302eb76)"><g clip-path="url(#e95efbac03)"><g clip-path="url(#c0152f16af)"><path fill="url(#6b9254e32c)" d="M 0.550781 0.550781 L 0.550781 413.449219 L 413.449219 413.449219 L 413.449219 0.550781 Z M 0.550781 0.550781 " fill-rule="nonzero"/></g></g></g></g></g></g><path fill="#000000" d="M 442.757812 431.535156 L 453.996094 427.371094 C 454.617188 427.136719 455.261719 427.003906 455.925781 426.972656 C 456.589844 426.9375 457.242188 427.003906 457.882812 427.171875 C 458.527344 427.335938 459.132812 427.597656 459.695312 427.949219 C 460.257812 428.300781 460.753906 428.730469 461.1875 429.238281 C 461.617188 429.742188 461.960938 430.300781 462.222656 430.914062 C 462.480469 431.523438 462.640625 432.160156 462.707031 432.820312 C 462.769531 433.484375 462.730469 434.140625 462.59375 434.789062 C 462.453125 435.4375 462.222656 436.050781 461.894531 436.628906 L 425.554688 500.78125 L 456.566406 493.183594 C 457.230469 493.023438 457.902344 492.964844 458.582031 493.015625 C 459.261719 493.066406 459.917969 493.222656 460.546875 493.480469 C 461.179688 493.734375 461.757812 494.085938 462.277344 494.523438 C 462.800781 494.960938 463.242188 495.472656 463.601562 496.050781 C 463.964844 496.628906 464.226562 497.25 464.390625 497.910156 C 464.558594 498.570312 464.617188 499.242188 464.570312 499.921875 C 464.523438 500.601562 464.375 501.257812 464.121094 501.890625 C 463.867188 502.523438 463.523438 503.101562 463.085938 503.625 L 333.769531 658.921875 C 333.523438 659.222656 333.246094 659.5 332.949219 659.75 C 332.648438 660 332.332031 660.222656 331.992188 660.414062 C 331.652344 660.609375 331.296875 660.769531 330.929688 660.898438 C 330.5625 661.027344 330.183594 661.121094 329.800781 661.183594 C 329.414062 661.242188 329.027344 661.269531 328.636719 661.261719 C 328.246094 661.25 327.859375 661.207031 327.476562 661.128906 C 327.09375 661.050781 326.722656 660.9375 326.359375 660.789062 C 326 660.644531 325.652344 660.46875 325.324219 660.257812 C 324.992188 660.050781 324.6875 659.8125 324.398438 659.550781 C 324.113281 659.285156 323.851562 658.996094 323.617188 658.683594 C 323.382812 658.375 323.175781 658.042969 323 657.695312 C 322.824219 657.347656 322.683594 656.984375 322.574219 656.609375 C 322.464844 656.238281 322.386719 655.855469 322.347656 655.46875 C 322.304688 655.078125 322.300781 654.691406 322.328125 654.300781 C 322.359375 653.914062 322.421875 653.53125 322.519531 653.152344 C 322.621094 652.773438 322.75 652.410156 322.917969 652.054688 L 365.285156 560.71875 L 328.847656 566.332031 C 328.238281 566.425781 327.625 566.429688 327.011719 566.347656 C 326.398438 566.265625 325.8125 566.097656 325.246094 565.847656 C 324.679688 565.597656 324.160156 565.273438 323.691406 564.871094 C 323.21875 564.472656 322.8125 564.015625 322.46875 563.5 C 322.128906 562.988281 321.863281 562.433594 321.679688 561.84375 C 321.496094 561.253906 321.398438 560.648438 321.390625 560.03125 C 321.378906 559.414062 321.453125 558.804688 321.617188 558.210938 C 321.777344 557.613281 322.023438 557.050781 322.34375 556.523438 L 366.863281 484.214844 L 329.003906 490.96875 C 328.386719 491.082031 327.761719 491.101562 327.140625 491.03125 C 326.515625 490.960938 325.914062 490.804688 325.332031 490.558594 C 324.753906 490.3125 324.222656 489.992188 323.738281 489.589844 C 323.253906 489.191406 322.835938 488.730469 322.484375 488.210938 C 322.132812 487.6875 321.863281 487.128906 321.675781 486.527344 C 321.488281 485.929688 321.390625 485.3125 321.382812 484.683594 C 321.375 484.058594 321.457031 483.441406 321.625 482.835938 C 321.796875 482.230469 322.050781 481.664062 322.386719 481.132812 L 382.851562 385.347656 C 383.308594 384.621094 383.882812 384.011719 384.582031 383.515625 C 385.28125 383.023438 386.046875 382.679688 386.878906 382.488281 L 483.628906 360.167969 C 484.28125 360.015625 484.941406 359.96875 485.609375 360.019531 C 486.277344 360.074219 486.921875 360.226562 487.539062 360.480469 C 488.160156 360.730469 488.726562 361.074219 489.242188 361.5 C 489.757812 361.929688 490.195312 362.425781 490.554688 362.988281 C 490.914062 363.554688 491.183594 364.160156 491.355469 364.804688 C 491.527344 365.453125 491.597656 366.109375 491.566406 366.777344 C 491.535156 367.449219 491.402344 368.097656 491.171875 368.722656 C 490.9375 369.351562 490.617188 369.929688 490.203125 370.457031 Z M 442.757812 431.535156 " fill-opacity="1" fill-rule="evenodd"/><g clip-path="url(#0bb3bdea62)"><path fill="#000000" d="M 439.871094 422.148438 L 451.109375 417.980469 C 451.730469 417.75 452.375 417.617188 453.039062 417.585938 C 453.703125 417.550781 454.355469 417.617188 454.996094 417.785156 C 455.640625 417.953125 456.242188 418.210938 456.808594 418.5625 C 457.371094 418.917969 457.867188 419.34375 458.296875 419.851562 C 458.730469 420.355469 459.074219 420.914062 459.332031 421.527344 C 459.59375 422.136719 459.753906 422.773438 459.816406 423.433594 C 459.878906 424.097656 459.84375 424.75 459.703125 425.402344 C 459.566406 426.050781 459.332031 426.664062 459.007812 427.242188 L 422.667969 491.394531 L 453.683594 483.792969 C 454.347656 483.632812 455.019531 483.574219 455.699219 483.625 C 456.378906 483.675781 457.035156 483.828125 457.667969 484.085938 C 458.300781 484.34375 458.875 484.691406 459.398438 485.132812 C 459.917969 485.570312 460.359375 486.078125 460.722656 486.660156 C 461.082031 487.238281 461.347656 487.855469 461.511719 488.519531 C 461.675781 489.179688 461.734375 489.851562 461.6875 490.53125 C 461.644531 491.210938 461.492188 491.867188 461.238281 492.5 C 460.984375 493.132812 460.640625 493.710938 460.203125 494.234375 L 330.886719 649.53125 C 330.640625 649.832031 330.363281 650.109375 330.066406 650.359375 C 329.765625 650.609375 329.445312 650.832031 329.109375 651.027344 C 328.769531 651.21875 328.414062 651.378906 328.046875 651.507812 C 327.675781 651.636719 327.300781 651.734375 326.914062 651.792969 C 326.527344 651.855469 326.140625 651.882812 325.75 651.871094 C 325.359375 651.863281 324.972656 651.820312 324.589844 651.742188 C 324.207031 651.664062 323.835938 651.550781 323.472656 651.402344 C 323.113281 651.257812 322.765625 651.082031 322.4375 650.871094 C 322.105469 650.664062 321.796875 650.425781 321.507812 650.164062 C 321.222656 649.898438 320.960938 649.609375 320.726562 649.296875 C 320.488281 648.988281 320.285156 648.65625 320.109375 648.308594 C 319.933594 647.960938 319.789062 647.597656 319.679688 647.222656 C 319.570312 646.847656 319.496094 646.46875 319.453125 646.078125 C 319.410156 645.691406 319.40625 645.300781 319.433594 644.914062 C 319.464844 644.523438 319.527344 644.140625 319.625 643.761719 C 319.722656 643.382812 319.855469 643.019531 320.019531 642.664062 L 362.382812 551.328125 L 325.960938 556.941406 C 325.347656 557.035156 324.734375 557.042969 324.121094 556.960938 C 323.507812 556.878906 322.917969 556.714844 322.351562 556.464844 C 321.785156 556.210938 321.265625 555.886719 320.792969 555.488281 C 320.320312 555.089844 319.914062 554.632812 319.570312 554.117188 C 319.230469 553.601562 318.964844 553.046875 318.785156 552.457031 C 318.601562 551.867188 318.503906 551.261719 318.492188 550.640625 C 318.484375 550.023438 318.558594 549.414062 318.722656 548.820312 C 318.886719 548.222656 319.132812 547.660156 319.457031 547.132812 L 363.972656 474.824219 L 326.113281 481.582031 C 325.492188 481.691406 324.871094 481.710938 324.246094 481.644531 C 323.621094 481.574219 323.019531 481.414062 322.441406 481.171875 C 321.863281 480.925781 321.332031 480.601562 320.847656 480.203125 C 320.359375 479.804688 319.941406 479.34375 319.59375 478.820312 C 319.242188 478.300781 318.972656 477.738281 318.785156 477.140625 C 318.597656 476.539062 318.5 475.925781 318.492188 475.296875 C 318.484375 474.667969 318.5625 474.050781 318.734375 473.449219 C 318.90625 472.84375 319.160156 472.273438 319.496094 471.742188 L 379.964844 375.960938 C 380.417969 375.234375 380.992188 374.621094 381.691406 374.125 C 382.390625 373.632812 383.15625 373.289062 383.992188 373.101562 L 480.742188 350.78125 C 481.394531 350.632812 482.054688 350.585938 482.71875 350.640625 C 483.386719 350.691406 484.027344 350.847656 484.648438 351.101562 C 485.265625 351.351562 485.832031 351.695312 486.34375 352.121094 C 486.859375 352.550781 487.296875 353.046875 487.65625 353.609375 C 488.015625 354.171875 488.28125 354.777344 488.453125 355.421875 C 488.628906 356.066406 488.699219 356.726562 488.667969 357.390625 C 488.636719 358.058594 488.507812 358.707031 488.277344 359.335938 C 488.046875 359.960938 487.726562 360.539062 487.316406 361.070312 Z M 439.871094 422.148438 " fill-opacity="1" fill-rule="evenodd"/></g><path fill="#f0d012" d="M 426.679688 431.832031 L 452.671875 422.191406 C 453.0625 422.035156 453.460938 422.007812 453.871094 422.113281 C 454.28125 422.222656 454.617188 422.4375 454.882812 422.765625 C 455.152344 423.082031 455.3125 423.449219 455.351562 423.863281 C 455.394531 424.28125 455.3125 424.671875 455.105469 425.035156 L 413.65625 498.203125 L 454.742188 488.152344 C 455.160156 488.046875 455.570312 488.070312 455.972656 488.230469 C 456.375 488.390625 456.691406 488.65625 456.921875 489.023438 C 457.148438 489.386719 457.25 489.789062 457.21875 490.21875 C 457.1875 490.652344 457.035156 491.03125 456.753906 491.363281 L 327.4375 646.679688 C 327.285156 646.863281 327.101562 647.019531 326.890625 647.136719 C 326.675781 647.257812 326.453125 647.335938 326.210938 647.375 C 325.972656 647.414062 325.730469 647.40625 325.496094 647.359375 C 325.257812 647.308594 325.035156 647.21875 324.828125 647.089844 C 324.625 646.957031 324.449219 646.796875 324.300781 646.601562 C 324.15625 646.40625 324.046875 646.195312 323.980469 645.960938 C 323.914062 645.726562 323.886719 645.488281 323.90625 645.246094 C 323.925781 645.003906 323.984375 644.773438 324.089844 644.554688 L 369.96875 545.628906 L 325.269531 552.511719 C 324.886719 552.574219 324.515625 552.527344 324.160156 552.371094 C 323.804688 552.210938 323.523438 551.972656 323.3125 551.644531 C 323.085938 551.324219 322.96875 550.96875 322.960938 550.574219 C 322.953125 550.183594 323.058594 549.824219 323.269531 549.492188 L 373.039062 468.664062 L 325.328125 477.175781 C 324.9375 477.246094 324.558594 477.203125 324.195312 477.046875 C 323.828125 476.894531 323.539062 476.652344 323.316406 476.320312 C 323.09375 475.992188 322.980469 475.628906 322.976562 475.234375 C 322.972656 474.839844 323.074219 474.472656 323.285156 474.136719 L 383.753906 378.351562 C 384.042969 377.882812 384.453125 377.585938 384.992188 377.464844 L 481.757812 355.144531 C 482.167969 355.054688 482.570312 355.089844 482.957031 355.25 C 483.347656 355.410156 483.65625 355.667969 483.882812 356.023438 C 484.109375 356.378906 484.214844 356.765625 484.195312 357.1875 C 484.179688 357.609375 484.039062 357.984375 483.785156 358.320312 Z M 426.679688 431.832031 " fill-opacity="1" fill-rule="evenodd"/><path fill="#f47f39" d="M 440.6875 497.0625 L 337.082031 621.5 L 331.886719 627.75 L 324.082031 644.554688 C 323.980469 644.773438 323.921875 645.003906 323.902344 645.246094 C 323.886719 645.488281 323.910156 645.726562 323.980469 645.960938 C 324.046875 646.191406 324.15625 646.40625 324.300781 646.601562 C 324.445312 646.792969 324.621094 646.957031 324.828125 647.085938 C 324.925781 647.144531 325.03125 647.195312 325.136719 647.242188 C 325.539062 647.410156 325.953125 647.445312 326.378906 647.339844 C 326.800781 647.234375 327.152344 647.015625 327.433594 646.679688 L 454.902344 493.585938 L 456.746094 491.355469 C 457.027344 491.027344 457.179688 490.644531 457.210938 490.214844 C 457.242188 489.78125 457.144531 489.382812 456.914062 489.015625 C 456.683594 488.652344 456.367188 488.386719 455.964844 488.226562 C 455.5625 488.066406 455.152344 488.039062 454.734375 488.148438 L 446.433594 490.175781 Z M 440.6875 497.0625 " fill-opacity="1" fill-rule="evenodd"/></svg>